<svg width="399" height="197" viewBox="0 0 399 197" fill="none" xmlns="http://www.w3.org/2000/svg">
<mask id="path-1-outside-1_5_54" maskUnits="userSpaceOnUse" x="37" y="51" width="331" height="109" fill="black">
<rect fill="white" x="37" y="51" width="331" height="109"/>
<path d="M45.296 64.432C46.512 64.208 47.856 64.064 49.328 64C50.832 63.936 52.048 63.904 52.976 63.904C54 63.904 55.216 63.936 56.624 64C58.064 64.064 59.424 64.208 60.704 64.432V130C59.424 130.224 58.064 130.368 56.624 130.432C55.216 130.496 54 130.528 52.976 130.528C52.048 130.528 50.832 130.496 49.328 130.432C47.856 130.368 46.512 130.224 45.296 130V64.432ZM96.944 126.208C95.952 127.68 94.512 128.816 92.624 129.616C90.768 130.416 88.816 130.816 86.768 130.816C83.984 130.816 81.968 130.096 80.72 128.656C79.472 127.216 78.384 125.024 77.456 122.08L73.856 110.848C72.896 107.808 71.728 105.648 70.352 104.368C68.976 103.088 67.152 102.448 64.88 102.448C63.44 102.448 61.68 102.528 59.6 102.688C57.552 102.848 55.312 103.04 52.88 103.264V93.856H71.984C75.6 93.856 78.448 94.368 80.528 95.392C82.608 96.416 84.208 97.792 85.328 99.52C86.448 101.248 87.344 103.184 88.016 105.328L91.952 117.184C92.592 119.04 93.136 120.512 93.584 121.6C94.064 122.656 94.56 123.52 95.072 124.192C95.584 124.864 96.208 125.536 96.944 126.208ZM76.544 69.184C77.472 67.392 78.464 66.064 79.52 65.2C80.576 64.336 82.224 63.904 84.464 63.904C85.712 63.904 87.184 63.952 88.88 64.048C90.576 64.112 92.176 64.208 93.68 64.336L94.496 65.392L82.88 87.424C81.056 90.88 78.72 93.6 75.872 95.584C73.056 97.536 69.28 98.512 64.544 98.512H52.88V89.872C54.576 89.84 56.288 89.808 58.016 89.776C59.744 89.744 61.44 89.712 63.104 89.68C64.32 89.68 65.184 89.456 65.696 89.008C66.208 88.56 66.8 87.696 67.472 86.416L76.544 69.184ZM100.411 116.896C100.411 113.024 101.307 109.872 103.099 107.44C104.891 104.976 107.227 103.152 110.107 101.968C113.019 100.784 116.123 100.192 119.419 100.192C120.859 100.192 122.667 100.224 124.843 100.288C127.051 100.352 129.035 100.56 130.795 100.912V110.416C129.419 110.096 127.755 109.92 125.803 109.888C123.883 109.824 122.283 109.792 121.003 109.792C118.859 109.792 117.323 110.368 116.395 111.52C115.467 112.64 115.003 114.096 115.003 115.888C115.003 117.168 115.387 118.24 116.155 119.104C116.955 119.936 118.043 120.352 119.419 120.352C121.339 120.352 123.291 119.664 125.275 118.288C127.259 116.912 128.939 115.024 130.315 112.624L132.427 122.128C131.179 123.6 129.755 125.056 128.155 126.496C126.555 127.904 124.683 129.072 122.539 130C120.395 130.928 117.883 131.392 115.003 131.392C111.707 131.392 108.971 130.672 106.795 129.232C104.651 127.76 103.051 125.92 101.995 123.712C100.939 121.472 100.411 119.2 100.411 116.896ZM143.947 123.04C143.691 124.384 143.099 125.824 142.171 127.36C141.243 128.896 140.315 130.032 139.387 130.768C136.571 130.704 134.235 130.064 132.379 128.848C130.555 127.632 129.147 126.144 128.155 124.384C127.195 122.592 126.571 120.848 126.283 119.152V98.608C126.283 96.624 125.771 95.12 124.747 94.096C123.755 93.04 122.171 92.512 119.995 92.512C117.947 92.512 115.707 92.848 113.275 93.52C110.843 94.16 108.363 94.848 105.835 95.584C104.779 94.368 103.947 92.8 103.339 90.88C102.763 88.928 102.395 87.024 102.235 85.168C104.411 84.272 106.811 83.52 109.435 82.912C112.059 82.272 114.667 81.792 117.259 81.472C119.851 81.12 122.171 80.944 124.219 80.944C127.035 80.944 129.739 81.472 132.331 82.528C134.923 83.552 137.051 85.264 138.715 87.664C140.411 90.032 141.259 93.248 141.259 97.312V116.848C141.259 118.224 141.483 119.44 141.931 120.496C142.379 121.552 143.051 122.4 143.947 123.04ZM153.728 76.672C153.728 73.312 154.336 70.976 155.552 69.664C156.8 68.32 158.896 67.648 161.84 67.648H167.696L168.368 68.32V114.544C168.368 115.984 168.688 117.104 169.328 117.904C170 118.672 171.104 119.056 172.64 119.056H178.016C178.368 120.112 178.64 121.28 178.832 122.56C179.056 123.808 179.168 125.008 179.168 126.16C179.168 126.704 179.152 127.28 179.12 127.888C179.088 128.496 178.992 129.056 178.832 129.568C177.072 129.792 175.04 130 172.736 130.192C170.432 130.384 168.32 130.48 166.4 130.48C162.048 130.48 158.848 129.408 156.8 127.264C154.752 125.088 153.728 121.712 153.728 117.136V76.672ZM179.744 82C180.192 83.696 180.416 85.44 180.416 87.232C180.416 88.128 180.368 89.04 180.272 89.968C180.176 90.864 180 91.76 179.744 92.656L161.84 92.368L146.192 92.656C145.776 90.96 145.568 89.152 145.568 87.232C145.568 85.504 145.776 83.76 146.192 82L162.272 82.24L179.744 82ZM184.786 116.896C184.786 113.024 185.682 109.872 187.474 107.44C189.266 104.976 191.602 103.152 194.482 101.968C197.394 100.784 200.498 100.192 203.794 100.192C205.234 100.192 207.042 100.224 209.218 100.288C211.426 100.352 213.41 100.56 215.17 100.912V110.416C213.794 110.096 212.13 109.92 210.178 109.888C208.258 109.824 206.658 109.792 205.378 109.792C203.234 109.792 201.698 110.368 200.77 111.52C199.842 112.64 199.378 114.096 199.378 115.888C199.378 117.168 199.762 118.24 200.53 119.104C201.33 119.936 202.418 120.352 203.794 120.352C205.714 120.352 207.666 119.664 209.65 118.288C211.634 116.912 213.314 115.024 214.69 112.624L216.802 122.128C215.554 123.6 214.13 125.056 212.53 126.496C210.93 127.904 209.058 129.072 206.914 130C204.77 130.928 202.258 131.392 199.378 131.392C196.082 131.392 193.346 130.672 191.17 129.232C189.026 127.76 187.426 125.92 186.37 123.712C185.314 121.472 184.786 119.2 184.786 116.896ZM228.322 123.04C228.066 124.384 227.474 125.824 226.546 127.36C225.618 128.896 224.69 130.032 223.762 130.768C220.946 130.704 218.61 130.064 216.754 128.848C214.93 127.632 213.522 126.144 212.53 124.384C211.57 122.592 210.946 120.848 210.658 119.152V98.608C210.658 96.624 210.146 95.12 209.122 94.096C208.13 93.04 206.546 92.512 204.37 92.512C202.322 92.512 200.082 92.848 197.65 93.52C195.218 94.16 192.738 94.848 190.21 95.584C189.154 94.368 188.322 92.8 187.714 90.88C187.138 88.928 186.77 87.024 186.61 85.168C188.786 84.272 191.186 83.52 193.81 82.912C196.434 82.272 199.042 81.792 201.634 81.472C204.226 81.12 206.546 80.944 208.594 80.944C211.41 80.944 214.114 81.472 216.706 82.528C219.298 83.552 221.426 85.264 223.09 87.664C224.786 90.032 225.634 93.248 225.634 97.312V116.848C225.634 118.224 225.858 119.44 226.306 120.496C226.754 121.552 227.426 122.4 228.322 123.04ZM258.197 119.056C258.549 120.112 258.837 121.264 259.061 122.512C259.285 123.728 259.397 124.944 259.397 126.16C259.397 126.704 259.365 127.28 259.301 127.888C259.269 128.496 259.173 129.056 259.013 129.568C257.573 129.792 255.957 130 254.165 130.192C252.373 130.384 250.549 130.48 248.693 130.48C244.341 130.48 241.253 129.408 239.429 127.264C237.637 125.088 236.741 121.712 236.741 117.136V60.016L237.413 59.344H243.269C246.213 59.344 248.309 60.016 249.557 61.36C250.805 62.704 251.429 65.04 251.429 68.368V114.496C251.429 115.968 251.749 117.104 252.389 117.904C253.029 118.672 254.085 119.056 255.557 119.056H258.197ZM307.513 106.048C307.513 111.168 306.665 115.632 304.969 119.44C303.273 123.248 300.777 126.192 297.481 128.272C294.217 130.352 290.169 131.392 285.337 131.392C280.473 131.392 276.393 130.352 273.097 128.272C269.801 126.16 267.321 123.2 265.657 119.392C263.993 115.584 263.161 111.136 263.161 106.048C263.161 100.896 263.993 96.432 265.657 92.656C267.353 88.848 269.849 85.904 273.145 83.824C276.441 81.712 280.505 80.656 285.337 80.656C290.201 80.656 294.281 81.712 297.577 83.824C300.873 85.936 303.353 88.896 305.017 92.704C306.681 96.48 307.513 100.928 307.513 106.048ZM278.569 106.048C278.569 108.672 278.713 111.056 279.001 113.2C279.321 115.344 279.961 117.056 280.921 118.336C281.913 119.584 283.385 120.208 285.337 120.208C287.321 120.208 288.793 119.584 289.753 118.336C290.713 117.056 291.337 115.344 291.625 113.2C291.945 111.056 292.105 108.672 292.105 106.048C292.105 103.392 291.945 100.992 291.625 98.848C291.337 96.704 290.713 95.008 289.753 93.76C288.793 92.48 287.321 91.84 285.337 91.84C283.385 91.84 281.913 92.48 280.921 93.76C279.961 95.008 279.321 96.704 279.001 98.848C278.713 100.992 278.569 103.392 278.569 106.048ZM359.014 89.008C358.214 89.584 357.558 90.512 357.046 91.792C356.566 93.04 356.326 94.432 356.326 95.968V121.264C356.326 125.744 356.118 129.44 355.702 132.352C355.318 135.296 354.758 137.68 354.022 139.504C353.286 141.36 352.406 142.928 351.382 144.208C349.494 146.64 346.982 148.416 343.846 149.536C340.71 150.656 337.222 151.216 333.382 151.216C330.374 151.216 327.238 150.912 323.974 150.304C320.71 149.728 317.83 148.976 315.334 148.048C315.334 146.288 315.686 144.336 316.39 142.192C317.094 140.08 317.974 138.416 319.03 137.2C321.11 138.096 323.254 138.8 325.462 139.312C327.702 139.824 329.878 140.08 331.99 140.08C334.326 140.08 336.198 139.68 337.606 138.88C339.046 138.08 340.086 136.944 340.726 135.472C341.366 134 341.686 132.288 341.686 130.336V95.728C341.686 91.728 342.758 88.352 344.902 85.6C347.046 82.816 350.23 81.392 354.454 81.328C355.382 82.032 356.326 83.168 357.286 84.736C358.246 86.272 358.822 87.696 359.014 89.008ZM313.51 106.144C313.51 100.64 314.39 96 316.15 92.224C317.91 88.416 320.246 85.536 323.158 83.584C326.07 81.632 329.27 80.656 332.758 80.656C335.894 80.656 338.55 81.168 340.726 82.192C342.934 83.216 344.758 84.464 346.198 85.936C347.638 87.408 348.758 88.848 349.558 90.256L347.158 102.496C345.302 99.008 343.302 96.368 341.158 94.576C339.046 92.752 337.126 91.84 335.398 91.84C333.862 91.84 332.614 92.416 331.654 93.568C330.694 94.72 329.99 96.384 329.542 98.56C329.094 100.704 328.87 103.264 328.87 106.24C328.87 110.688 329.398 113.92 330.454 115.936C331.542 117.92 332.902 118.912 334.534 118.912C336.454 118.912 338.326 118.256 340.15 116.944C342.006 115.632 343.558 113.68 344.806 111.088L346.918 121.504C345.862 123.296 344.502 124.912 342.838 126.352C341.174 127.792 339.302 128.928 337.222 129.76C335.174 130.56 333.03 130.96 330.79 130.96C326.886 130.96 323.654 129.904 321.094 127.792C318.534 125.68 316.63 122.768 315.382 119.056C314.134 115.312 313.51 111.008 313.51 106.144Z"/>
</mask>
<path d="M45.296 64.432C46.512 64.208 47.856 64.064 49.328 64C50.832 63.936 52.048 63.904 52.976 63.904C54 63.904 55.216 63.936 56.624 64C58.064 64.064 59.424 64.208 60.704 64.432V130C59.424 130.224 58.064 130.368 56.624 130.432C55.216 130.496 54 130.528 52.976 130.528C52.048 130.528 50.832 130.496 49.328 130.432C47.856 130.368 46.512 130.224 45.296 130V64.432ZM96.944 126.208C95.952 127.68 94.512 128.816 92.624 129.616C90.768 130.416 88.816 130.816 86.768 130.816C83.984 130.816 81.968 130.096 80.72 128.656C79.472 127.216 78.384 125.024 77.456 122.08L73.856 110.848C72.896 107.808 71.728 105.648 70.352 104.368C68.976 103.088 67.152 102.448 64.88 102.448C63.44 102.448 61.68 102.528 59.6 102.688C57.552 102.848 55.312 103.04 52.88 103.264V93.856H71.984C75.6 93.856 78.448 94.368 80.528 95.392C82.608 96.416 84.208 97.792 85.328 99.52C86.448 101.248 87.344 103.184 88.016 105.328L91.952 117.184C92.592 119.04 93.136 120.512 93.584 121.6C94.064 122.656 94.56 123.52 95.072 124.192C95.584 124.864 96.208 125.536 96.944 126.208ZM76.544 69.184C77.472 67.392 78.464 66.064 79.52 65.2C80.576 64.336 82.224 63.904 84.464 63.904C85.712 63.904 87.184 63.952 88.88 64.048C90.576 64.112 92.176 64.208 93.68 64.336L94.496 65.392L82.88 87.424C81.056 90.88 78.72 93.6 75.872 95.584C73.056 97.536 69.28 98.512 64.544 98.512H52.88V89.872C54.576 89.84 56.288 89.808 58.016 89.776C59.744 89.744 61.44 89.712 63.104 89.68C64.32 89.68 65.184 89.456 65.696 89.008C66.208 88.56 66.8 87.696 67.472 86.416L76.544 69.184ZM100.411 116.896C100.411 113.024 101.307 109.872 103.099 107.44C104.891 104.976 107.227 103.152 110.107 101.968C113.019 100.784 116.123 100.192 119.419 100.192C120.859 100.192 122.667 100.224 124.843 100.288C127.051 100.352 129.035 100.56 130.795 100.912V110.416C129.419 110.096 127.755 109.92 125.803 109.888C123.883 109.824 122.283 109.792 121.003 109.792C118.859 109.792 117.323 110.368 116.395 111.52C115.467 112.64 115.003 114.096 115.003 115.888C115.003 117.168 115.387 118.24 116.155 119.104C116.955 119.936 118.043 120.352 119.419 120.352C121.339 120.352 123.291 119.664 125.275 118.288C127.259 116.912 128.939 115.024 130.315 112.624L132.427 122.128C131.179 123.6 129.755 125.056 128.155 126.496C126.555 127.904 124.683 129.072 122.539 130C120.395 130.928 117.883 131.392 115.003 131.392C111.707 131.392 108.971 130.672 106.795 129.232C104.651 127.76 103.051 125.92 101.995 123.712C100.939 121.472 100.411 119.2 100.411 116.896ZM143.947 123.04C143.691 124.384 143.099 125.824 142.171 127.36C141.243 128.896 140.315 130.032 139.387 130.768C136.571 130.704 134.235 130.064 132.379 128.848C130.555 127.632 129.147 126.144 128.155 124.384C127.195 122.592 126.571 120.848 126.283 119.152V98.608C126.283 96.624 125.771 95.12 124.747 94.096C123.755 93.04 122.171 92.512 119.995 92.512C117.947 92.512 115.707 92.848 113.275 93.52C110.843 94.16 108.363 94.848 105.835 95.584C104.779 94.368 103.947 92.8 103.339 90.88C102.763 88.928 102.395 87.024 102.235 85.168C104.411 84.272 106.811 83.52 109.435 82.912C112.059 82.272 114.667 81.792 117.259 81.472C119.851 81.12 122.171 80.944 124.219 80.944C127.035 80.944 129.739 81.472 132.331 82.528C134.923 83.552 137.051 85.264 138.715 87.664C140.411 90.032 141.259 93.248 141.259 97.312V116.848C141.259 118.224 141.483 119.44 141.931 120.496C142.379 121.552 143.051 122.4 143.947 123.04ZM153.728 76.672C153.728 73.312 154.336 70.976 155.552 69.664C156.8 68.32 158.896 67.648 161.84 67.648H167.696L168.368 68.32V114.544C168.368 115.984 168.688 117.104 169.328 117.904C170 118.672 171.104 119.056 172.64 119.056H178.016C178.368 120.112 178.64 121.28 178.832 122.56C179.056 123.808 179.168 125.008 179.168 126.16C179.168 126.704 179.152 127.28 179.12 127.888C179.088 128.496 178.992 129.056 178.832 129.568C177.072 129.792 175.04 130 172.736 130.192C170.432 130.384 168.32 130.48 166.4 130.48C162.048 130.48 158.848 129.408 156.8 127.264C154.752 125.088 153.728 121.712 153.728 117.136V76.672ZM179.744 82C180.192 83.696 180.416 85.44 180.416 87.232C180.416 88.128 180.368 89.04 180.272 89.968C180.176 90.864 180 91.76 179.744 92.656L161.84 92.368L146.192 92.656C145.776 90.96 145.568 89.152 145.568 87.232C145.568 85.504 145.776 83.76 146.192 82L162.272 82.24L179.744 82ZM184.786 116.896C184.786 113.024 185.682 109.872 187.474 107.44C189.266 104.976 191.602 103.152 194.482 101.968C197.394 100.784 200.498 100.192 203.794 100.192C205.234 100.192 207.042 100.224 209.218 100.288C211.426 100.352 213.41 100.56 215.17 100.912V110.416C213.794 110.096 212.13 109.92 210.178 109.888C208.258 109.824 206.658 109.792 205.378 109.792C203.234 109.792 201.698 110.368 200.77 111.52C199.842 112.64 199.378 114.096 199.378 115.888C199.378 117.168 199.762 118.24 200.53 119.104C201.33 119.936 202.418 120.352 203.794 120.352C205.714 120.352 207.666 119.664 209.65 118.288C211.634 116.912 213.314 115.024 214.69 112.624L216.802 122.128C215.554 123.6 214.13 125.056 212.53 126.496C210.93 127.904 209.058 129.072 206.914 130C204.77 130.928 202.258 131.392 199.378 131.392C196.082 131.392 193.346 130.672 191.17 129.232C189.026 127.76 187.426 125.92 186.37 123.712C185.314 121.472 184.786 119.2 184.786 116.896ZM228.322 123.04C228.066 124.384 227.474 125.824 226.546 127.36C225.618 128.896 224.69 130.032 223.762 130.768C220.946 130.704 218.61 130.064 216.754 128.848C214.93 127.632 213.522 126.144 212.53 124.384C211.57 122.592 210.946 120.848 210.658 119.152V98.608C210.658 96.624 210.146 95.12 209.122 94.096C208.13 93.04 206.546 92.512 204.37 92.512C202.322 92.512 200.082 92.848 197.65 93.52C195.218 94.16 192.738 94.848 190.21 95.584C189.154 94.368 188.322 92.8 187.714 90.88C187.138 88.928 186.77 87.024 186.61 85.168C188.786 84.272 191.186 83.52 193.81 82.912C196.434 82.272 199.042 81.792 201.634 81.472C204.226 81.12 206.546 80.944 208.594 80.944C211.41 80.944 214.114 81.472 216.706 82.528C219.298 83.552 221.426 85.264 223.09 87.664C224.786 90.032 225.634 93.248 225.634 97.312V116.848C225.634 118.224 225.858 119.44 226.306 120.496C226.754 121.552 227.426 122.4 228.322 123.04ZM258.197 119.056C258.549 120.112 258.837 121.264 259.061 122.512C259.285 123.728 259.397 124.944 259.397 126.16C259.397 126.704 259.365 127.28 259.301 127.888C259.269 128.496 259.173 129.056 259.013 129.568C257.573 129.792 255.957 130 254.165 130.192C252.373 130.384 250.549 130.48 248.693 130.48C244.341 130.48 241.253 129.408 239.429 127.264C237.637 125.088 236.741 121.712 236.741 117.136V60.016L237.413 59.344H243.269C246.213 59.344 248.309 60.016 249.557 61.36C250.805 62.704 251.429 65.04 251.429 68.368V114.496C251.429 115.968 251.749 117.104 252.389 117.904C253.029 118.672 254.085 119.056 255.557 119.056H258.197ZM307.513 106.048C307.513 111.168 306.665 115.632 304.969 119.44C303.273 123.248 300.777 126.192 297.481 128.272C294.217 130.352 290.169 131.392 285.337 131.392C280.473 131.392 276.393 130.352 273.097 128.272C269.801 126.16 267.321 123.2 265.657 119.392C263.993 115.584 263.161 111.136 263.161 106.048C263.161 100.896 263.993 96.432 265.657 92.656C267.353 88.848 269.849 85.904 273.145 83.824C276.441 81.712 280.505 80.656 285.337 80.656C290.201 80.656 294.281 81.712 297.577 83.824C300.873 85.936 303.353 88.896 305.017 92.704C306.681 96.48 307.513 100.928 307.513 106.048ZM278.569 106.048C278.569 108.672 278.713 111.056 279.001 113.2C279.321 115.344 279.961 117.056 280.921 118.336C281.913 119.584 283.385 120.208 285.337 120.208C287.321 120.208 288.793 119.584 289.753 118.336C290.713 117.056 291.337 115.344 291.625 113.2C291.945 111.056 292.105 108.672 292.105 106.048C292.105 103.392 291.945 100.992 291.625 98.848C291.337 96.704 290.713 95.008 289.753 93.76C288.793 92.48 287.321 91.84 285.337 91.84C283.385 91.84 281.913 92.48 280.921 93.76C279.961 95.008 279.321 96.704 279.001 98.848C278.713 100.992 278.569 103.392 278.569 106.048ZM359.014 89.008C358.214 89.584 357.558 90.512 357.046 91.792C356.566 93.04 356.326 94.432 356.326 95.968V121.264C356.326 125.744 356.118 129.44 355.702 132.352C355.318 135.296 354.758 137.68 354.022 139.504C353.286 141.36 352.406 142.928 351.382 144.208C349.494 146.64 346.982 148.416 343.846 149.536C340.71 150.656 337.222 151.216 333.382 151.216C330.374 151.216 327.238 150.912 323.974 150.304C320.71 149.728 317.83 148.976 315.334 148.048C315.334 146.288 315.686 144.336 316.39 142.192C317.094 140.08 317.974 138.416 319.03 137.2C321.11 138.096 323.254 138.8 325.462 139.312C327.702 139.824 329.878 140.08 331.99 140.08C334.326 140.08 336.198 139.68 337.606 138.88C339.046 138.08 340.086 136.944 340.726 135.472C341.366 134 341.686 132.288 341.686 130.336V95.728C341.686 91.728 342.758 88.352 344.902 85.6C347.046 82.816 350.23 81.392 354.454 81.328C355.382 82.032 356.326 83.168 357.286 84.736C358.246 86.272 358.822 87.696 359.014 89.008ZM313.51 106.144C313.51 100.64 314.39 96 316.15 92.224C317.91 88.416 320.246 85.536 323.158 83.584C326.07 81.632 329.27 80.656 332.758 80.656C335.894 80.656 338.55 81.168 340.726 82.192C342.934 83.216 344.758 84.464 346.198 85.936C347.638 87.408 348.758 88.848 349.558 90.256L347.158 102.496C345.302 99.008 343.302 96.368 341.158 94.576C339.046 92.752 337.126 91.84 335.398 91.84C333.862 91.84 332.614 92.416 331.654 93.568C330.694 94.72 329.99 96.384 329.542 98.56C329.094 100.704 328.87 103.264 328.87 106.24C328.87 110.688 329.398 113.92 330.454 115.936C331.542 117.92 332.902 118.912 334.534 118.912C336.454 118.912 338.326 118.256 340.15 116.944C342.006 115.632 343.558 113.68 344.806 111.088L346.918 121.504C345.862 123.296 344.502 124.912 342.838 126.352C341.174 127.792 339.302 128.928 337.222 129.76C335.174 130.56 333.03 130.96 330.79 130.96C326.886 130.96 323.654 129.904 321.094 127.792C318.534 125.68 316.63 122.768 315.382 119.056C314.134 115.312 313.51 111.008 313.51 106.144Z" fill="white"/>
<path d="M45.296 64.432L43.8467 56.5644L37.296 57.7711V64.432H45.296ZM49.328 64L48.9879 56.0072L48.9805 56.0075L49.328 64ZM56.624 64L56.2607 71.9917L56.2688 71.9921L56.624 64ZM60.704 64.432H68.704V57.7104L62.083 56.5518L60.704 64.432ZM60.704 130L62.083 137.88L68.704 136.722V130H60.704ZM56.624 130.432L56.2688 122.44L56.2607 122.44L56.624 130.432ZM49.328 130.432L48.9805 138.424L48.9879 138.425L49.328 130.432ZM45.296 130H37.296V136.661L43.8467 137.868L45.296 130ZM96.944 126.208L103.578 130.679L107.436 124.955L102.338 120.3L96.944 126.208ZM92.624 129.616L89.5028 122.25L89.4801 122.26L89.4574 122.269L92.624 129.616ZM80.72 128.656L86.7655 123.417L86.7655 123.417L80.72 128.656ZM77.456 122.08L85.0859 119.675L85.0801 119.657L85.0743 119.638L77.456 122.08ZM73.856 110.848L66.2273 113.257L66.2325 113.273L66.2377 113.29L73.856 110.848ZM70.352 104.368L75.8008 98.5105L75.8008 98.5105L70.352 104.368ZM59.6 102.688L58.9864 94.7116L58.9769 94.7123L59.6 102.688ZM52.88 103.264H44.88V112.035L53.6137 111.23L52.88 103.264ZM52.88 93.856V85.856H44.88V93.856H52.88ZM85.328 99.52L92.0412 95.1688L92.0412 95.1688L85.328 99.52ZM88.016 105.328L80.3822 107.721L80.4023 107.785L80.4235 107.849L88.016 105.328ZM91.952 117.184L84.3595 119.705L84.374 119.748L84.389 119.792L91.952 117.184ZM93.584 121.6L86.1866 124.646L86.2414 124.779L86.3011 124.91L93.584 121.6ZM95.072 124.192L88.7085 129.04L88.7086 129.04L95.072 124.192ZM76.544 69.184L83.6229 72.9108L83.6355 72.8868L83.648 72.8628L76.544 69.184ZM79.52 65.2L84.5859 71.3917L84.5859 71.3917L79.52 65.2ZM88.88 64.048L88.4279 72.0352L88.5031 72.0395L88.5783 72.0423L88.88 64.048ZM93.68 64.336L100.01 59.4444L97.8609 56.6629L94.3584 56.3648L93.68 64.336ZM94.496 65.392L101.573 69.123L103.972 64.5717L100.826 60.5004L94.496 65.392ZM82.88 87.424L89.9551 91.1581L89.9567 91.1551L82.88 87.424ZM75.872 95.584L80.4296 102.159L80.4372 102.154L80.4448 102.148L75.872 95.584ZM52.88 98.512H44.88V106.512H52.88V98.512ZM52.88 89.872L52.7291 81.8734L44.88 82.0215V89.872H52.88ZM58.016 89.776L57.8679 81.7774L57.8679 81.7774L58.016 89.776ZM63.104 89.68V81.68H63.0271L62.9502 81.6815L63.104 89.68ZM65.696 89.008L60.428 82.9874L60.428 82.9874L65.696 89.008ZM67.472 86.416L60.3931 82.6892L60.3888 82.6973L67.472 86.416ZM46.7453 72.2996C47.5363 72.1539 48.5055 72.0433 49.6755 71.9924L48.9805 56.0075C47.2065 56.0847 45.4877 56.2621 43.8467 56.5644L46.7453 72.2996ZM49.6681 71.9928C51.119 71.931 52.2089 71.904 52.976 71.904V55.904C51.8871 55.904 50.545 55.941 48.9879 56.0072L49.6681 71.9928ZM52.976 71.904C53.8435 71.904 54.9324 71.9314 56.2607 71.9917L56.9873 56.0082C55.4996 55.9406 54.1565 55.904 52.976 55.904V71.904ZM56.2688 71.9921C57.4021 72.0425 58.4177 72.1535 59.325 72.3122L62.083 56.5518C60.4303 56.2625 58.7259 56.0855 56.9792 56.0079L56.2688 71.9921ZM52.704 64.432V130H68.704V64.432H52.704ZM59.325 122.12C58.4177 122.279 57.4021 122.39 56.2688 122.44L56.9792 138.424C58.7259 138.346 60.4303 138.169 62.083 137.88L59.325 122.12ZM56.2607 122.44C54.9324 122.501 53.8435 122.528 52.976 122.528V138.528C54.1565 138.528 55.4996 138.491 56.9873 138.424L56.2607 122.44ZM52.976 122.528C52.2089 122.528 51.119 122.501 49.6681 122.439L48.9879 138.425C50.545 138.491 51.8871 138.528 52.976 138.528V122.528ZM49.6755 122.44C48.5055 122.389 47.5363 122.278 46.7453 122.132L43.8467 137.868C45.4877 138.17 47.2065 138.347 48.9805 138.424L49.6755 122.44ZM53.296 130V64.432H37.296V130H53.296ZM90.3099 121.737C90.2919 121.764 90.2569 121.811 90.1651 121.883C90.0667 121.961 89.8661 122.096 89.5028 122.25L95.7452 136.982C98.8331 135.674 101.592 133.626 103.578 130.679L90.3099 121.737ZM89.4574 122.269C88.615 122.632 87.7419 122.816 86.768 122.816V138.816C89.8901 138.816 92.921 138.2 95.7906 136.963L89.4574 122.269ZM86.768 122.816C86.4127 122.816 86.1657 122.793 86.0107 122.77C85.8564 122.746 85.8151 122.727 85.8587 122.742C85.9058 122.759 86.0374 122.812 86.2149 122.93C86.3965 123.05 86.5888 123.213 86.7655 123.417L74.6745 133.895C78.0353 137.773 82.7567 138.816 86.768 138.816V122.816ZM86.7655 123.417C86.542 123.159 85.8645 122.145 85.0859 119.675L69.8261 124.485C70.9035 127.903 72.402 131.273 74.6745 133.895L86.7655 123.417ZM85.0743 119.638L81.4743 108.406L66.2377 113.29L69.8377 124.522L85.0743 119.638ZM81.4847 108.439C80.3631 104.887 78.6672 101.177 75.8008 98.5105L64.9032 110.225C64.7922 110.122 64.9333 110.218 65.2229 110.753C65.5071 111.279 65.8574 112.086 66.2273 113.257L81.4847 108.439ZM75.8008 98.5105C72.6473 95.577 68.7276 94.448 64.88 94.448V110.448C65.2685 110.448 65.377 110.503 65.3033 110.477C65.2665 110.464 65.2009 110.436 65.12 110.388C65.0386 110.339 64.9644 110.282 64.9032 110.225L75.8008 98.5105ZM64.88 94.448C63.167 94.448 61.1888 94.5421 58.9864 94.7116L60.2136 110.664C62.1712 110.514 63.713 110.448 64.88 110.448V94.448ZM58.9769 94.7123C56.8859 94.8757 54.6085 95.0709 52.1463 95.2977L53.6137 111.23C56.0155 111.009 58.2181 110.82 60.2231 110.664L58.9769 94.7123ZM60.88 103.264V93.856H44.88V103.264H60.88ZM52.88 101.856H71.984V85.856H52.88V101.856ZM71.984 101.856C74.9924 101.856 76.4588 102.306 76.9945 102.569L84.0615 88.2146C80.4372 86.4304 76.2076 85.856 71.984 85.856V101.856ZM76.9945 102.569C77.9459 103.038 78.3756 103.502 78.6148 103.871L92.0412 95.1688C90.0405 92.0819 87.2702 89.7943 84.0615 88.2146L76.9945 102.569ZM78.6148 103.871C79.3066 104.938 79.9074 106.206 80.3822 107.721L95.6498 102.935C94.7806 100.162 93.5894 97.5575 92.0412 95.1688L78.6148 103.871ZM80.4235 107.849L84.3595 119.705L99.5445 114.663L95.6085 102.807L80.4235 107.849ZM84.389 119.792C85.0512 121.712 85.6531 123.35 86.1866 124.646L100.981 118.554C100.619 117.674 100.133 116.368 99.515 114.576L84.389 119.792ZM86.3011 124.91C86.9441 126.325 87.7273 127.752 88.7085 129.04L101.435 119.344C101.393 119.288 101.184 118.987 100.867 118.29L86.3011 124.91ZM88.7086 129.04C89.5575 130.155 90.5208 131.176 91.5498 132.116L102.338 120.3C101.895 119.896 101.611 119.573 101.435 119.344L88.7086 129.04ZM83.648 72.8628C83.9526 72.2746 84.2077 71.88 84.3933 71.6316C84.5802 71.3813 84.655 71.3351 84.5859 71.3917L74.4541 59.0083C72.2511 60.8108 70.6502 63.1683 69.44 65.5052L83.648 72.8628ZM84.5859 71.3917C84.0319 71.8449 83.5958 71.9615 83.5766 71.9665C83.5623 71.9703 83.6235 71.9533 83.7785 71.9361C83.9326 71.9189 84.1578 71.904 84.464 71.904V55.904C81.4743 55.904 77.6049 56.4304 74.4541 59.0083L84.5859 71.3917ZM84.464 71.904C85.5186 71.904 86.8328 71.9449 88.4279 72.0352L89.3321 56.0608C87.5352 55.9591 85.9054 55.904 84.464 55.904V71.904ZM88.5783 72.0423C90.1638 72.1021 91.6372 72.1911 93.0016 72.3072L94.3584 56.3648C92.7148 56.2249 90.9883 56.1219 89.1817 56.0537L88.5783 72.0423ZM87.3497 69.2276L88.1657 70.2836L100.826 60.5004L100.01 59.4444L87.3497 69.2276ZM87.4193 61.6609L75.8033 83.6929L89.9567 91.1551L101.573 69.123L87.4193 61.6609ZM75.8049 83.6899C74.5012 86.1601 72.9734 87.8535 71.2992 89.0198L80.4448 102.148C84.4666 99.3465 87.6108 95.5999 89.9551 91.1581L75.8049 83.6899ZM71.3144 89.0092C70.2605 89.7397 68.2561 90.512 64.544 90.512V106.512C70.3039 106.512 75.8515 105.332 80.4296 102.159L71.3144 89.0092ZM64.544 90.512H52.88V106.512H64.544V90.512ZM60.88 98.512V89.872H44.88V98.512H60.88ZM53.0309 97.8706C54.726 97.8386 56.437 97.8066 58.1641 97.7746L57.8679 81.7774C56.139 81.8094 54.426 81.8414 52.7291 81.8734L53.0309 97.8706ZM58.1641 97.7746C59.8939 97.7426 61.5918 97.7106 63.2578 97.6785L62.9502 81.6815C61.2882 81.7134 59.5941 81.7454 57.8679 81.7774L58.1641 97.7746ZM63.104 97.68C64.8857 97.68 68.2161 97.4331 70.964 95.0286L60.428 82.9874C61.3555 82.1758 62.244 81.8749 62.6563 81.768C63.068 81.6613 63.2611 81.68 63.104 81.68V97.68ZM70.964 95.0286C72.6661 93.5393 73.8234 91.5285 74.5552 90.1347L60.3888 82.6973C60.2724 82.9191 60.1732 83.0966 60.0915 83.2351C60.0091 83.3749 59.9531 83.4604 59.9245 83.5021C59.8942 83.5464 59.9099 83.5191 59.9738 83.4432C60.0073 83.4034 60.0596 83.3435 60.1315 83.269C60.203 83.1948 60.3016 83.098 60.428 82.9874L70.964 95.0286ZM74.5509 90.1428L83.6229 72.9108L69.4651 65.4572L60.3931 82.6892L74.5509 90.1428ZM103.099 107.44L109.54 112.186L109.554 112.166L109.569 112.145L103.099 107.44ZM110.107 101.968L107.094 94.5572L107.08 94.563L107.065 94.5689L110.107 101.968ZM124.843 100.288L124.608 108.285L124.611 108.285L124.843 100.288ZM130.795 100.912H138.795V94.3536L132.364 93.0674L130.795 100.912ZM130.795 110.416L128.983 118.208L138.795 120.49V110.416H130.795ZM125.803 109.888L125.537 117.884L125.604 117.886L125.672 117.887L125.803 109.888ZM116.395 111.52L122.555 116.624L122.591 116.582L122.625 116.539L116.395 111.52ZM116.155 119.104L110.176 124.419L110.28 124.536L110.389 124.649L116.155 119.104ZM125.275 118.288L120.716 111.714L120.716 111.714L125.275 118.288ZM130.315 112.624L138.125 110.889L133.645 90.7315L123.375 108.645L130.315 112.624ZM132.427 122.128L138.529 127.301L141.099 124.271L140.237 120.393L132.427 122.128ZM128.155 126.496L133.44 132.502L133.474 132.472L133.507 132.442L128.155 126.496ZM122.539 130L125.717 137.342L125.717 137.342L122.539 130ZM106.795 129.232L102.267 135.827L102.323 135.866L102.38 135.903L106.795 129.232ZM101.995 123.712L94.759 127.123L94.7686 127.144L94.7782 127.164L101.995 123.712ZM143.947 123.04L151.806 124.537L152.764 119.507L148.597 116.53L143.947 123.04ZM142.171 127.36L149.019 131.497L149.019 131.497L142.171 127.36ZM139.387 130.768L139.205 138.766L142.094 138.832L144.358 137.036L139.387 130.768ZM132.379 128.848L127.942 135.504L127.968 135.522L127.995 135.54L132.379 128.848ZM128.155 124.384L121.103 128.162L121.144 128.237L121.186 128.312L128.155 124.384ZM126.283 119.152H118.283V119.826L118.396 120.491L126.283 119.152ZM124.747 94.096L118.916 99.5734L119.002 99.6645L119.09 99.7529L124.747 94.096ZM113.275 93.52L115.311 101.257L115.359 101.244L115.406 101.231L113.275 93.52ZM105.835 95.584L99.795 100.829L103.154 104.697L108.072 103.265L105.835 95.584ZM103.339 90.88L95.6663 93.1441L95.6887 93.2199L95.7125 93.2951L103.339 90.88ZM102.235 85.168L99.1892 77.7706L93.7606 80.0059L94.2648 85.8551L102.235 85.168ZM109.435 82.912L111.241 90.7055L111.286 90.6951L111.331 90.6842L109.435 82.912ZM117.259 81.472L118.239 89.4117L118.288 89.4058L118.336 89.3992L117.259 81.472ZM132.331 82.528L129.313 89.9367L129.352 89.9528L129.392 89.9684L132.331 82.528ZM138.715 87.664L132.141 92.2222L132.176 92.2725L132.211 92.3222L138.715 87.664ZM141.931 120.496L149.296 117.372L149.296 117.372L141.931 120.496ZM108.411 116.896C108.411 114.248 109.014 112.899 109.54 112.186L96.6588 102.694C93.6004 106.845 92.4113 111.8 92.4113 116.896H108.411ZM109.569 112.145C110.47 110.907 111.607 110.001 113.149 109.367L107.065 94.5689C102.847 96.303 99.3126 99.0451 96.6294 102.735L109.569 112.145ZM113.12 109.379C115.029 108.603 117.105 108.192 119.419 108.192V92.192C115.141 92.192 111.009 92.9653 107.094 94.5572L113.12 109.379ZM119.419 108.192C120.752 108.192 122.475 108.222 124.608 108.285L125.078 92.2915C122.859 92.2262 120.966 92.192 119.419 92.192V108.192ZM124.611 108.285C126.469 108.338 127.994 108.51 129.226 108.757L132.364 93.0674C130.077 92.6098 127.634 92.3655 125.075 92.2914L124.611 108.285ZM122.795 100.912V110.416H138.795V100.912H122.795ZM132.607 102.624C130.516 102.138 128.255 101.927 125.934 101.889L125.672 117.887C127.256 117.913 128.323 118.054 128.983 118.208L132.607 102.624ZM126.07 101.892C124.1 101.827 122.404 101.792 121.003 101.792V117.792C122.162 117.792 123.666 117.821 125.537 117.884L126.07 101.892ZM121.003 101.792C117.567 101.792 113.201 102.733 110.165 106.501L122.625 116.539C122.095 117.197 121.475 117.556 121.052 117.715C120.693 117.849 120.612 117.792 121.003 117.792V101.792ZM110.235 106.416C107.861 109.281 107.003 112.679 107.003 115.888H123.003C123.003 115.678 123.031 115.702 122.974 115.881C122.91 116.08 122.779 116.355 122.555 116.624L110.235 106.416ZM107.003 115.888C107.003 118.901 107.963 121.93 110.176 124.419L122.135 113.789C122.42 114.11 122.664 114.512 122.823 114.954C122.977 115.384 123.003 115.722 123.003 115.888H107.003ZM110.389 124.649C112.983 127.347 116.318 128.352 119.419 128.352V112.352C119.534 112.352 119.911 112.37 120.428 112.568C120.974 112.776 121.498 113.118 121.922 113.559L110.389 124.649ZM119.419 128.352C123.345 128.352 126.858 126.926 129.834 124.862L120.716 111.714C120.216 112.061 119.865 112.22 119.664 112.291C119.565 112.326 119.5 112.34 119.466 112.346C119.448 112.349 119.436 112.351 119.43 112.351C119.423 112.352 119.42 112.352 119.419 112.352V128.352ZM129.834 124.862C132.928 122.716 135.375 119.884 137.255 116.603L123.375 108.645C122.504 110.164 121.59 111.108 120.716 111.714L129.834 124.862ZM122.506 114.359L124.618 123.863L140.237 120.393L138.125 110.889L122.506 114.359ZM126.325 116.955C125.334 118.123 124.166 119.323 122.804 120.55L133.507 132.442C135.344 130.789 137.024 129.077 138.529 127.301L126.325 116.955ZM122.87 120.49C121.956 121.295 120.811 122.031 119.361 122.658L125.717 137.342C128.556 136.113 131.155 134.513 133.44 132.502L122.87 120.49ZM119.361 122.658C118.425 123.063 117.038 123.392 115.003 123.392V139.392C118.729 139.392 122.365 138.793 125.717 137.342L119.361 122.658ZM115.003 123.392C112.865 123.392 111.771 122.932 111.21 122.561L102.38 135.903C106.172 138.412 110.549 139.392 115.003 139.392V123.392ZM111.323 122.637C110.261 121.907 109.625 121.123 109.212 120.26L94.7782 127.164C96.4775 130.717 99.0418 133.613 102.267 135.827L111.323 122.637ZM109.231 120.301C108.64 119.046 108.411 117.934 108.411 116.896H92.4113C92.4113 120.466 93.2384 123.898 94.759 127.123L109.231 120.301ZM136.089 121.543C136.056 121.714 135.905 122.261 135.324 123.223L149.019 131.497C150.293 129.387 151.326 127.054 151.806 124.537L136.089 121.543ZM135.324 123.223C135.014 123.736 134.763 124.083 134.584 124.303C134.401 124.527 134.338 124.562 134.416 124.5L144.358 137.036C146.315 135.484 147.825 133.472 149.019 131.497L135.324 123.223ZM139.569 122.77C137.85 122.731 137.072 122.358 136.763 122.156L127.995 135.54C131.399 137.77 135.293 138.677 139.205 138.766L139.569 122.77ZM136.817 122.192C135.949 121.613 135.447 121.029 135.124 120.456L121.186 128.312C122.847 131.259 125.162 133.651 127.942 135.504L136.817 122.192ZM135.207 120.606C134.583 119.442 134.29 118.517 134.17 117.813L118.396 120.491C118.853 123.179 119.807 125.742 121.103 128.162L135.207 120.606ZM134.283 119.152V98.608H118.283V119.152H134.283ZM134.283 98.608C134.283 95.3054 133.414 91.4492 130.404 88.4391L119.09 99.7529C118.655 99.3173 118.426 98.8632 118.326 98.5701C118.239 98.3149 118.283 98.284 118.283 98.608H134.283ZM130.578 88.6186C127.455 85.2939 123.274 84.512 119.995 84.512V100.512C120.469 100.512 120.514 100.574 120.285 100.497C120.012 100.406 119.459 100.151 118.916 99.5734L130.578 88.6186ZM119.995 84.512C117.083 84.512 114.117 84.9877 111.145 85.809L115.406 101.231C117.298 100.708 118.811 100.512 119.995 100.512V84.512ZM111.239 85.7834C108.737 86.4418 106.19 87.1484 103.599 87.9029L108.072 103.265C110.536 102.548 112.949 101.878 115.311 101.257L111.239 85.7834ZM111.876 90.3385C111.692 90.1267 111.324 89.5956 110.966 88.4649L95.7125 93.2951C96.5704 96.0044 97.8669 98.6093 99.795 100.829L111.876 90.3385ZM111.012 88.6159C110.574 87.1314 110.316 85.756 110.206 84.4809L94.2648 85.8551C94.4749 88.292 94.9524 90.7246 95.6663 93.1441L111.012 88.6159ZM105.281 92.5654C107.003 91.8566 108.981 91.2291 111.241 90.7055L107.629 75.1185C104.641 75.8108 101.82 76.6874 99.1892 77.7706L105.281 92.5654ZM111.331 90.6842C113.664 90.1152 115.966 89.6924 118.239 89.4117L116.279 73.5323C113.369 73.8916 110.455 74.4288 107.54 75.1398L111.331 90.6842ZM118.336 89.3992C120.663 89.0831 122.614 88.944 124.219 88.944V72.944C121.729 72.944 119.039 73.1569 116.183 73.5448L118.336 89.3992ZM124.219 88.944C126.007 88.944 127.685 89.2736 129.313 89.9367L135.35 75.1193C131.793 73.6703 128.064 72.944 124.219 72.944V88.944ZM129.392 89.9684C130.442 90.3831 131.332 91.0552 132.141 92.2222L145.29 83.1058C142.771 79.4728 139.405 76.7209 135.271 75.0876L129.392 89.9684ZM132.211 92.3222C132.618 92.8895 133.259 94.277 133.259 97.312H149.259C149.259 92.2189 148.205 87.1745 145.219 83.0058L132.211 92.3222ZM133.259 97.312V116.848H149.259V97.312H133.259ZM133.259 116.848C133.259 119.088 133.624 121.4 134.567 123.62L149.296 117.372C149.342 117.48 149.259 117.36 149.259 116.848H133.259ZM134.567 123.62C135.565 125.974 137.15 128.016 139.297 129.55L148.597 116.53C148.748 116.638 148.904 116.782 149.041 116.955C149.177 117.127 149.256 117.278 149.296 117.372L134.567 123.62ZM155.552 69.664L149.69 64.2204L149.685 64.2259L155.552 69.664ZM167.696 67.648L173.353 61.9911L171.01 59.648H167.696V67.648ZM168.368 68.32H176.368V65.0063L174.025 62.6631L168.368 68.32ZM169.328 117.904L163.081 122.902L163.191 123.039L163.307 123.172L169.328 117.904ZM178.016 119.056L185.605 116.526L183.782 111.056H178.016V119.056ZM178.832 122.56L170.921 123.747L170.938 123.86L170.958 123.973L178.832 122.56ZM179.12 127.888L187.109 128.308L187.109 128.308L179.12 127.888ZM178.832 129.568L179.842 137.504L184.936 136.856L186.468 131.954L178.832 129.568ZM172.736 130.192L173.4 138.164L173.4 138.164L172.736 130.192ZM156.8 127.264L150.974 132.747L150.995 132.768L151.015 132.79L156.8 127.264ZM179.744 82L187.479 79.9569L185.883 73.9149L179.634 74.0008L179.744 82ZM180.272 89.968L188.226 90.8203L188.228 90.8057L188.23 90.7912L180.272 89.968ZM179.744 92.656L179.615 100.655L185.751 100.754L187.436 94.8538L179.744 92.656ZM161.84 92.368L161.969 84.369L161.831 84.3668L161.693 84.3694L161.84 92.368ZM146.192 92.656L138.422 94.5618L139.946 100.772L146.339 100.655L146.192 92.656ZM146.192 82L146.311 74.0009L139.885 73.905L138.407 80.1598L146.192 82ZM162.272 82.24L162.153 90.2391L162.267 90.2408L162.382 90.2392L162.272 82.24ZM161.728 76.672C161.728 75.4279 161.845 74.7247 161.926 74.4151C162.009 74.0979 161.968 74.5102 161.419 75.1021L149.685 64.2259C146.313 67.8636 145.728 72.8636 145.728 76.672H161.728ZM161.414 75.1076C161.186 75.3536 160.958 75.5241 160.777 75.6333C160.602 75.739 160.495 75.7723 160.502 75.77C160.512 75.767 160.618 75.7345 160.848 75.7038C161.078 75.6732 161.404 75.648 161.84 75.648V59.648C157.98 59.648 153.157 60.4864 149.69 64.2204L161.414 75.1076ZM161.84 75.648H167.696V59.648H161.84V75.648ZM162.039 73.3049L162.711 73.9769L174.025 62.6631L173.353 61.9911L162.039 73.3049ZM160.368 68.32V114.544H176.368V68.32H160.368ZM160.368 114.544C160.368 117.077 160.924 120.206 163.081 122.902L175.575 112.906C176.452 114.002 176.368 114.891 176.368 114.544H160.368ZM163.307 123.172C166.131 126.399 169.972 127.056 172.64 127.056V111.056C172.236 111.056 173.869 110.945 175.349 112.636L163.307 123.172ZM172.64 127.056H178.016V111.056H172.64V127.056ZM170.427 121.586C170.611 122.14 170.786 122.851 170.921 123.747L186.743 121.373C186.494 119.709 186.125 118.084 185.605 116.526L170.427 121.586ZM170.958 123.973C171.106 124.801 171.168 125.526 171.168 126.16H187.168C187.168 124.49 187.006 122.815 186.706 121.147L170.958 123.973ZM171.168 126.16C171.168 126.548 171.157 126.983 171.131 127.468L187.109 128.308C187.147 127.577 187.168 126.86 187.168 126.16H171.168ZM171.131 127.468C171.13 127.496 171.132 127.387 171.196 127.182L186.468 131.954C186.852 130.725 187.046 129.496 187.109 128.308L171.131 127.468ZM177.822 121.632C176.205 121.838 174.293 122.035 172.072 122.22L173.4 138.164C175.787 137.965 177.939 137.746 179.842 137.504L177.822 121.632ZM172.072 122.22C169.946 122.397 168.059 122.48 166.4 122.48V138.48C168.581 138.48 170.918 138.371 173.4 138.164L172.072 122.22ZM166.4 122.48C164.851 122.48 163.86 122.286 163.277 122.09C162.738 121.91 162.594 121.747 162.585 121.738L151.015 132.79C155.159 137.128 160.889 138.48 166.4 138.48V122.48ZM162.626 121.781C162.558 121.71 161.728 120.726 161.728 117.136H145.728C145.728 122.698 146.946 128.466 150.974 132.747L162.626 121.781ZM161.728 117.136V76.672H145.728V117.136H161.728ZM172.009 84.0431C172.277 85.058 172.416 86.1147 172.416 87.232H188.416C188.416 84.7653 188.107 82.334 187.479 79.9569L172.009 84.0431ZM172.416 87.232C172.416 87.842 172.383 88.4791 172.314 89.1448L188.23 90.7912C188.353 89.6009 188.416 88.414 188.416 87.232H172.416ZM172.318 89.1157C172.272 89.5413 172.186 89.9874 172.052 90.4582L187.436 94.8538C187.814 93.5326 188.08 92.1867 188.226 90.8203L172.318 89.1157ZM179.873 84.657L161.969 84.369L161.711 100.367L179.615 100.655L179.873 84.657ZM161.693 84.3694L146.045 84.6574L146.339 100.655L161.987 100.367L161.693 84.3694ZM153.962 90.7502C153.713 89.7363 153.568 88.5728 153.568 87.232H137.568C137.568 89.7312 137.839 92.1837 138.422 94.5618L153.962 90.7502ZM153.568 87.232C153.568 86.1518 153.697 85.0252 153.977 83.8402L138.407 80.1598C137.855 82.4948 137.568 84.8562 137.568 87.232H153.568ZM146.073 89.9991L162.153 90.2391L162.391 74.2409L146.311 74.0009L146.073 89.9991ZM162.382 90.2392L179.854 89.9992L179.634 74.0008L162.162 74.2408L162.382 90.2392ZM187.474 107.44L193.915 112.186L193.929 112.166L193.944 112.145L187.474 107.44ZM194.482 101.968L191.469 94.5572L191.455 94.563L191.44 94.5689L194.482 101.968ZM209.218 100.288L208.983 108.285L208.986 108.285L209.218 100.288ZM215.17 100.912H223.17V94.3536L216.739 93.0674L215.17 100.912ZM215.17 110.416L213.358 118.208L223.17 120.49V110.416H215.17ZM210.178 109.888L209.912 117.884L209.979 117.886L210.047 117.887L210.178 109.888ZM200.77 111.52L206.93 116.624L206.966 116.582L207 116.539L200.77 111.52ZM200.53 119.104L194.551 124.419L194.655 124.536L194.764 124.649L200.53 119.104ZM209.65 118.288L205.091 111.714L205.091 111.714L209.65 118.288ZM214.69 112.624L222.5 110.889L218.02 90.7315L207.75 108.645L214.69 112.624ZM216.802 122.128L222.904 127.301L225.474 124.271L224.612 120.393L216.802 122.128ZM212.53 126.496L217.815 132.502L217.849 132.472L217.882 132.442L212.53 126.496ZM206.914 130L210.092 137.342L210.092 137.342L206.914 130ZM191.17 129.232L186.642 135.827L186.698 135.866L186.755 135.903L191.17 129.232ZM186.37 123.712L179.134 127.123L179.144 127.144L179.153 127.164L186.37 123.712ZM228.322 123.04L236.181 124.537L237.139 119.507L232.972 116.53L228.322 123.04ZM226.546 127.36L233.394 131.497L233.394 131.497L226.546 127.36ZM223.762 130.768L223.58 138.766L226.469 138.832L228.733 137.036L223.762 130.768ZM216.754 128.848L212.317 135.504L212.343 135.522L212.37 135.54L216.754 128.848ZM212.53 124.384L205.478 128.162L205.519 128.237L205.561 128.312L212.53 124.384ZM210.658 119.152H202.658V119.826L202.771 120.491L210.658 119.152ZM209.122 94.096L203.291 99.5734L203.377 99.6645L203.465 99.7529L209.122 94.096ZM197.65 93.52L199.686 101.257L199.734 101.244L199.781 101.231L197.65 93.52ZM190.21 95.584L184.17 100.829L187.529 104.697L192.447 103.265L190.21 95.584ZM187.714 90.88L180.041 93.1441L180.064 93.2199L180.088 93.2951L187.714 90.88ZM186.61 85.168L183.564 77.7706L178.136 80.0059L178.64 85.8551L186.61 85.168ZM193.81 82.912L195.616 90.7055L195.661 90.6951L195.706 90.6842L193.81 82.912ZM201.634 81.472L202.614 89.4117L202.663 89.4058L202.711 89.3992L201.634 81.472ZM216.706 82.528L213.688 89.9367L213.727 89.9528L213.767 89.9684L216.706 82.528ZM223.09 87.664L216.516 92.2222L216.551 92.2725L216.586 92.3222L223.09 87.664ZM226.306 120.496L233.671 117.372L233.671 117.372L226.306 120.496ZM192.786 116.896C192.786 114.248 193.389 112.899 193.915 112.186L181.034 102.694C177.975 106.845 176.786 111.8 176.786 116.896H192.786ZM193.944 112.145C194.845 110.907 195.982 110.001 197.524 109.367L191.44 94.5689C187.222 96.303 183.688 99.0451 181.004 102.735L193.944 112.145ZM197.495 109.379C199.404 108.603 201.48 108.192 203.794 108.192V92.192C199.516 92.192 195.384 92.9653 191.469 94.5572L197.495 109.379ZM203.794 108.192C205.127 108.192 206.85 108.222 208.983 108.285L209.453 92.2915C207.234 92.2262 205.341 92.192 203.794 92.192V108.192ZM208.986 108.285C210.844 108.338 212.369 108.51 213.601 108.757L216.739 93.0674C214.452 92.6098 212.009 92.3655 209.45 92.2914L208.986 108.285ZM207.17 100.912V110.416H223.17V100.912H207.17ZM216.982 102.624C214.891 102.138 212.63 101.927 210.309 101.889L210.047 117.887C211.631 117.913 212.698 118.054 213.358 118.208L216.982 102.624ZM210.445 101.892C208.475 101.827 206.779 101.792 205.378 101.792V117.792C206.537 117.792 208.041 117.821 209.912 117.884L210.445 101.892ZM205.378 101.792C201.942 101.792 197.576 102.733 194.54 106.501L207 116.539C206.47 117.197 205.85 117.556 205.427 117.715C205.068 117.849 204.987 117.792 205.378 117.792V101.792ZM194.61 106.416C192.236 109.281 191.378 112.679 191.378 115.888H207.378C207.378 115.678 207.406 115.702 207.349 115.881C207.285 116.08 207.154 116.355 206.93 116.624L194.61 106.416ZM191.378 115.888C191.378 118.901 192.338 121.93 194.551 124.419L206.51 113.789C206.795 114.11 207.039 114.512 207.198 114.954C207.352 115.384 207.378 115.722 207.378 115.888H191.378ZM194.764 124.649C197.358 127.347 200.693 128.352 203.794 128.352V112.352C203.909 112.352 204.286 112.37 204.803 112.568C205.349 112.776 205.873 113.118 206.297 113.559L194.764 124.649ZM203.794 128.352C207.72 128.352 211.233 126.926 214.209 124.862L205.091 111.714C204.591 112.061 204.24 112.22 204.039 112.291C203.94 112.326 203.875 112.34 203.841 112.346C203.823 112.349 203.811 112.351 203.805 112.351C203.798 112.352 203.795 112.352 203.794 112.352V128.352ZM214.209 124.862C217.303 122.716 219.75 119.884 221.63 116.603L207.75 108.645C206.879 110.164 205.965 111.108 205.091 111.714L214.209 124.862ZM206.881 114.359L208.993 123.863L224.612 120.393L222.5 110.889L206.881 114.359ZM210.7 116.955C209.709 118.123 208.541 119.323 207.179 120.55L217.882 132.442C219.719 130.789 221.399 129.077 222.904 127.301L210.7 116.955ZM207.245 120.49C206.331 121.295 205.186 122.031 203.736 122.658L210.092 137.342C212.931 136.113 215.53 134.513 217.815 132.502L207.245 120.49ZM203.736 122.658C202.8 123.063 201.413 123.392 199.378 123.392V139.392C203.104 139.392 206.74 138.793 210.092 137.342L203.736 122.658ZM199.378 123.392C197.24 123.392 196.146 122.932 195.585 122.561L186.755 135.903C190.547 138.412 194.924 139.392 199.378 139.392V123.392ZM195.698 122.637C194.636 121.907 194 121.123 193.587 120.26L179.153 127.164C180.853 130.717 183.417 133.613 186.642 135.827L195.698 122.637ZM193.606 120.301C193.015 119.046 192.786 117.934 192.786 116.896H176.786C176.786 120.466 177.613 123.898 179.134 127.123L193.606 120.301ZM220.464 121.543C220.431 121.714 220.28 122.261 219.699 123.223L233.394 131.497C234.668 129.387 235.701 127.054 236.181 124.537L220.464 121.543ZM219.699 123.223C219.389 123.736 219.138 124.083 218.959 124.303C218.776 124.527 218.713 124.562 218.791 124.5L228.733 137.036C230.69 135.484 232.2 133.472 233.394 131.497L219.699 123.223ZM223.944 122.77C222.225 122.731 221.447 122.358 221.138 122.156L212.37 135.54C215.774 137.77 219.668 138.677 223.58 138.766L223.944 122.77ZM221.192 122.192C220.324 121.613 219.822 121.029 219.499 120.456L205.561 128.312C207.222 131.259 209.537 133.651 212.317 135.504L221.192 122.192ZM219.582 120.606C218.958 119.442 218.665 118.517 218.545 117.813L202.771 120.491C203.228 123.179 204.182 125.742 205.478 128.162L219.582 120.606ZM218.658 119.152V98.608H202.658V119.152H218.658ZM218.658 98.608C218.658 95.3054 217.789 91.4492 214.779 88.4391L203.465 99.7529C203.03 99.3173 202.801 98.8632 202.701 98.5701C202.614 98.3149 202.658 98.284 202.658 98.608H218.658ZM214.953 88.6186C211.83 85.2939 207.649 84.512 204.37 84.512V100.512C204.844 100.512 204.889 100.574 204.66 100.497C204.387 100.406 203.834 100.151 203.291 99.5734L214.953 88.6186ZM204.37 84.512C201.458 84.512 198.492 84.9877 195.52 85.809L199.781 101.231C201.673 100.708 203.186 100.512 204.37 100.512V84.512ZM195.614 85.7834C193.112 86.4418 190.565 87.1484 187.974 87.9029L192.447 103.265C194.911 102.548 197.324 101.878 199.686 101.257L195.614 85.7834ZM196.251 90.3385C196.067 90.1267 195.699 89.5956 195.341 88.4649L180.088 93.2951C180.945 96.0044 182.242 98.6093 184.17 100.829L196.251 90.3385ZM195.387 88.6159C194.949 87.1314 194.691 85.756 194.581 84.4809L178.64 85.8551C178.85 88.292 179.327 90.7246 180.041 93.1441L195.387 88.6159ZM189.656 92.5654C191.378 91.8566 193.356 91.2291 195.616 90.7055L192.004 75.1185C189.016 75.8108 186.195 76.6874 183.564 77.7706L189.656 92.5654ZM195.706 90.6842C198.039 90.1152 200.341 89.6924 202.614 89.4117L200.654 73.5323C197.744 73.8916 194.83 74.4288 191.915 75.1398L195.706 90.6842ZM202.711 89.3992C205.038 89.0831 206.989 88.944 208.594 88.944V72.944C206.104 72.944 203.414 73.1569 200.558 73.5448L202.711 89.3992ZM208.594 88.944C210.382 88.944 212.06 89.2736 213.688 89.9367L219.725 75.1193C216.168 73.6703 212.439 72.944 208.594 72.944V88.944ZM213.767 89.9684C214.817 90.3831 215.707 91.0552 216.516 92.2222L229.665 83.1058C227.146 79.4728 223.78 76.7209 219.646 75.0876L213.767 89.9684ZM216.586 92.3222C216.993 92.8895 217.634 94.277 217.634 97.312H233.634C233.634 92.2189 232.58 87.1745 229.594 83.0058L216.586 92.3222ZM217.634 97.312V116.848H233.634V97.312H217.634ZM217.634 116.848C217.634 119.088 217.999 121.4 218.942 123.62L233.671 117.372C233.717 117.48 233.634 117.36 233.634 116.848H217.634ZM218.942 123.62C219.94 125.974 221.525 128.016 223.672 129.55L232.972 116.53C233.123 116.638 233.279 116.782 233.416 116.955C233.552 117.127 233.631 117.278 233.671 117.372L218.942 123.62ZM258.197 119.056L265.786 116.526L263.963 111.056H258.197V119.056ZM259.061 122.512L251.187 123.925L251.19 123.943L251.193 123.961L259.061 122.512ZM259.301 127.888L251.345 127.051L251.323 127.259L251.312 127.468L259.301 127.888ZM259.013 129.568L260.243 137.473L265.163 136.707L266.649 131.954L259.013 129.568ZM254.165 130.192L253.313 122.238L254.165 130.192ZM239.429 127.264L233.254 132.35L233.294 132.399L233.336 132.448L239.429 127.264ZM236.741 60.016L231.084 54.3592L228.741 56.7023V60.016H236.741ZM237.413 59.344V51.344H234.099L231.756 53.6872L237.413 59.344ZM249.557 61.36L243.695 66.8036L243.695 66.8036L249.557 61.36ZM252.389 117.904L246.142 122.902L246.192 122.964L246.243 123.025L252.389 117.904ZM250.608 121.586C250.823 122.231 251.022 123.005 251.187 123.925L266.935 121.099C266.652 119.523 266.275 117.993 265.786 116.526L250.608 121.586ZM251.193 123.961C251.331 124.707 251.397 125.438 251.397 126.16H267.397C267.397 124.45 267.239 122.749 266.929 121.063L251.193 123.961ZM251.397 126.16C251.397 126.393 251.383 126.687 251.345 127.051L267.257 128.725C267.347 127.873 267.397 127.015 267.397 126.16H251.397ZM251.312 127.468C251.311 127.496 251.313 127.387 251.377 127.182L266.649 131.954C267.033 130.725 267.227 129.496 267.29 128.308L251.312 127.468ZM257.783 121.663C256.494 121.864 255.007 122.056 253.313 122.238L255.017 138.146C256.907 137.944 258.652 137.72 260.243 137.473L257.783 121.663ZM253.313 122.238C251.812 122.398 250.273 122.48 248.693 122.48V138.48C250.825 138.48 252.934 138.37 255.017 138.146L253.313 122.238ZM248.693 122.48C247.132 122.48 246.209 122.283 245.737 122.118C245.32 121.974 245.37 121.901 245.522 122.08L233.336 132.448C237.35 137.167 243.278 138.48 248.693 138.48V122.48ZM245.604 122.178C245.531 122.09 244.741 120.933 244.741 117.136H228.741C228.741 122.491 229.743 128.086 233.254 132.35L245.604 122.178ZM244.741 117.136V60.016H228.741V117.136H244.741ZM242.398 65.6728L243.07 65.0008L231.756 53.6872L231.084 54.3592L242.398 65.6728ZM237.413 67.344H243.269V51.344H237.413V67.344ZM243.269 67.344C243.705 67.344 244.031 67.3692 244.261 67.3998C244.491 67.4305 244.597 67.463 244.607 67.466C244.614 67.4683 244.507 67.435 244.332 67.3292C244.151 67.2201 243.923 67.0496 243.695 66.8036L255.419 55.9164C251.952 52.1824 247.129 51.344 243.269 51.344V67.344ZM243.695 66.8036C243.192 66.2626 243.154 65.8913 243.232 66.1846C243.311 66.4802 243.429 67.1597 243.429 68.368H259.429C259.429 64.5014 258.795 59.5516 255.419 55.9164L243.695 66.8036ZM243.429 68.368V114.496H259.429V68.368H243.429ZM243.429 114.496C243.429 117.012 243.964 120.179 246.142 122.902L258.636 112.906C259.534 114.029 259.429 114.924 259.429 114.496H243.429ZM246.243 123.025C249.011 126.347 252.861 127.056 255.557 127.056V111.056C255.309 111.056 257.047 110.997 258.535 112.783L246.243 123.025ZM255.557 127.056H258.197V111.056H255.557V127.056ZM304.969 119.44L312.277 122.695L312.277 122.695L304.969 119.44ZM297.481 128.272L293.212 121.507L293.197 121.516L293.182 121.525L297.481 128.272ZM273.097 128.272L268.781 135.008L268.804 135.023L268.828 135.037L273.097 128.272ZM265.657 119.392L272.988 116.189L272.988 116.189L265.657 119.392ZM265.657 92.656L258.349 89.4012L258.343 89.4155L258.337 89.4299L265.657 92.656ZM273.145 83.824L277.415 90.5895L277.438 90.5747L277.461 90.5598L273.145 83.824ZM297.577 83.824L301.893 77.0882L301.893 77.0882L297.577 83.824ZM305.017 92.704L297.687 95.9073L297.692 95.9187L297.697 95.9301L305.017 92.704ZM279.001 113.2L271.072 114.265L271.08 114.323L271.089 114.381L279.001 113.2ZM280.921 118.336L274.521 123.136L274.589 123.226L274.659 123.314L280.921 118.336ZM289.753 118.336L296.094 123.214L296.124 123.175L296.153 123.136L289.753 118.336ZM291.625 113.2L283.713 112.019L283.704 112.077L283.696 112.135L291.625 113.2ZM291.625 98.848L283.696 99.9131L283.704 99.9711L283.713 100.029L291.625 98.848ZM289.753 93.76L283.353 98.56L283.383 98.599L283.412 98.6377L289.753 93.76ZM280.921 93.76L274.598 88.8594L274.589 88.8709L274.58 88.8823L280.921 93.76ZM279.001 98.848L271.089 97.667L271.08 97.7249L271.072 97.7829L279.001 98.848ZM299.513 106.048C299.513 110.296 298.809 113.607 297.661 116.185L312.277 122.695C314.521 117.657 315.513 112.04 315.513 106.048H299.513ZM297.661 116.185C296.562 118.654 295.076 120.33 293.212 121.507L301.751 135.037C306.479 132.054 309.985 127.842 312.277 122.695L297.661 116.185ZM293.182 121.525C291.488 122.605 289.024 123.392 285.337 123.392V139.392C291.315 139.392 296.947 138.099 301.781 135.019L293.182 121.525ZM285.337 123.392C281.611 123.392 279.102 122.602 277.367 121.507L268.828 135.037C273.685 138.102 279.336 139.392 285.337 139.392V123.392ZM277.413 121.536C275.533 120.331 274.059 118.641 272.988 116.189L258.327 122.595C260.583 127.759 264.069 131.989 268.781 135.008L277.413 121.536ZM272.988 116.189C271.853 113.591 271.161 110.275 271.161 106.048H255.161C255.161 111.997 256.134 117.577 258.327 122.595L272.988 116.189ZM271.161 106.048C271.161 101.739 271.859 98.4222 272.978 95.8821L258.337 89.4299C256.128 94.4417 255.161 100.053 255.161 106.048H271.161ZM272.965 95.9108C274.065 93.4421 275.551 91.7657 277.415 90.5895L268.876 77.0585C264.148 80.0423 260.642 84.2539 258.349 89.4012L272.965 95.9108ZM277.461 90.5598C279.197 89.4477 281.676 88.656 285.337 88.656V72.656C279.334 72.656 273.686 73.9763 268.829 77.0882L277.461 90.5598ZM285.337 88.656C289.042 88.656 291.534 89.4529 293.261 90.5598L301.893 77.0882C297.029 73.9711 291.36 72.656 285.337 72.656V88.656ZM293.261 90.5598C295.141 91.7646 296.615 93.4551 297.687 95.9073L312.348 89.5007C310.092 84.3369 306.605 80.1074 301.893 77.0882L293.261 90.5598ZM297.697 95.9301C298.819 98.476 299.513 101.779 299.513 106.048H315.513C315.513 100.077 314.544 94.484 312.338 89.4779L297.697 95.9301ZM270.569 106.048C270.569 108.956 270.728 111.703 271.072 114.265L286.93 112.135C286.698 110.409 286.569 108.388 286.569 106.048H270.569ZM271.089 114.381C271.538 117.393 272.532 120.484 274.521 123.136L287.321 113.536C287.39 113.628 287.104 113.295 286.914 112.019L271.089 114.381ZM274.659 123.314C277.509 126.899 281.551 128.208 285.337 128.208V112.208C285.203 112.208 285.447 112.186 285.892 112.374C286.382 112.582 286.846 112.933 287.184 113.358L274.659 123.314ZM285.337 128.208C289.094 128.208 293.233 126.933 296.094 123.214L283.412 113.458C283.786 112.972 284.294 112.592 284.807 112.374C285.266 112.18 285.507 112.208 285.337 112.208V128.208ZM296.153 123.136C298.172 120.444 299.145 117.306 299.554 114.265L283.696 112.135C283.529 113.382 283.254 113.668 283.353 113.536L296.153 123.136ZM299.538 114.381C299.927 111.775 300.105 108.988 300.105 106.048H284.105C284.105 108.356 283.964 110.337 283.713 112.019L299.538 114.381ZM300.105 106.048C300.105 103.081 299.927 100.277 299.538 97.6671L283.713 100.029C283.963 101.707 284.105 103.703 284.105 106.048H300.105ZM299.554 97.7829C299.146 94.7473 298.169 91.5793 296.094 88.8823L283.412 98.6377C283.258 98.4367 283.528 98.6607 283.696 99.9131L299.554 97.7829ZM296.153 88.96C293.32 85.1825 289.167 83.84 285.337 83.84V99.84C285.484 99.84 285.218 99.8645 284.739 99.6566C284.208 99.4254 283.708 99.0332 283.353 98.56L296.153 88.96ZM285.337 83.84C281.479 83.84 277.422 85.216 274.598 88.8594L287.245 98.6606C286.925 99.073 286.467 99.4357 285.959 99.6566C285.496 99.858 285.227 99.84 285.337 99.84V83.84ZM274.58 88.8823C272.536 91.5392 271.538 94.6604 271.089 97.667L286.914 100.029C287.105 98.7476 287.386 98.4768 287.262 98.6377L274.58 88.8823ZM271.072 97.7829C270.728 100.349 270.569 103.113 270.569 106.048H286.569C286.569 103.671 286.699 101.635 286.93 99.9131L271.072 97.7829ZM359.014 89.008L363.688 95.5003L367.633 92.6597L366.929 87.8496L359.014 89.008ZM357.046 91.792L349.618 88.8209L349.598 88.8704L349.579 88.9202L357.046 91.792ZM355.702 132.352L347.782 131.221L347.775 131.269L347.769 131.317L355.702 132.352ZM354.022 139.504L346.603 136.51L346.594 136.533L346.585 136.555L354.022 139.504ZM351.382 144.208L345.135 139.21L345.098 139.256L345.062 139.302L351.382 144.208ZM343.846 149.536L341.155 142.002L341.155 142.002L343.846 149.536ZM323.974 150.304L325.438 142.439L325.401 142.432L325.364 142.426L323.974 150.304ZM315.334 148.048H307.334V153.609L312.546 155.547L315.334 148.048ZM316.39 142.192L308.8 139.662L308.794 139.679L308.789 139.696L316.39 142.192ZM319.03 137.2L322.194 129.853L316.824 127.539L312.989 131.955L319.03 137.2ZM325.462 139.312L323.654 147.105L323.667 147.108L323.679 147.111L325.462 139.312ZM337.606 138.88L333.72 131.887L333.687 131.905L333.653 131.924L337.606 138.88ZM340.726 135.472L348.062 138.662L348.062 138.662L340.726 135.472ZM344.902 85.6L351.212 90.5166L351.226 90.4989L351.24 90.4812L344.902 85.6ZM354.454 81.328L359.289 74.9545L357.091 73.2871L354.332 73.3289L354.454 81.328ZM357.286 84.736L350.463 88.9132L350.482 88.9447L350.502 88.976L357.286 84.736ZM316.15 92.224L323.401 95.6037L323.406 95.592L323.411 95.5803L316.15 92.224ZM323.158 83.584L318.703 76.9388L318.703 76.9389L323.158 83.584ZM340.726 82.192L337.319 89.4305L337.339 89.4401L337.36 89.4495L340.726 82.192ZM346.198 85.936L351.916 80.3416L351.916 80.3416L346.198 85.936ZM349.558 90.256L357.408 91.7953L357.979 88.8837L356.513 86.3039L349.558 90.256ZM347.158 102.496L340.095 106.254L350.675 126.136L355.008 104.035L347.158 102.496ZM341.158 94.576L335.929 100.631L335.977 100.673L336.027 100.714L341.158 94.576ZM331.654 93.568L325.508 88.4465L325.508 88.4465L331.654 93.568ZM329.542 98.56L337.372 100.196L337.375 100.185L337.377 100.173L329.542 98.56ZM330.454 115.936L323.367 119.648L323.402 119.716L323.439 119.783L330.454 115.936ZM340.15 116.944L335.532 110.411L335.505 110.43L335.478 110.45L340.15 116.944ZM344.806 111.088L352.646 109.498L347.918 86.182L337.597 107.617L344.806 111.088ZM346.918 121.504L353.81 125.566L355.368 122.922L354.758 119.914L346.918 121.504ZM342.838 126.352L337.602 120.303L337.602 120.303L342.838 126.352ZM337.222 129.76L340.132 137.212L340.163 137.2L340.193 137.188L337.222 129.76ZM321.094 127.792L326.185 121.621L326.185 121.621L321.094 127.792ZM315.382 119.056L307.792 121.586L307.795 121.596L307.799 121.605L315.382 119.056ZM354.339 82.5157C351.906 84.2674 350.479 86.6687 349.618 88.8209L364.473 94.7631C364.544 94.5865 364.555 94.6111 364.454 94.7539C364.348 94.9047 364.107 95.1983 363.688 95.5003L354.339 82.5157ZM349.579 88.9202C348.698 91.2102 348.326 93.5944 348.326 95.968H364.326C364.326 95.2696 364.433 94.8698 364.512 94.6638L349.579 88.9202ZM348.326 95.968V121.264H364.326V95.968H348.326ZM348.326 121.264C348.326 125.539 348.124 128.823 347.782 131.221L363.621 133.483C364.111 130.057 364.326 125.949 364.326 121.264H348.326ZM347.769 131.317C347.433 133.893 346.991 135.547 346.603 136.51L361.44 142.498C362.524 139.813 363.202 136.699 363.634 133.387L347.769 131.317ZM346.585 136.555C346.08 137.828 345.568 138.668 345.135 139.21L357.628 149.206C359.243 147.188 360.491 144.892 361.458 142.453L346.585 136.555ZM345.062 139.302C344.185 140.432 342.978 141.351 341.155 142.002L346.536 157.07C350.985 155.481 354.802 152.848 357.701 149.114L345.062 139.302ZM341.155 142.002C339.003 142.77 336.443 143.216 333.382 143.216V159.216C338 159.216 342.416 158.542 346.536 157.07L341.155 142.002ZM333.382 143.216C330.913 143.216 328.269 142.966 325.438 142.439L322.509 158.169C326.206 158.858 329.834 159.216 333.382 159.216V143.216ZM325.364 142.426C322.466 141.914 320.07 141.274 318.121 140.549L312.546 155.547C315.589 156.678 318.953 157.542 322.583 158.182L325.364 142.426ZM323.334 148.048C323.334 147.336 323.48 146.242 323.99 144.688L308.789 139.696C307.891 142.43 307.334 145.24 307.334 148.048H323.334ZM323.979 144.722C324.469 143.252 324.913 142.626 325.07 142.445L312.989 131.955C311.034 134.206 309.718 136.908 308.8 139.662L323.979 144.722ZM315.865 144.547C318.383 145.632 320.982 146.485 323.654 147.105L327.269 131.519C325.525 131.115 323.836 130.56 322.194 129.853L315.865 144.547ZM323.679 147.111C326.453 147.745 329.228 148.08 331.99 148.08V132.08C330.527 132.08 328.95 131.903 327.244 131.513L323.679 147.111ZM331.99 148.08C335.136 148.08 338.528 147.557 341.558 145.836L333.653 131.924C333.776 131.854 333.751 131.897 333.474 131.957C333.192 132.017 332.714 132.08 331.99 132.08V148.08ZM341.491 145.873C344.424 144.243 346.701 141.792 348.062 138.662L333.389 132.282C333.407 132.241 333.462 132.138 333.565 132.026C333.666 131.916 333.74 131.876 333.72 131.887L341.491 145.873ZM348.062 138.662C349.223 135.991 349.686 133.154 349.686 130.336H333.686C333.686 131.422 333.508 132.009 333.389 132.282L348.062 138.662ZM349.686 130.336V95.728H333.686V130.336H349.686ZM349.686 95.728C349.686 93.2356 350.32 91.6619 351.212 90.5166L338.591 80.6834C335.195 85.0421 333.686 90.2204 333.686 95.728H349.686ZM351.24 90.4812C351.59 90.0266 352.242 89.3624 354.575 89.3271L354.332 73.3289C348.217 73.4216 342.501 75.6054 338.563 80.7188L351.24 90.4812ZM349.618 87.7015C349.487 87.6022 349.524 87.6034 349.705 87.8209C349.88 88.0324 350.137 88.3812 350.463 88.9132L364.108 80.5588C362.894 78.576 361.334 76.5064 359.289 74.9545L349.618 87.7015ZM350.502 88.976C351.077 89.8968 351.113 90.2713 351.098 90.1664L366.929 87.8496C366.53 85.1207 365.414 82.6472 364.069 80.496L350.502 88.976ZM321.51 106.144C321.51 101.45 322.266 98.0388 323.401 95.6037L308.898 88.8443C306.513 93.9612 305.51 99.8303 305.51 106.144H321.51ZM323.411 95.5803C324.677 92.8416 326.141 91.2153 327.612 90.2291L318.703 76.9389C314.35 79.8567 311.142 83.9904 308.888 88.8677L323.411 95.5803ZM327.612 90.2291C329.213 89.1556 330.864 88.656 332.758 88.656V72.656C327.675 72.656 322.926 74.1084 318.703 76.9388L327.612 90.2291ZM332.758 88.656C335.059 88.656 336.481 89.0362 337.319 89.4305L344.132 74.9534C340.618 73.2998 336.728 72.656 332.758 72.656V88.656ZM337.36 89.4495C338.846 90.1386 339.827 90.864 340.479 91.5304L351.916 80.3416C349.688 78.064 347.021 76.2934 344.091 74.9345L337.36 89.4495ZM340.479 91.5303C341.561 92.6366 342.219 93.5346 342.602 94.2081L356.513 86.3039C355.296 84.1614 353.714 82.1794 351.916 80.3416L340.479 91.5303ZM341.707 88.7167L339.307 100.957L355.008 104.035L357.408 91.7953L341.707 88.7167ZM354.22 98.738C352.065 94.688 349.478 91.1044 346.288 88.4377L336.027 100.714C337.125 101.632 338.538 103.328 340.095 106.254L354.22 98.738ZM346.386 88.5214C343.66 86.1669 339.921 83.84 335.398 83.84V99.84C334.833 99.84 334.572 99.689 334.701 99.7502C334.846 99.8193 335.257 100.051 335.929 100.631L346.386 88.5214ZM335.398 83.84C331.554 83.84 328.03 85.42 325.508 88.4465L337.799 98.6895C337.589 98.9419 337.212 99.2819 336.662 99.5357C336.117 99.787 335.65 99.84 335.398 99.84V83.84ZM325.508 88.4465C323.395 90.9819 322.301 94.0546 321.706 96.9468L337.377 100.173C337.518 99.4882 337.667 99.0491 337.773 98.7971C337.879 98.5465 337.914 98.5522 337.799 98.6895L325.508 88.4465ZM321.711 96.9237C321.118 99.7583 320.87 102.896 320.87 106.24H336.87C336.87 103.632 337.069 101.65 337.372 100.196L321.711 96.9237ZM320.87 106.24C320.87 110.97 321.372 115.84 323.367 119.648L337.54 112.224C337.542 112.228 337.342 111.819 337.161 110.71C336.986 109.641 336.87 108.174 336.87 106.24H320.87ZM323.439 119.783C325.317 123.207 328.893 126.912 334.534 126.912V110.912C334.95 110.912 335.411 110.978 335.878 111.132C336.342 111.286 336.72 111.498 337.004 111.705C337.541 112.097 337.632 112.387 337.468 112.089L323.439 119.783ZM334.534 126.912C338.402 126.912 341.875 125.557 344.821 123.438L335.478 110.45C335.106 110.717 334.857 110.826 334.732 110.87C334.618 110.91 334.563 110.912 334.534 110.912V126.912ZM344.767 123.477C347.99 121.199 350.33 118.056 352.014 114.559L337.597 107.617C336.785 109.304 336.021 110.065 335.532 110.411L344.767 123.477ZM336.965 112.678L339.077 123.094L354.758 119.914L352.646 109.498L336.965 112.678ZM340.025 117.442C339.435 118.444 338.648 119.398 337.602 120.303L348.073 132.401C350.355 130.426 352.288 128.148 353.81 125.566L340.025 117.442ZM337.602 120.303C336.623 121.15 335.519 121.825 334.25 122.332L340.193 137.188C343.084 136.031 345.724 134.434 348.073 132.401L337.602 120.303ZM334.311 122.308C333.208 122.739 332.053 122.96 330.79 122.96V138.96C334.006 138.96 337.139 138.381 340.132 137.212L334.311 122.308ZM330.79 122.96C328.4 122.96 327.067 122.349 326.185 121.621L316.002 133.963C320.24 137.459 325.371 138.96 330.79 138.96V122.96ZM326.185 121.621C324.971 120.619 323.823 119.061 322.964 116.507L307.799 121.605C309.436 126.475 312.096 130.741 316.002 133.963L326.185 121.621ZM322.971 116.526C322.05 113.762 321.51 110.34 321.51 106.144H305.51C305.51 111.676 306.217 116.862 307.792 121.586L322.971 116.526Z" fill="black" mask="url(#path-1-outside-1_5_54)"/>
</svg>
