<svg width="328" height="162" viewBox="0 0 328 162" fill="none" xmlns="http://www.w3.org/2000/svg">
<mask id="path-1-outside-1_5_52" maskUnits="userSpaceOnUse" x="28" y="37" width="277" height="85" fill="black">
<rect fill="white" x="28" y="37" width="277" height="85"/>
<path d="M82.76 68.704C82.76 73.696 81.736 77.888 79.688 81.28C77.672 84.64 74.888 87.184 71.336 88.912C67.816 90.608 63.784 91.456 59.24 91.456H45.176V80.224C46.04 80.16 47.368 80.096 49.16 80.032C50.952 79.968 52.696 79.92 54.392 79.888C56.12 79.824 57.304 79.792 57.944 79.792C60.504 79.792 62.44 79.184 63.752 77.968C65.064 76.752 65.944 75.296 66.392 73.6C66.84 71.872 67.064 70.24 67.064 68.704C67.064 67.2 66.84 65.6 66.392 63.904C65.944 62.176 65.064 60.704 63.752 59.488C62.44 58.272 60.504 57.664 57.944 57.664C56.984 57.664 56.024 57.664 55.064 57.664C54.136 57.632 53.016 57.6 51.704 57.568V112C50.424 112.224 49.064 112.368 47.624 112.432C46.216 112.496 45 112.528 43.976 112.528C43.048 112.528 41.832 112.496 40.328 112.432C38.856 112.368 37.512 112.224 36.296 112V46.912L36.968 46.24C41.064 46.176 44.888 46.112 48.44 46.048C52.024 45.952 55.624 45.904 59.24 45.904C63.784 45.904 67.816 46.72 71.336 48.352C74.888 49.984 77.672 52.496 79.688 55.888C81.736 59.248 82.76 63.52 82.76 68.704ZM122.377 64.24C122.377 66 122.057 68.256 121.417 71.008C120.777 73.728 119.849 76.144 118.633 78.256C117.801 77.936 116.969 77.696 116.137 77.536C115.337 77.344 114.521 77.248 113.689 77.248C112.409 77.248 111.257 77.488 110.233 77.968C109.209 78.416 108.281 79.088 107.449 79.984C106.617 80.88 105.833 81.984 105.097 83.296C104.361 84.608 103.657 86.112 102.985 87.808L101.305 85.552C101.465 82.896 101.801 80.272 102.313 77.68C102.825 75.056 103.609 72.672 104.665 70.528C105.721 68.384 107.161 66.672 108.984 65.392C110.841 64.08 113.177 63.424 115.993 63.424C117.465 63.424 118.649 63.504 119.545 63.664C120.473 63.792 121.417 63.984 122.377 64.24ZM87.1925 71.056C87.4485 69.712 88.0405 68.272 88.9685 66.736C89.8965 65.2 90.8245 64.064 91.7525 63.328C96.2005 63.648 99.5445 65.296 101.785 68.272C104.025 71.216 105.369 75.088 105.817 79.888V112C104.793 112.192 103.609 112.32 102.265 112.384C100.953 112.48 99.6405 112.528 98.3285 112.528C97.0805 112.528 95.7845 112.48 94.4405 112.384C93.1285 112.32 91.9125 112.192 90.7925 112V80.992C90.7925 78.144 90.3765 75.92 89.5445 74.32C88.7445 72.688 87.9605 71.6 87.1925 71.056ZM168.295 88.048C168.295 93.168 167.447 97.632 165.751 101.44C164.055 105.248 161.559 108.192 158.263 110.272C154.999 112.352 150.951 113.392 146.119 113.392C141.255 113.392 137.175 112.352 133.879 110.272C130.583 108.16 128.103 105.2 126.439 101.392C124.775 97.584 123.943 93.136 123.943 88.048C123.943 82.896 124.775 78.432 126.439 74.656C128.135 70.848 130.631 67.904 133.927 65.824C137.223 63.712 141.287 62.656 146.119 62.656C150.983 62.656 155.063 63.712 158.359 65.824C161.655 67.936 164.135 70.896 165.799 74.704C167.463 78.48 168.295 82.928 168.295 88.048ZM139.351 88.048C139.351 90.672 139.495 93.056 139.783 95.2C140.103 97.344 140.743 99.056 141.703 100.336C142.695 101.584 144.167 102.208 146.119 102.208C148.103 102.208 149.575 101.584 150.535 100.336C151.495 99.056 152.119 97.344 152.407 95.2C152.727 93.056 152.887 90.672 152.887 88.048C152.887 85.392 152.727 82.992 152.407 80.848C152.119 78.704 151.495 77.008 150.535 75.76C149.575 74.48 148.103 73.84 146.119 73.84C144.167 73.84 142.695 74.48 141.703 75.76C140.743 77.008 140.103 78.704 139.783 80.848C139.495 82.992 139.351 85.392 139.351 88.048ZM183.171 63.424C186.051 63.424 188.227 64.416 189.699 66.4C191.203 68.352 191.955 70.992 191.955 74.32V112C190.899 112.192 189.699 112.32 188.355 112.384C187.043 112.48 185.747 112.528 184.467 112.528C183.219 112.528 181.923 112.48 180.579 112.384C179.267 112.32 178.051 112.192 176.931 112V64.096L177.603 63.424H183.171ZM202.659 83.104C202.659 80.544 202.195 78.832 201.267 77.968C200.339 77.104 199.363 76.672 198.339 76.672C196.963 76.704 195.507 77.248 193.971 78.304C192.435 79.36 191.043 80.656 189.795 82.192C188.547 83.696 187.651 85.2 187.107 86.704V73.744C188.611 72.048 190.275 70.4 192.099 68.8C193.923 67.168 195.875 65.84 197.955 64.816C200.035 63.76 202.227 63.232 204.531 63.232C207.315 63.232 209.683 63.888 211.635 65.2C213.619 66.48 215.123 68.256 216.147 70.528C217.171 72.8 217.683 75.408 217.683 78.352V112C216.627 112.192 215.427 112.32 214.083 112.384C212.771 112.48 211.475 112.528 210.195 112.528C208.947 112.528 207.651 112.48 206.307 112.384C204.995 112.32 203.779 112.192 202.659 112V83.104ZM228.291 83.008C228.291 80.448 227.795 78.752 226.803 77.92C225.843 77.088 224.851 76.672 223.827 76.672C222.579 76.672 221.219 77.216 219.747 78.304C218.275 79.36 216.883 80.704 215.571 82.336C214.259 83.936 213.219 85.568 212.451 87.232V73.36C213.891 71.632 215.587 70 217.539 68.464C219.491 66.896 221.587 65.632 223.827 64.672C226.067 63.712 228.307 63.232 230.547 63.232C233.363 63.232 235.715 63.904 237.603 65.248C239.491 66.56 240.915 68.368 241.875 70.672C242.835 72.976 243.315 75.6 243.315 78.544V100C243.315 101.856 243.491 103.616 243.843 105.28C244.195 106.912 244.819 108.336 245.715 109.552C244.627 110.448 243.267 111.216 241.635 111.856C240.003 112.464 238.243 112.768 236.355 112.768C233.347 112.768 231.251 111.968 230.067 110.368C228.883 108.768 228.291 106.48 228.291 103.504V83.008ZM296.076 88.048C296.076 93.168 295.228 97.632 293.532 101.44C291.836 105.248 289.34 108.192 286.044 110.272C282.78 112.352 278.732 113.392 273.9 113.392C269.036 113.392 264.956 112.352 261.66 110.272C258.364 108.16 255.884 105.2 254.22 101.392C252.556 97.584 251.724 93.136 251.724 88.048C251.724 82.896 252.556 78.432 254.22 74.656C255.916 70.848 258.412 67.904 261.708 65.824C265.004 63.712 269.068 62.656 273.9 62.656C278.764 62.656 282.844 63.712 286.14 65.824C289.436 67.936 291.916 70.896 293.58 74.704C295.244 78.48 296.076 82.928 296.076 88.048ZM267.132 88.048C267.132 90.672 267.276 93.056 267.564 95.2C267.884 97.344 268.524 99.056 269.484 100.336C270.476 101.584 271.948 102.208 273.9 102.208C275.884 102.208 277.356 101.584 278.316 100.336C279.276 99.056 279.9 97.344 280.188 95.2C280.508 93.056 280.668 90.672 280.668 88.048C280.668 85.392 280.508 82.992 280.188 80.848C279.9 78.704 279.276 77.008 278.316 75.76C277.356 74.48 275.884 73.84 273.9 73.84C271.948 73.84 270.476 74.48 269.484 75.76C268.524 77.008 267.884 78.704 267.564 80.848C267.276 82.992 267.132 85.392 267.132 88.048Z"/>
</mask>
<path d="M82.76 68.704C82.76 73.696 81.736 77.888 79.688 81.28C77.672 84.64 74.888 87.184 71.336 88.912C67.816 90.608 63.784 91.456 59.24 91.456H45.176V80.224C46.04 80.16 47.368 80.096 49.16 80.032C50.952 79.968 52.696 79.92 54.392 79.888C56.12 79.824 57.304 79.792 57.944 79.792C60.504 79.792 62.44 79.184 63.752 77.968C65.064 76.752 65.944 75.296 66.392 73.6C66.84 71.872 67.064 70.24 67.064 68.704C67.064 67.2 66.84 65.6 66.392 63.904C65.944 62.176 65.064 60.704 63.752 59.488C62.44 58.272 60.504 57.664 57.944 57.664C56.984 57.664 56.024 57.664 55.064 57.664C54.136 57.632 53.016 57.6 51.704 57.568V112C50.424 112.224 49.064 112.368 47.624 112.432C46.216 112.496 45 112.528 43.976 112.528C43.048 112.528 41.832 112.496 40.328 112.432C38.856 112.368 37.512 112.224 36.296 112V46.912L36.968 46.24C41.064 46.176 44.888 46.112 48.44 46.048C52.024 45.952 55.624 45.904 59.24 45.904C63.784 45.904 67.816 46.72 71.336 48.352C74.888 49.984 77.672 52.496 79.688 55.888C81.736 59.248 82.76 63.52 82.76 68.704ZM122.377 64.24C122.377 66 122.057 68.256 121.417 71.008C120.777 73.728 119.849 76.144 118.633 78.256C117.801 77.936 116.969 77.696 116.137 77.536C115.337 77.344 114.521 77.248 113.689 77.248C112.409 77.248 111.257 77.488 110.233 77.968C109.209 78.416 108.281 79.088 107.449 79.984C106.617 80.88 105.833 81.984 105.097 83.296C104.361 84.608 103.657 86.112 102.985 87.808L101.305 85.552C101.465 82.896 101.801 80.272 102.313 77.68C102.825 75.056 103.609 72.672 104.665 70.528C105.721 68.384 107.161 66.672 108.984 65.392C110.841 64.08 113.177 63.424 115.993 63.424C117.465 63.424 118.649 63.504 119.545 63.664C120.473 63.792 121.417 63.984 122.377 64.24ZM87.1925 71.056C87.4485 69.712 88.0405 68.272 88.9685 66.736C89.8965 65.2 90.8245 64.064 91.7525 63.328C96.2005 63.648 99.5445 65.296 101.785 68.272C104.025 71.216 105.369 75.088 105.817 79.888V112C104.793 112.192 103.609 112.32 102.265 112.384C100.953 112.48 99.6405 112.528 98.3285 112.528C97.0805 112.528 95.7845 112.48 94.4405 112.384C93.1285 112.32 91.9125 112.192 90.7925 112V80.992C90.7925 78.144 90.3765 75.92 89.5445 74.32C88.7445 72.688 87.9605 71.6 87.1925 71.056ZM168.295 88.048C168.295 93.168 167.447 97.632 165.751 101.44C164.055 105.248 161.559 108.192 158.263 110.272C154.999 112.352 150.951 113.392 146.119 113.392C141.255 113.392 137.175 112.352 133.879 110.272C130.583 108.16 128.103 105.2 126.439 101.392C124.775 97.584 123.943 93.136 123.943 88.048C123.943 82.896 124.775 78.432 126.439 74.656C128.135 70.848 130.631 67.904 133.927 65.824C137.223 63.712 141.287 62.656 146.119 62.656C150.983 62.656 155.063 63.712 158.359 65.824C161.655 67.936 164.135 70.896 165.799 74.704C167.463 78.48 168.295 82.928 168.295 88.048ZM139.351 88.048C139.351 90.672 139.495 93.056 139.783 95.2C140.103 97.344 140.743 99.056 141.703 100.336C142.695 101.584 144.167 102.208 146.119 102.208C148.103 102.208 149.575 101.584 150.535 100.336C151.495 99.056 152.119 97.344 152.407 95.2C152.727 93.056 152.887 90.672 152.887 88.048C152.887 85.392 152.727 82.992 152.407 80.848C152.119 78.704 151.495 77.008 150.535 75.76C149.575 74.48 148.103 73.84 146.119 73.84C144.167 73.84 142.695 74.48 141.703 75.76C140.743 77.008 140.103 78.704 139.783 80.848C139.495 82.992 139.351 85.392 139.351 88.048ZM183.171 63.424C186.051 63.424 188.227 64.416 189.699 66.4C191.203 68.352 191.955 70.992 191.955 74.32V112C190.899 112.192 189.699 112.32 188.355 112.384C187.043 112.48 185.747 112.528 184.467 112.528C183.219 112.528 181.923 112.48 180.579 112.384C179.267 112.32 178.051 112.192 176.931 112V64.096L177.603 63.424H183.171ZM202.659 83.104C202.659 80.544 202.195 78.832 201.267 77.968C200.339 77.104 199.363 76.672 198.339 76.672C196.963 76.704 195.507 77.248 193.971 78.304C192.435 79.36 191.043 80.656 189.795 82.192C188.547 83.696 187.651 85.2 187.107 86.704V73.744C188.611 72.048 190.275 70.4 192.099 68.8C193.923 67.168 195.875 65.84 197.955 64.816C200.035 63.76 202.227 63.232 204.531 63.232C207.315 63.232 209.683 63.888 211.635 65.2C213.619 66.48 215.123 68.256 216.147 70.528C217.171 72.8 217.683 75.408 217.683 78.352V112C216.627 112.192 215.427 112.32 214.083 112.384C212.771 112.48 211.475 112.528 210.195 112.528C208.947 112.528 207.651 112.48 206.307 112.384C204.995 112.32 203.779 112.192 202.659 112V83.104ZM228.291 83.008C228.291 80.448 227.795 78.752 226.803 77.92C225.843 77.088 224.851 76.672 223.827 76.672C222.579 76.672 221.219 77.216 219.747 78.304C218.275 79.36 216.883 80.704 215.571 82.336C214.259 83.936 213.219 85.568 212.451 87.232V73.36C213.891 71.632 215.587 70 217.539 68.464C219.491 66.896 221.587 65.632 223.827 64.672C226.067 63.712 228.307 63.232 230.547 63.232C233.363 63.232 235.715 63.904 237.603 65.248C239.491 66.56 240.915 68.368 241.875 70.672C242.835 72.976 243.315 75.6 243.315 78.544V100C243.315 101.856 243.491 103.616 243.843 105.28C244.195 106.912 244.819 108.336 245.715 109.552C244.627 110.448 243.267 111.216 241.635 111.856C240.003 112.464 238.243 112.768 236.355 112.768C233.347 112.768 231.251 111.968 230.067 110.368C228.883 108.768 228.291 106.48 228.291 103.504V83.008ZM296.076 88.048C296.076 93.168 295.228 97.632 293.532 101.44C291.836 105.248 289.34 108.192 286.044 110.272C282.78 112.352 278.732 113.392 273.9 113.392C269.036 113.392 264.956 112.352 261.66 110.272C258.364 108.16 255.884 105.2 254.22 101.392C252.556 97.584 251.724 93.136 251.724 88.048C251.724 82.896 252.556 78.432 254.22 74.656C255.916 70.848 258.412 67.904 261.708 65.824C265.004 63.712 269.068 62.656 273.9 62.656C278.764 62.656 282.844 63.712 286.14 65.824C289.436 67.936 291.916 70.896 293.58 74.704C295.244 78.48 296.076 82.928 296.076 88.048ZM267.132 88.048C267.132 90.672 267.276 93.056 267.564 95.2C267.884 97.344 268.524 99.056 269.484 100.336C270.476 101.584 271.948 102.208 273.9 102.208C275.884 102.208 277.356 101.584 278.316 100.336C279.276 99.056 279.9 97.344 280.188 95.2C280.508 93.056 280.668 90.672 280.668 88.048C280.668 85.392 280.508 82.992 280.188 80.848C279.9 78.704 279.276 77.008 278.316 75.76C277.356 74.48 275.884 73.84 273.9 73.84C271.948 73.84 270.476 74.48 269.484 75.76C268.524 77.008 267.884 78.704 267.564 80.848C267.276 82.992 267.132 85.392 267.132 88.048Z" fill="white"/>
<path d="M79.688 81.28L72.8395 77.145L72.8338 77.1545L72.8281 77.164L79.688 81.28ZM71.336 88.912L74.8085 96.1191L74.8221 96.1125L74.8357 96.1059L71.336 88.912ZM45.176 91.456H37.176V99.456H45.176V91.456ZM45.176 80.224L44.585 72.2459L37.176 72.7947V80.224H45.176ZM49.16 80.032L49.4455 88.0269L49.4455 88.0269L49.16 80.032ZM54.392 79.888L54.5429 87.8866L54.6155 87.8852L54.6881 87.8825L54.392 79.888ZM63.752 77.968L58.3139 72.1006L58.3139 72.1006L63.752 77.968ZM66.392 73.6L74.1267 75.6431L74.1314 75.6254L74.136 75.6077L66.392 73.6ZM66.392 63.904L58.648 65.9117L58.6526 65.9294L58.6573 65.9471L66.392 63.904ZM63.752 59.488L69.1901 53.6206L69.1901 53.6206L63.752 59.488ZM55.064 57.664L54.7883 65.6592L54.9261 65.664H55.064V57.664ZM51.704 57.568L51.8991 49.5704L43.704 49.3705V57.568H51.704ZM51.704 112L53.083 119.88L59.704 118.722V112H51.704ZM47.624 112.432L47.2688 104.44L47.2607 104.44L47.624 112.432ZM40.328 112.432L39.9805 120.424L39.9879 120.425L40.328 112.432ZM36.296 112H28.296V118.661L34.8467 119.868L36.296 112ZM36.296 46.912L30.6391 41.2552L28.296 43.5983V46.912H36.296ZM36.968 46.24L36.843 38.241L33.6027 38.2916L31.3111 40.5832L36.968 46.24ZM48.44 46.048L48.5841 54.0467L48.6192 54.0461L48.6542 54.0451L48.44 46.048ZM71.336 48.352L67.971 55.6099L67.9835 55.6157L67.996 55.6214L71.336 48.352ZM79.688 55.888L72.8109 59.9753L72.8337 60.0136L72.8569 60.0517L79.688 55.888ZM74.76 68.704C74.76 72.6133 73.9615 75.2867 72.8395 77.145L86.5365 85.415C89.5105 80.4893 90.76 74.7787 90.76 68.704H74.76ZM72.8281 77.164C71.6169 79.1826 70.0055 80.6628 67.8363 81.7181L74.8357 96.1059C79.7705 93.7052 83.7271 90.0974 86.5479 85.396L72.8281 77.164ZM67.8635 81.7049C65.5899 82.8004 62.7769 83.456 59.24 83.456V99.456C64.7911 99.456 70.0421 98.4156 74.8085 96.1191L67.8635 81.7049ZM59.24 83.456H45.176V99.456H59.24V83.456ZM53.176 91.456V80.224H37.176V91.456H53.176ZM45.767 88.2021C46.4707 88.15 47.672 88.0902 49.4455 88.0269L48.8745 72.0371C47.064 72.1018 45.6093 72.17 44.585 72.2459L45.767 88.2021ZM49.4455 88.0269C51.1952 87.9644 52.8943 87.9177 54.5429 87.8866L54.2411 71.8894C52.4977 71.9223 50.7088 71.9716 48.8745 72.0371L49.4455 88.0269ZM54.6881 87.8825C56.429 87.818 57.4726 87.792 57.944 87.792V71.792C57.1354 71.792 55.811 71.83 54.0959 71.8935L54.6881 87.8825ZM57.944 87.792C61.6555 87.792 65.8677 86.9148 69.1901 83.8354L58.3139 72.1006C58.4661 71.9594 58.6136 71.8581 58.7338 71.7906C58.8512 71.7247 58.9215 71.7028 58.919 71.7035C58.9145 71.7049 58.8394 71.7279 58.6749 71.7502C58.51 71.7725 58.2702 71.792 57.944 71.792V87.792ZM69.1901 83.8354C71.5915 81.6098 73.2832 78.8362 74.1267 75.6431L58.6573 71.5569C58.6048 71.7558 58.5365 71.8942 58.3139 72.1006L69.1901 83.8354ZM74.136 75.6077C74.7272 73.3273 75.064 71.0164 75.064 68.704H59.064C59.064 69.4636 58.9528 70.4167 58.648 71.5923L74.136 75.6077ZM75.064 68.704C75.064 66.4072 74.7224 64.116 74.1267 61.8609L58.6573 65.9471C58.9576 67.084 59.064 67.9927 59.064 68.704H75.064ZM74.136 61.8963C73.3033 58.6845 71.6214 55.874 69.1901 53.6206L58.3139 65.3554C58.5066 65.534 58.5847 65.6675 58.648 65.9117L74.136 61.8963ZM69.1901 53.6206C65.8677 50.5412 61.6555 49.664 57.944 49.664V65.664C58.2702 65.664 58.51 65.6835 58.6749 65.7058C58.8394 65.7281 58.9146 65.7511 58.919 65.7525C58.9215 65.7532 58.8512 65.7313 58.7338 65.6654C58.6136 65.5979 58.4662 65.4966 58.3139 65.3554L69.1901 53.6206ZM57.944 49.664C57.9421 49.664 57.9403 49.664 57.9384 49.664C57.9365 49.664 57.9346 49.664 57.9328 49.664C57.9309 49.664 57.929 49.664 57.9271 49.664C57.9253 49.664 57.9234 49.664 57.9215 49.664C57.9196 49.664 57.9178 49.664 57.9159 49.664C57.914 49.664 57.9121 49.664 57.9103 49.664C57.9084 49.664 57.9065 49.664 57.9046 49.664C57.9028 49.664 57.9009 49.664 57.899 49.664C57.8971 49.664 57.8953 49.664 57.8934 49.664C57.8915 49.664 57.8896 49.664 57.8878 49.664C57.8859 49.664 57.884 49.664 57.8821 49.664C57.8803 49.664 57.8784 49.664 57.8765 49.664C57.8746 49.664 57.8728 49.664 57.8709 49.664C57.869 49.664 57.8671 49.664 57.8653 49.664C57.8634 49.664 57.8615 49.664 57.8596 49.664C57.8578 49.664 57.8559 49.664 57.854 49.664C57.8521 49.664 57.8503 49.664 57.8484 49.664C57.8465 49.664 57.8446 49.664 57.8428 49.664C57.8409 49.664 57.839 49.664 57.8371 49.664C57.8353 49.664 57.8334 49.664 57.8315 49.664C57.8296 49.664 57.8278 49.664 57.8259 49.664C57.824 49.664 57.8221 49.664 57.8203 49.664C57.8184 49.664 57.8165 49.664 57.8146 49.664C57.8128 49.664 57.8109 49.664 57.809 49.664C57.8071 49.664 57.8053 49.664 57.8034 49.664C57.8015 49.664 57.7996 49.664 57.7978 49.664C57.7959 49.664 57.794 49.664 57.7921 49.664C57.7903 49.664 57.7884 49.664 57.7865 49.664C57.7846 49.664 57.7828 49.664 57.7809 49.664C57.779 49.664 57.7771 49.664 57.7753 49.664C57.7734 49.664 57.7715 49.664 57.7696 49.664C57.7678 49.664 57.7659 49.664 57.764 49.664C57.7621 49.664 57.7603 49.664 57.7584 49.664C57.7565 49.664 57.7546 49.664 57.7528 49.664C57.7509 49.664 57.749 49.664 57.7471 49.664C57.7453 49.664 57.7434 49.664 57.7415 49.664C57.7396 49.664 57.7378 49.664 57.7359 49.664C57.734 49.664 57.7321 49.664 57.7303 49.664C57.7284 49.664 57.7265 49.664 57.7246 49.664C57.7228 49.664 57.7209 49.664 57.719 49.664C57.7171 49.664 57.7153 49.664 57.7134 49.664C57.7115 49.664 57.7096 49.664 57.7078 49.664C57.7059 49.664 57.704 49.664 57.7021 49.664C57.7003 49.664 57.6984 49.664 57.6965 49.664C57.6946 49.664 57.6928 49.664 57.6909 49.664C57.689 49.664 57.6871 49.664 57.6853 49.664C57.6834 49.664 57.6815 49.664 57.6796 49.664C57.6778 49.664 57.6759 49.664 57.674 49.664C57.6721 49.664 57.6703 49.664 57.6684 49.664C57.6665 49.664 57.6646 49.664 57.6628 49.664C57.6609 49.664 57.659 49.664 57.6571 49.664C57.6553 49.664 57.6534 49.664 57.6515 49.664C57.6496 49.664 57.6478 49.664 57.6459 49.664C57.644 49.664 57.6421 49.664 57.6403 49.664C57.6384 49.664 57.6365 49.664 57.6346 49.664C57.6328 49.664 57.6309 49.664 57.629 49.664C57.6271 49.664 57.6253 49.664 57.6234 49.664C57.6215 49.664 57.6196 49.664 57.6178 49.664C57.6159 49.664 57.614 49.664 57.6121 49.664C57.6103 49.664 57.6084 49.664 57.6065 49.664C57.6046 49.664 57.6028 49.664 57.6009 49.664C57.599 49.664 57.5971 49.664 57.5953 49.664C57.5934 49.664 57.5915 49.664 57.5896 49.664C57.5878 49.664 57.5859 49.664 57.584 49.664C57.5821 49.664 57.5803 49.664 57.5784 49.664C57.5765 49.664 57.5746 49.664 57.5728 49.664C57.5709 49.664 57.569 49.664 57.5671 49.664C57.5653 49.664 57.5634 49.664 57.5615 49.664C57.5596 49.664 57.5578 49.664 57.5559 49.664C57.554 49.664 57.5521 49.664 57.5503 49.664C57.5484 49.664 57.5465 49.664 57.5446 49.664C57.5428 49.664 57.5409 49.664 57.539 49.664C57.5371 49.664 57.5353 49.664 57.5334 49.664C57.5315 49.664 57.5296 49.664 57.5278 49.664C57.5259 49.664 57.524 49.664 57.5221 49.664C57.5203 49.664 57.5184 49.664 57.5165 49.664C57.5146 49.664 57.5128 49.664 57.5109 49.664C57.509 49.664 57.5071 49.664 57.5053 49.664C57.5034 49.664 57.5015 49.664 57.4996 49.664C57.4978 49.664 57.4959 49.664 57.494 49.664C57.4921 49.664 57.4903 49.664 57.4884 49.664C57.4865 49.664 57.4846 49.664 57.4828 49.664C57.4809 49.664 57.479 49.664 57.4771 49.664C57.4753 49.664 57.4734 49.664 57.4715 49.664C57.4696 49.664 57.4678 49.664 57.4659 49.664C57.464 49.664 57.4621 49.664 57.4603 49.664C57.4584 49.664 57.4565 49.664 57.4546 49.664C57.4528 49.664 57.4509 49.664 57.449 49.664C57.4471 49.664 57.4453 49.664 57.4434 49.664C57.4415 49.664 57.4396 49.664 57.4378 49.664C57.4359 49.664 57.434 49.664 57.4321 49.664C57.4303 49.664 57.4284 49.664 57.4265 49.664C57.4246 49.664 57.4228 49.664 57.4209 49.664C57.419 49.664 57.4171 49.664 57.4153 49.664C57.4134 49.664 57.4115 49.664 57.4096 49.664C57.4078 49.664 57.4059 49.664 57.404 49.664C57.4021 49.664 57.4003 49.664 57.3984 49.664C57.3965 49.664 57.3946 49.664 57.3928 49.664C57.3909 49.664 57.389 49.664 57.3871 49.664C57.3853 49.664 57.3834 49.664 57.3815 49.664C57.3796 49.664 57.3778 49.664 57.3759 49.664C57.374 49.664 57.3721 49.664 57.3703 49.664C57.3684 49.664 57.3665 49.664 57.3646 49.664C57.3628 49.664 57.3609 49.664 57.359 49.664C57.3571 49.664 57.3553 49.664 57.3534 49.664C57.3515 49.664 57.3496 49.664 57.3478 49.664C57.3459 49.664 57.344 49.664 57.3421 49.664C57.3403 49.664 57.3384 49.664 57.3365 49.664C57.3346 49.664 57.3328 49.664 57.3309 49.664C57.329 49.664 57.3271 49.664 57.3253 49.664C57.3234 49.664 57.3215 49.664 57.3196 49.664C57.3178 49.664 57.3159 49.664 57.314 49.664C57.3121 49.664 57.3103 49.664 57.3084 49.664C57.3065 49.664 57.3046 49.664 57.3028 49.664C57.3009 49.664 57.299 49.664 57.2971 49.664C57.2953 49.664 57.2934 49.664 57.2915 49.664C57.2896 49.664 57.2878 49.664 57.2859 49.664C57.284 49.664 57.2821 49.664 57.2803 49.664C57.2784 49.664 57.2765 49.664 57.2746 49.664C57.2728 49.664 57.2709 49.664 57.269 49.664C57.2671 49.664 57.2653 49.664 57.2634 49.664C57.2615 49.664 57.2596 49.664 57.2578 49.664C57.2559 49.664 57.254 49.664 57.2521 49.664C57.2503 49.664 57.2484 49.664 57.2465 49.664C57.2446 49.664 57.2428 49.664 57.2409 49.664C57.239 49.664 57.2371 49.664 57.2353 49.664C57.2334 49.664 57.2315 49.664 57.2296 49.664C57.2278 49.664 57.2259 49.664 57.224 49.664C57.2221 49.664 57.2203 49.664 57.2184 49.664C57.2165 49.664 57.2146 49.664 57.2128 49.664C57.2109 49.664 57.209 49.664 57.2071 49.664C57.2053 49.664 57.2034 49.664 57.2015 49.664C57.1996 49.664 57.1978 49.664 57.1959 49.664C57.194 49.664 57.1921 49.664 57.1903 49.664C57.1884 49.664 57.1865 49.664 57.1846 49.664C57.1828 49.664 57.1809 49.664 57.179 49.664C57.1771 49.664 57.1753 49.664 57.1734 49.664C57.1715 49.664 57.1696 49.664 57.1678 49.664C57.1659 49.664 57.164 49.664 57.1621 49.664C57.1603 49.664 57.1584 49.664 57.1565 49.664C57.1546 49.664 57.1528 49.664 57.1509 49.664C57.149 49.664 57.1471 49.664 57.1453 49.664C57.1434 49.664 57.1415 49.664 57.1396 49.664C57.1378 49.664 57.1359 49.664 57.134 49.664C57.1321 49.664 57.1303 49.664 57.1284 49.664C57.1265 49.664 57.1246 49.664 57.1228 49.664C57.1209 49.664 57.119 49.664 57.1171 49.664C57.1153 49.664 57.1134 49.664 57.1115 49.664C57.1096 49.664 57.1078 49.664 57.1059 49.664C57.104 49.664 57.1021 49.664 57.1003 49.664C57.0984 49.664 57.0965 49.664 57.0946 49.664C57.0928 49.664 57.0909 49.664 57.089 49.664C57.0871 49.664 57.0853 49.664 57.0834 49.664C57.0815 49.664 57.0796 49.664 57.0778 49.664C57.0759 49.664 57.074 49.664 57.0721 49.664C57.0703 49.664 57.0684 49.664 57.0665 49.664C57.0646 49.664 57.0628 49.664 57.0609 49.664C57.059 49.664 57.0571 49.664 57.0553 49.664C57.0534 49.664 57.0515 49.664 57.0496 49.664C57.0478 49.664 57.0459 49.664 57.044 49.664C57.0421 49.664 57.0403 49.664 57.0384 49.664C57.0365 49.664 57.0346 49.664 57.0328 49.664C57.0309 49.664 57.029 49.664 57.0271 49.664C57.0253 49.664 57.0234 49.664 57.0215 49.664C57.0196 49.664 57.0178 49.664 57.0159 49.664C57.014 49.664 57.0121 49.664 57.0103 49.664C57.0084 49.664 57.0065 49.664 57.0046 49.664C57.0028 49.664 57.0009 49.664 56.999 49.664C56.9971 49.664 56.9953 49.664 56.9934 49.664C56.9915 49.664 56.9896 49.664 56.9878 49.664C56.9859 49.664 56.984 49.664 56.9821 49.664C56.9803 49.664 56.9784 49.664 56.9765 49.664C56.9746 49.664 56.9728 49.664 56.9709 49.664C56.969 49.664 56.9671 49.664 56.9653 49.664C56.9634 49.664 56.9615 49.664 56.9596 49.664C56.9578 49.664 56.9559 49.664 56.954 49.664C56.9521 49.664 56.9503 49.664 56.9484 49.664C56.9465 49.664 56.9446 49.664 56.9428 49.664C56.9409 49.664 56.939 49.664 56.9371 49.664C56.9353 49.664 56.9334 49.664 56.9315 49.664C56.9296 49.664 56.9278 49.664 56.9259 49.664C56.924 49.664 56.9221 49.664 56.9203 49.664C56.9184 49.664 56.9165 49.664 56.9146 49.664C56.9128 49.664 56.9109 49.664 56.909 49.664C56.9071 49.664 56.9053 49.664 56.9034 49.664C56.9015 49.664 56.8996 49.664 56.8978 49.664C56.8959 49.664 56.894 49.664 56.8921 49.664C56.8903 49.664 56.8884 49.664 56.8865 49.664C56.8846 49.664 56.8828 49.664 56.8809 49.664C56.879 49.664 56.8771 49.664 56.8753 49.664C56.8734 49.664 56.8715 49.664 56.8696 49.664C56.8678 49.664 56.8659 49.664 56.864 49.664C56.8621 49.664 56.8603 49.664 56.8584 49.664C56.8565 49.664 56.8546 49.664 56.8528 49.664C56.8509 49.664 56.849 49.664 56.8471 49.664C56.8453 49.664 56.8434 49.664 56.8415 49.664C56.8396 49.664 56.8378 49.664 56.8359 49.664C56.834 49.664 56.8321 49.664 56.8303 49.664C56.8284 49.664 56.8265 49.664 56.8246 49.664C56.8228 49.664 56.8209 49.664 56.819 49.664C56.8171 49.664 56.8153 49.664 56.8134 49.664C56.8115 49.664 56.8096 49.664 56.8078 49.664C56.8059 49.664 56.804 49.664 56.8021 49.664C56.8003 49.664 56.7984 49.664 56.7965 49.664C56.7946 49.664 56.7928 49.664 56.7909 49.664C56.789 49.664 56.7871 49.664 56.7853 49.664C56.7834 49.664 56.7815 49.664 56.7796 49.664C56.7778 49.664 56.7759 49.664 56.774 49.664C56.7721 49.664 56.7703 49.664 56.7684 49.664C56.7665 49.664 56.7646 49.664 56.7628 49.664C56.7609 49.664 56.759 49.664 56.7571 49.664C56.7553 49.664 56.7534 49.664 56.7515 49.664C56.7496 49.664 56.7478 49.664 56.7459 49.664C56.744 49.664 56.7421 49.664 56.7403 49.664C56.7384 49.664 56.7365 49.664 56.7346 49.664C56.7328 49.664 56.7309 49.664 56.729 49.664C56.7271 49.664 56.7253 49.664 56.7234 49.664C56.7215 49.664 56.7196 49.664 56.7178 49.664C56.7159 49.664 56.714 49.664 56.7121 49.664C56.7103 49.664 56.7084 49.664 56.7065 49.664C56.7046 49.664 56.7028 49.664 56.7009 49.664C56.699 49.664 56.6971 49.664 56.6953 49.664C56.6934 49.664 56.6915 49.664 56.6896 49.664C56.6878 49.664 56.6859 49.664 56.684 49.664C56.6821 49.664 56.6803 49.664 56.6784 49.664C56.6765 49.664 56.6746 49.664 56.6728 49.664C56.6709 49.664 56.669 49.664 56.6671 49.664C56.6653 49.664 56.6634 49.664 56.6615 49.664C56.6596 49.664 56.6578 49.664 56.6559 49.664C56.654 49.664 56.6521 49.664 56.6503 49.664C56.6484 49.664 56.6465 49.664 56.6446 49.664C56.6428 49.664 56.6409 49.664 56.639 49.664C56.6371 49.664 56.6353 49.664 56.6334 49.664C56.6315 49.664 56.6296 49.664 56.6278 49.664C56.6259 49.664 56.624 49.664 56.6221 49.664C56.6203 49.664 56.6184 49.664 56.6165 49.664C56.6146 49.664 56.6128 49.664 56.6109 49.664C56.609 49.664 56.6071 49.664 56.6053 49.664C56.6034 49.664 56.6015 49.664 56.5996 49.664C56.5978 49.664 56.5959 49.664 56.594 49.664C56.5921 49.664 56.5903 49.664 56.5884 49.664C56.5865 49.664 56.5846 49.664 56.5828 49.664C56.5809 49.664 56.579 49.664 56.5771 49.664C56.5753 49.664 56.5734 49.664 56.5715 49.664C56.5696 49.664 56.5678 49.664 56.5659 49.664C56.564 49.664 56.5621 49.664 56.5603 49.664C56.5584 49.664 56.5565 49.664 56.5546 49.664C56.5528 49.664 56.5509 49.664 56.549 49.664C56.5471 49.664 56.5453 49.664 56.5434 49.664C56.5415 49.664 56.5396 49.664 56.5378 49.664C56.5359 49.664 56.534 49.664 56.5321 49.664C56.5303 49.664 56.5284 49.664 56.5265 49.664C56.5246 49.664 56.5228 49.664 56.5209 49.664C56.519 49.664 56.5171 49.664 56.5153 49.664C56.5134 49.664 56.5115 49.664 56.5096 49.664C56.5078 49.664 56.5059 49.664 56.504 49.664C56.5021 49.664 56.5003 49.664 56.4984 49.664C56.4965 49.664 56.4946 49.664 56.4928 49.664C56.4909 49.664 56.489 49.664 56.4871 49.664C56.4853 49.664 56.4834 49.664 56.4815 49.664C56.4796 49.664 56.4778 49.664 56.4759 49.664C56.474 49.664 56.4721 49.664 56.4703 49.664C56.4684 49.664 56.4665 49.664 56.4646 49.664C56.4628 49.664 56.4609 49.664 56.459 49.664C56.4571 49.664 56.4553 49.664 56.4534 49.664C56.4515 49.664 56.4496 49.664 56.4478 49.664C56.4459 49.664 56.444 49.664 56.4421 49.664C56.4403 49.664 56.4384 49.664 56.4365 49.664C56.4346 49.664 56.4328 49.664 56.4309 49.664C56.429 49.664 56.4271 49.664 56.4253 49.664C56.4234 49.664 56.4215 49.664 56.4196 49.664C56.4178 49.664 56.4159 49.664 56.414 49.664C56.4121 49.664 56.4103 49.664 56.4084 49.664C56.4065 49.664 56.4046 49.664 56.4028 49.664C56.4009 49.664 56.399 49.664 56.3971 49.664C56.3953 49.664 56.3934 49.664 56.3915 49.664C56.3896 49.664 56.3878 49.664 56.3859 49.664C56.384 49.664 56.3821 49.664 56.3803 49.664C56.3784 49.664 56.3765 49.664 56.3746 49.664C56.3728 49.664 56.3709 49.664 56.369 49.664C56.3671 49.664 56.3653 49.664 56.3634 49.664C56.3615 49.664 56.3596 49.664 56.3578 49.664C56.3559 49.664 56.354 49.664 56.3521 49.664C56.3503 49.664 56.3484 49.664 56.3465 49.664C56.3446 49.664 56.3428 49.664 56.3409 49.664C56.339 49.664 56.3371 49.664 56.3353 49.664C56.3334 49.664 56.3315 49.664 56.3296 49.664C56.3278 49.664 56.3259 49.664 56.324 49.664C56.3221 49.664 56.3203 49.664 56.3184 49.664C56.3165 49.664 56.3146 49.664 56.3128 49.664C56.3109 49.664 56.309 49.664 56.3071 49.664C56.3053 49.664 56.3034 49.664 56.3015 49.664C56.2996 49.664 56.2978 49.664 56.2959 49.664C56.294 49.664 56.2921 49.664 56.2903 49.664C56.2884 49.664 56.2865 49.664 56.2846 49.664C56.2828 49.664 56.2809 49.664 56.279 49.664C56.2771 49.664 56.2753 49.664 56.2734 49.664C56.2715 49.664 56.2696 49.664 56.2678 49.664C56.2659 49.664 56.264 49.664 56.2621 49.664C56.2603 49.664 56.2584 49.664 56.2565 49.664C56.2546 49.664 56.2528 49.664 56.2509 49.664C56.249 49.664 56.2471 49.664 56.2453 49.664C56.2434 49.664 56.2415 49.664 56.2396 49.664C56.2378 49.664 56.2359 49.664 56.234 49.664C56.2321 49.664 56.2303 49.664 56.2284 49.664C56.2265 49.664 56.2246 49.664 56.2228 49.664C56.2209 49.664 56.219 49.664 56.2171 49.664C56.2153 49.664 56.2134 49.664 56.2115 49.664C56.2096 49.664 56.2078 49.664 56.2059 49.664C56.204 49.664 56.2021 49.664 56.2003 49.664C56.1984 49.664 56.1965 49.664 56.1946 49.664C56.1928 49.664 56.1909 49.664 56.189 49.664C56.1871 49.664 56.1853 49.664 56.1834 49.664C56.1815 49.664 56.1796 49.664 56.1778 49.664C56.1759 49.664 56.174 49.664 56.1721 49.664C56.1703 49.664 56.1684 49.664 56.1665 49.664C56.1646 49.664 56.1628 49.664 56.1609 49.664C56.159 49.664 56.1571 49.664 56.1553 49.664C56.1534 49.664 56.1515 49.664 56.1496 49.664C56.1478 49.664 56.1459 49.664 56.144 49.664C56.1421 49.664 56.1403 49.664 56.1384 49.664C56.1365 49.664 56.1346 49.664 56.1328 49.664C56.1309 49.664 56.129 49.664 56.1271 49.664C56.1253 49.664 56.1234 49.664 56.1215 49.664C56.1196 49.664 56.1178 49.664 56.1159 49.664C56.114 49.664 56.1121 49.664 56.1103 49.664C56.1084 49.664 56.1065 49.664 56.1046 49.664C56.1028 49.664 56.1009 49.664 56.099 49.664C56.0971 49.664 56.0953 49.664 56.0934 49.664C56.0915 49.664 56.0896 49.664 56.0878 49.664C56.0859 49.664 56.084 49.664 56.0821 49.664C56.0803 49.664 56.0784 49.664 56.0765 49.664C56.0746 49.664 56.0728 49.664 56.0709 49.664C56.069 49.664 56.0671 49.664 56.0653 49.664C56.0634 49.664 56.0615 49.664 56.0596 49.664C56.0578 49.664 56.0559 49.664 56.054 49.664C56.0521 49.664 56.0503 49.664 56.0484 49.664C56.0465 49.664 56.0446 49.664 56.0428 49.664C56.0409 49.664 56.039 49.664 56.0371 49.664C56.0353 49.664 56.0334 49.664 56.0315 49.664C56.0296 49.664 56.0278 49.664 56.0259 49.664C56.024 49.664 56.0221 49.664 56.0203 49.664C56.0184 49.664 56.0165 49.664 56.0146 49.664C56.0128 49.664 56.0109 49.664 56.009 49.664C56.0071 49.664 56.0053 49.664 56.0034 49.664C56.0015 49.664 55.9996 49.664 55.9978 49.664C55.9959 49.664 55.994 49.664 55.9921 49.664C55.9903 49.664 55.9884 49.664 55.9865 49.664C55.9846 49.664 55.9828 49.664 55.9809 49.664C55.979 49.664 55.9771 49.664 55.9753 49.664C55.9734 49.664 55.9715 49.664 55.9696 49.664C55.9678 49.664 55.9659 49.664 55.964 49.664C55.9621 49.664 55.9603 49.664 55.9584 49.664C55.9565 49.664 55.9546 49.664 55.9528 49.664C55.9509 49.664 55.949 49.664 55.9471 49.664C55.9453 49.664 55.9434 49.664 55.9415 49.664C55.9396 49.664 55.9378 49.664 55.9359 49.664C55.934 49.664 55.9321 49.664 55.9303 49.664C55.9284 49.664 55.9265 49.664 55.9246 49.664C55.9228 49.664 55.9209 49.664 55.919 49.664C55.9171 49.664 55.9153 49.664 55.9134 49.664C55.9115 49.664 55.9096 49.664 55.9078 49.664C55.9059 49.664 55.904 49.664 55.9021 49.664C55.9003 49.664 55.8984 49.664 55.8965 49.664C55.8946 49.664 55.8928 49.664 55.8909 49.664C55.889 49.664 55.8871 49.664 55.8853 49.664C55.8834 49.664 55.8815 49.664 55.8796 49.664C55.8778 49.664 55.8759 49.664 55.874 49.664C55.8721 49.664 55.8703 49.664 55.8684 49.664C55.8665 49.664 55.8646 49.664 55.8628 49.664C55.8609 49.664 55.859 49.664 55.8571 49.664C55.8553 49.664 55.8534 49.664 55.8515 49.664C55.8496 49.664 55.8478 49.664 55.8459 49.664C55.844 49.664 55.8421 49.664 55.8403 49.664C55.8384 49.664 55.8365 49.664 55.8346 49.664C55.8328 49.664 55.8309 49.664 55.829 49.664C55.8271 49.664 55.8253 49.664 55.8234 49.664C55.8215 49.664 55.8196 49.664 55.8178 49.664C55.8159 49.664 55.814 49.664 55.8121 49.664C55.8103 49.664 55.8084 49.664 55.8065 49.664C55.8046 49.664 55.8028 49.664 55.8009 49.664C55.799 49.664 55.7971 49.664 55.7953 49.664C55.7934 49.664 55.7915 49.664 55.7896 49.664C55.7878 49.664 55.7859 49.664 55.784 49.664C55.7821 49.664 55.7803 49.664 55.7784 49.664C55.7765 49.664 55.7746 49.664 55.7728 49.664C55.7709 49.664 55.769 49.664 55.7671 49.664C55.7653 49.664 55.7634 49.664 55.7615 49.664C55.7596 49.664 55.7578 49.664 55.7559 49.664C55.754 49.664 55.7521 49.664 55.7503 49.664C55.7484 49.664 55.7465 49.664 55.7446 49.664C55.7428 49.664 55.7409 49.664 55.739 49.664C55.7371 49.664 55.7353 49.664 55.7334 49.664C55.7315 49.664 55.7296 49.664 55.7278 49.664C55.7259 49.664 55.724 49.664 55.7221 49.664C55.7203 49.664 55.7184 49.664 55.7165 49.664C55.7146 49.664 55.7128 49.664 55.7109 49.664C55.709 49.664 55.7071 49.664 55.7053 49.664C55.7034 49.664 55.7015 49.664 55.6996 49.664C55.6978 49.664 55.6959 49.664 55.694 49.664C55.6921 49.664 55.6903 49.664 55.6884 49.664C55.6865 49.664 55.6846 49.664 55.6828 49.664C55.6809 49.664 55.679 49.664 55.6771 49.664C55.6753 49.664 55.6734 49.664 55.6715 49.664C55.6696 49.664 55.6678 49.664 55.6659 49.664C55.664 49.664 55.6621 49.664 55.6603 49.664C55.6584 49.664 55.6565 49.664 55.6546 49.664C55.6528 49.664 55.6509 49.664 55.649 49.664C55.6471 49.664 55.6453 49.664 55.6434 49.664C55.6415 49.664 55.6396 49.664 55.6378 49.664C55.6359 49.664 55.634 49.664 55.6321 49.664C55.6303 49.664 55.6284 49.664 55.6265 49.664C55.6246 49.664 55.6228 49.664 55.6209 49.664C55.619 49.664 55.6171 49.664 55.6153 49.664C55.6134 49.664 55.6115 49.664 55.6096 49.664C55.6078 49.664 55.6059 49.664 55.604 49.664C55.6021 49.664 55.6003 49.664 55.5984 49.664C55.5965 49.664 55.5946 49.664 55.5928 49.664C55.5909 49.664 55.589 49.664 55.5871 49.664C55.5853 49.664 55.5834 49.664 55.5815 49.664C55.5796 49.664 55.5778 49.664 55.5759 49.664C55.574 49.664 55.5721 49.664 55.5703 49.664C55.5684 49.664 55.5665 49.664 55.5646 49.664C55.5628 49.664 55.5609 49.664 55.559 49.664C55.5571 49.664 55.5553 49.664 55.5534 49.664C55.5515 49.664 55.5496 49.664 55.5478 49.664C55.5459 49.664 55.544 49.664 55.5421 49.664C55.5403 49.664 55.5384 49.664 55.5365 49.664C55.5346 49.664 55.5328 49.664 55.5309 49.664C55.529 49.664 55.5271 49.664 55.5253 49.664C55.5234 49.664 55.5215 49.664 55.5196 49.664C55.5178 49.664 55.5159 49.664 55.514 49.664C55.5121 49.664 55.5103 49.664 55.5084 49.664C55.5065 49.664 55.5046 49.664 55.5028 49.664C55.5009 49.664 55.499 49.664 55.4971 49.664C55.4953 49.664 55.4934 49.664 55.4915 49.664C55.4896 49.664 55.4878 49.664 55.4859 49.664C55.484 49.664 55.4821 49.664 55.4803 49.664C55.4784 49.664 55.4765 49.664 55.4746 49.664C55.4728 49.664 55.4709 49.664 55.469 49.664C55.4671 49.664 55.4653 49.664 55.4634 49.664C55.4615 49.664 55.4596 49.664 55.4578 49.664C55.4559 49.664 55.454 49.664 55.4521 49.664C55.4503 49.664 55.4484 49.664 55.4465 49.664C55.4446 49.664 55.4428 49.664 55.4409 49.664C55.439 49.664 55.4371 49.664 55.4353 49.664C55.4334 49.664 55.4315 49.664 55.4296 49.664C55.4278 49.664 55.4259 49.664 55.424 49.664C55.4221 49.664 55.4203 49.664 55.4184 49.664C55.4165 49.664 55.4146 49.664 55.4128 49.664C55.4109 49.664 55.409 49.664 55.4071 49.664C55.4053 49.664 55.4034 49.664 55.4015 49.664C55.3996 49.664 55.3978 49.664 55.3959 49.664C55.394 49.664 55.3921 49.664 55.3903 49.664C55.3884 49.664 55.3865 49.664 55.3846 49.664C55.3828 49.664 55.3809 49.664 55.379 49.664C55.3771 49.664 55.3753 49.664 55.3734 49.664C55.3715 49.664 55.3696 49.664 55.3678 49.664C55.3659 49.664 55.364 49.664 55.3621 49.664C55.3603 49.664 55.3584 49.664 55.3565 49.664C55.3546 49.664 55.3528 49.664 55.3509 49.664C55.349 49.664 55.3471 49.664 55.3453 49.664C55.3434 49.664 55.3415 49.664 55.3396 49.664C55.3378 49.664 55.3359 49.664 55.334 49.664C55.3321 49.664 55.3303 49.664 55.3284 49.664C55.3265 49.664 55.3246 49.664 55.3228 49.664C55.3209 49.664 55.319 49.664 55.3171 49.664C55.3153 49.664 55.3134 49.664 55.3115 49.664C55.3096 49.664 55.3078 49.664 55.3059 49.664C55.304 49.664 55.3021 49.664 55.3003 49.664C55.2984 49.664 55.2965 49.664 55.2946 49.664C55.2928 49.664 55.2909 49.664 55.289 49.664C55.2871 49.664 55.2853 49.664 55.2834 49.664C55.2815 49.664 55.2796 49.664 55.2778 49.664C55.2759 49.664 55.274 49.664 55.2721 49.664C55.2703 49.664 55.2684 49.664 55.2665 49.664C55.2646 49.664 55.2628 49.664 55.2609 49.664C55.259 49.664 55.2571 49.664 55.2553 49.664C55.2534 49.664 55.2515 49.664 55.2496 49.664C55.2478 49.664 55.2459 49.664 55.244 49.664C55.2421 49.664 55.2403 49.664 55.2384 49.664C55.2365 49.664 55.2346 49.664 55.2328 49.664C55.2309 49.664 55.229 49.664 55.2271 49.664C55.2253 49.664 55.2234 49.664 55.2215 49.664C55.2196 49.664 55.2178 49.664 55.2159 49.664C55.214 49.664 55.2121 49.664 55.2103 49.664C55.2084 49.664 55.2065 49.664 55.2046 49.664C55.2028 49.664 55.2009 49.664 55.199 49.664C55.1971 49.664 55.1953 49.664 55.1934 49.664C55.1915 49.664 55.1896 49.664 55.1878 49.664C55.1859 49.664 55.184 49.664 55.1821 49.664C55.1803 49.664 55.1784 49.664 55.1765 49.664C55.1746 49.664 55.1728 49.664 55.1709 49.664C55.169 49.664 55.1671 49.664 55.1653 49.664C55.1634 49.664 55.1615 49.664 55.1596 49.664C55.1578 49.664 55.1559 49.664 55.154 49.664C55.1521 49.664 55.1503 49.664 55.1484 49.664C55.1465 49.664 55.1446 49.664 55.1428 49.664C55.1409 49.664 55.139 49.664 55.1371 49.664C55.1353 49.664 55.1334 49.664 55.1315 49.664C55.1296 49.664 55.1278 49.664 55.1259 49.664C55.124 49.664 55.1221 49.664 55.1203 49.664C55.1184 49.664 55.1165 49.664 55.1146 49.664C55.1128 49.664 55.1109 49.664 55.109 49.664C55.1071 49.664 55.1053 49.664 55.1034 49.664C55.1015 49.664 55.0996 49.664 55.0978 49.664C55.0959 49.664 55.094 49.664 55.0921 49.664C55.0903 49.664 55.0884 49.664 55.0865 49.664C55.0846 49.664 55.0828 49.664 55.0809 49.664C55.079 49.664 55.0771 49.664 55.0753 49.664C55.0734 49.664 55.0715 49.664 55.0696 49.664C55.0678 49.664 55.0659 49.664 55.064 49.664V65.664C55.0659 65.664 55.0678 65.664 55.0696 65.664C55.0715 65.664 55.0734 65.664 55.0753 65.664C55.0771 65.664 55.079 65.664 55.0809 65.664C55.0828 65.664 55.0846 65.664 55.0865 65.664C55.0884 65.664 55.0903 65.664 55.0921 65.664C55.094 65.664 55.0959 65.664 55.0978 65.664C55.0996 65.664 55.1015 65.664 55.1034 65.664C55.1053 65.664 55.1071 65.664 55.109 65.664C55.1109 65.664 55.1128 65.664 55.1146 65.664C55.1165 65.664 55.1184 65.664 55.1203 65.664C55.1221 65.664 55.124 65.664 55.1259 65.664C55.1278 65.664 55.1296 65.664 55.1315 65.664C55.1334 65.664 55.1353 65.664 55.1371 65.664C55.139 65.664 55.1409 65.664 55.1428 65.664C55.1446 65.664 55.1465 65.664 55.1484 65.664C55.1503 65.664 55.1521 65.664 55.154 65.664C55.1559 65.664 55.1578 65.664 55.1596 65.664C55.1615 65.664 55.1634 65.664 55.1653 65.664C55.1671 65.664 55.169 65.664 55.1709 65.664C55.1728 65.664 55.1746 65.664 55.1765 65.664C55.1784 65.664 55.1803 65.664 55.1821 65.664C55.184 65.664 55.1859 65.664 55.1878 65.664C55.1896 65.664 55.1915 65.664 55.1934 65.664C55.1953 65.664 55.1971 65.664 55.199 65.664C55.2009 65.664 55.2028 65.664 55.2046 65.664C55.2065 65.664 55.2084 65.664 55.2103 65.664C55.2121 65.664 55.214 65.664 55.2159 65.664C55.2178 65.664 55.2196 65.664 55.2215 65.664C55.2234 65.664 55.2253 65.664 55.2271 65.664C55.229 65.664 55.2309 65.664 55.2328 65.664C55.2346 65.664 55.2365 65.664 55.2384 65.664C55.2403 65.664 55.2421 65.664 55.244 65.664C55.2459 65.664 55.2478 65.664 55.2496 65.664C55.2515 65.664 55.2534 65.664 55.2553 65.664C55.2571 65.664 55.259 65.664 55.2609 65.664C55.2628 65.664 55.2646 65.664 55.2665 65.664C55.2684 65.664 55.2703 65.664 55.2721 65.664C55.274 65.664 55.2759 65.664 55.2778 65.664C55.2796 65.664 55.2815 65.664 55.2834 65.664C55.2853 65.664 55.2871 65.664 55.289 65.664C55.2909 65.664 55.2928 65.664 55.2946 65.664C55.2965 65.664 55.2984 65.664 55.3003 65.664C55.3021 65.664 55.304 65.664 55.3059 65.664C55.3078 65.664 55.3096 65.664 55.3115 65.664C55.3134 65.664 55.3153 65.664 55.3171 65.664C55.319 65.664 55.3209 65.664 55.3228 65.664C55.3246 65.664 55.3265 65.664 55.3284 65.664C55.3303 65.664 55.3321 65.664 55.334 65.664C55.3359 65.664 55.3378 65.664 55.3396 65.664C55.3415 65.664 55.3434 65.664 55.3453 65.664C55.3471 65.664 55.349 65.664 55.3509 65.664C55.3528 65.664 55.3546 65.664 55.3565 65.664C55.3584 65.664 55.3603 65.664 55.3621 65.664C55.364 65.664 55.3659 65.664 55.3678 65.664C55.3696 65.664 55.3715 65.664 55.3734 65.664C55.3753 65.664 55.3771 65.664 55.379 65.664C55.3809 65.664 55.3828 65.664 55.3846 65.664C55.3865 65.664 55.3884 65.664 55.3903 65.664C55.3921 65.664 55.394 65.664 55.3959 65.664C55.3978 65.664 55.3996 65.664 55.4015 65.664C55.4034 65.664 55.4053 65.664 55.4071 65.664C55.409 65.664 55.4109 65.664 55.4128 65.664C55.4146 65.664 55.4165 65.664 55.4184 65.664C55.4203 65.664 55.4221 65.664 55.424 65.664C55.4259 65.664 55.4278 65.664 55.4296 65.664C55.4315 65.664 55.4334 65.664 55.4353 65.664C55.4371 65.664 55.439 65.664 55.4409 65.664C55.4428 65.664 55.4446 65.664 55.4465 65.664C55.4484 65.664 55.4503 65.664 55.4521 65.664C55.454 65.664 55.4559 65.664 55.4578 65.664C55.4596 65.664 55.4615 65.664 55.4634 65.664C55.4653 65.664 55.4671 65.664 55.469 65.664C55.4709 65.664 55.4728 65.664 55.4746 65.664C55.4765 65.664 55.4784 65.664 55.4803 65.664C55.4821 65.664 55.484 65.664 55.4859 65.664C55.4878 65.664 55.4896 65.664 55.4915 65.664C55.4934 65.664 55.4953 65.664 55.4971 65.664C55.499 65.664 55.5009 65.664 55.5028 65.664C55.5046 65.664 55.5065 65.664 55.5084 65.664C55.5103 65.664 55.5121 65.664 55.514 65.664C55.5159 65.664 55.5178 65.664 55.5196 65.664C55.5215 65.664 55.5234 65.664 55.5253 65.664C55.5271 65.664 55.529 65.664 55.5309 65.664C55.5328 65.664 55.5346 65.664 55.5365 65.664C55.5384 65.664 55.5403 65.664 55.5421 65.664C55.544 65.664 55.5459 65.664 55.5478 65.664C55.5496 65.664 55.5515 65.664 55.5534 65.664C55.5553 65.664 55.5571 65.664 55.559 65.664C55.5609 65.664 55.5628 65.664 55.5646 65.664C55.5665 65.664 55.5684 65.664 55.5703 65.664C55.5721 65.664 55.574 65.664 55.5759 65.664C55.5778 65.664 55.5796 65.664 55.5815 65.664C55.5834 65.664 55.5853 65.664 55.5871 65.664C55.589 65.664 55.5909 65.664 55.5928 65.664C55.5946 65.664 55.5965 65.664 55.5984 65.664C55.6003 65.664 55.6021 65.664 55.604 65.664C55.6059 65.664 55.6078 65.664 55.6096 65.664C55.6115 65.664 55.6134 65.664 55.6153 65.664C55.6171 65.664 55.619 65.664 55.6209 65.664C55.6228 65.664 55.6246 65.664 55.6265 65.664C55.6284 65.664 55.6303 65.664 55.6321 65.664C55.634 65.664 55.6359 65.664 55.6378 65.664C55.6396 65.664 55.6415 65.664 55.6434 65.664C55.6453 65.664 55.6471 65.664 55.649 65.664C55.6509 65.664 55.6528 65.664 55.6546 65.664C55.6565 65.664 55.6584 65.664 55.6603 65.664C55.6621 65.664 55.664 65.664 55.6659 65.664C55.6678 65.664 55.6696 65.664 55.6715 65.664C55.6734 65.664 55.6753 65.664 55.6771 65.664C55.679 65.664 55.6809 65.664 55.6828 65.664C55.6846 65.664 55.6865 65.664 55.6884 65.664C55.6903 65.664 55.6921 65.664 55.694 65.664C55.6959 65.664 55.6978 65.664 55.6996 65.664C55.7015 65.664 55.7034 65.664 55.7053 65.664C55.7071 65.664 55.709 65.664 55.7109 65.664C55.7128 65.664 55.7146 65.664 55.7165 65.664C55.7184 65.664 55.7203 65.664 55.7221 65.664C55.724 65.664 55.7259 65.664 55.7278 65.664C55.7296 65.664 55.7315 65.664 55.7334 65.664C55.7353 65.664 55.7371 65.664 55.739 65.664C55.7409 65.664 55.7428 65.664 55.7446 65.664C55.7465 65.664 55.7484 65.664 55.7503 65.664C55.7521 65.664 55.754 65.664 55.7559 65.664C55.7578 65.664 55.7596 65.664 55.7615 65.664C55.7634 65.664 55.7653 65.664 55.7671 65.664C55.769 65.664 55.7709 65.664 55.7728 65.664C55.7746 65.664 55.7765 65.664 55.7784 65.664C55.7803 65.664 55.7821 65.664 55.784 65.664C55.7859 65.664 55.7878 65.664 55.7896 65.664C55.7915 65.664 55.7934 65.664 55.7953 65.664C55.7971 65.664 55.799 65.664 55.8009 65.664C55.8028 65.664 55.8046 65.664 55.8065 65.664C55.8084 65.664 55.8103 65.664 55.8121 65.664C55.814 65.664 55.8159 65.664 55.8178 65.664C55.8196 65.664 55.8215 65.664 55.8234 65.664C55.8253 65.664 55.8271 65.664 55.829 65.664C55.8309 65.664 55.8328 65.664 55.8346 65.664C55.8365 65.664 55.8384 65.664 55.8403 65.664C55.8421 65.664 55.844 65.664 55.8459 65.664C55.8478 65.664 55.8496 65.664 55.8515 65.664C55.8534 65.664 55.8553 65.664 55.8571 65.664C55.859 65.664 55.8609 65.664 55.8628 65.664C55.8646 65.664 55.8665 65.664 55.8684 65.664C55.8703 65.664 55.8721 65.664 55.874 65.664C55.8759 65.664 55.8778 65.664 55.8796 65.664C55.8815 65.664 55.8834 65.664 55.8853 65.664C55.8871 65.664 55.889 65.664 55.8909 65.664C55.8928 65.664 55.8946 65.664 55.8965 65.664C55.8984 65.664 55.9003 65.664 55.9021 65.664C55.904 65.664 55.9059 65.664 55.9078 65.664C55.9096 65.664 55.9115 65.664 55.9134 65.664C55.9153 65.664 55.9171 65.664 55.919 65.664C55.9209 65.664 55.9228 65.664 55.9246 65.664C55.9265 65.664 55.9284 65.664 55.9303 65.664C55.9321 65.664 55.934 65.664 55.9359 65.664C55.9378 65.664 55.9396 65.664 55.9415 65.664C55.9434 65.664 55.9453 65.664 55.9471 65.664C55.949 65.664 55.9509 65.664 55.9528 65.664C55.9546 65.664 55.9565 65.664 55.9584 65.664C55.9603 65.664 55.9621 65.664 55.964 65.664C55.9659 65.664 55.9678 65.664 55.9696 65.664C55.9715 65.664 55.9734 65.664 55.9753 65.664C55.9771 65.664 55.979 65.664 55.9809 65.664C55.9828 65.664 55.9846 65.664 55.9865 65.664C55.9884 65.664 55.9903 65.664 55.9921 65.664C55.994 65.664 55.9959 65.664 55.9978 65.664C55.9996 65.664 56.0015 65.664 56.0034 65.664C56.0053 65.664 56.0071 65.664 56.009 65.664C56.0109 65.664 56.0128 65.664 56.0146 65.664C56.0165 65.664 56.0184 65.664 56.0203 65.664C56.0221 65.664 56.024 65.664 56.0259 65.664C56.0278 65.664 56.0296 65.664 56.0315 65.664C56.0334 65.664 56.0353 65.664 56.0371 65.664C56.039 65.664 56.0409 65.664 56.0428 65.664C56.0446 65.664 56.0465 65.664 56.0484 65.664C56.0503 65.664 56.0521 65.664 56.054 65.664C56.0559 65.664 56.0578 65.664 56.0596 65.664C56.0615 65.664 56.0634 65.664 56.0653 65.664C56.0671 65.664 56.069 65.664 56.0709 65.664C56.0728 65.664 56.0746 65.664 56.0765 65.664C56.0784 65.664 56.0803 65.664 56.0821 65.664C56.084 65.664 56.0859 65.664 56.0878 65.664C56.0896 65.664 56.0915 65.664 56.0934 65.664C56.0953 65.664 56.0971 65.664 56.099 65.664C56.1009 65.664 56.1028 65.664 56.1046 65.664C56.1065 65.664 56.1084 65.664 56.1103 65.664C56.1121 65.664 56.114 65.664 56.1159 65.664C56.1178 65.664 56.1196 65.664 56.1215 65.664C56.1234 65.664 56.1253 65.664 56.1271 65.664C56.129 65.664 56.1309 65.664 56.1328 65.664C56.1346 65.664 56.1365 65.664 56.1384 65.664C56.1403 65.664 56.1421 65.664 56.144 65.664C56.1459 65.664 56.1478 65.664 56.1496 65.664C56.1515 65.664 56.1534 65.664 56.1553 65.664C56.1571 65.664 56.159 65.664 56.1609 65.664C56.1628 65.664 56.1646 65.664 56.1665 65.664C56.1684 65.664 56.1703 65.664 56.1721 65.664C56.174 65.664 56.1759 65.664 56.1778 65.664C56.1796 65.664 56.1815 65.664 56.1834 65.664C56.1853 65.664 56.1871 65.664 56.189 65.664C56.1909 65.664 56.1928 65.664 56.1946 65.664C56.1965 65.664 56.1984 65.664 56.2003 65.664C56.2021 65.664 56.204 65.664 56.2059 65.664C56.2078 65.664 56.2096 65.664 56.2115 65.664C56.2134 65.664 56.2153 65.664 56.2171 65.664C56.219 65.664 56.2209 65.664 56.2228 65.664C56.2246 65.664 56.2265 65.664 56.2284 65.664C56.2303 65.664 56.2321 65.664 56.234 65.664C56.2359 65.664 56.2378 65.664 56.2396 65.664C56.2415 65.664 56.2434 65.664 56.2453 65.664C56.2471 65.664 56.249 65.664 56.2509 65.664C56.2528 65.664 56.2546 65.664 56.2565 65.664C56.2584 65.664 56.2603 65.664 56.2621 65.664C56.264 65.664 56.2659 65.664 56.2678 65.664C56.2696 65.664 56.2715 65.664 56.2734 65.664C56.2753 65.664 56.2771 65.664 56.279 65.664C56.2809 65.664 56.2828 65.664 56.2846 65.664C56.2865 65.664 56.2884 65.664 56.2903 65.664C56.2921 65.664 56.294 65.664 56.2959 65.664C56.2978 65.664 56.2996 65.664 56.3015 65.664C56.3034 65.664 56.3053 65.664 56.3071 65.664C56.309 65.664 56.3109 65.664 56.3128 65.664C56.3146 65.664 56.3165 65.664 56.3184 65.664C56.3203 65.664 56.3221 65.664 56.324 65.664C56.3259 65.664 56.3278 65.664 56.3296 65.664C56.3315 65.664 56.3334 65.664 56.3353 65.664C56.3371 65.664 56.339 65.664 56.3409 65.664C56.3428 65.664 56.3446 65.664 56.3465 65.664C56.3484 65.664 56.3503 65.664 56.3521 65.664C56.354 65.664 56.3559 65.664 56.3578 65.664C56.3596 65.664 56.3615 65.664 56.3634 65.664C56.3653 65.664 56.3671 65.664 56.369 65.664C56.3709 65.664 56.3728 65.664 56.3746 65.664C56.3765 65.664 56.3784 65.664 56.3803 65.664C56.3821 65.664 56.384 65.664 56.3859 65.664C56.3878 65.664 56.3896 65.664 56.3915 65.664C56.3934 65.664 56.3953 65.664 56.3971 65.664C56.399 65.664 56.4009 65.664 56.4028 65.664C56.4046 65.664 56.4065 65.664 56.4084 65.664C56.4103 65.664 56.4121 65.664 56.414 65.664C56.4159 65.664 56.4178 65.664 56.4196 65.664C56.4215 65.664 56.4234 65.664 56.4253 65.664C56.4271 65.664 56.429 65.664 56.4309 65.664C56.4328 65.664 56.4346 65.664 56.4365 65.664C56.4384 65.664 56.4403 65.664 56.4421 65.664C56.444 65.664 56.4459 65.664 56.4478 65.664C56.4496 65.664 56.4515 65.664 56.4534 65.664C56.4553 65.664 56.4571 65.664 56.459 65.664C56.4609 65.664 56.4628 65.664 56.4646 65.664C56.4665 65.664 56.4684 65.664 56.4703 65.664C56.4721 65.664 56.474 65.664 56.4759 65.664C56.4778 65.664 56.4796 65.664 56.4815 65.664C56.4834 65.664 56.4853 65.664 56.4871 65.664C56.489 65.664 56.4909 65.664 56.4928 65.664C56.4946 65.664 56.4965 65.664 56.4984 65.664C56.5003 65.664 56.5021 65.664 56.504 65.664C56.5059 65.664 56.5078 65.664 56.5096 65.664C56.5115 65.664 56.5134 65.664 56.5153 65.664C56.5171 65.664 56.519 65.664 56.5209 65.664C56.5228 65.664 56.5246 65.664 56.5265 65.664C56.5284 65.664 56.5303 65.664 56.5321 65.664C56.534 65.664 56.5359 65.664 56.5378 65.664C56.5396 65.664 56.5415 65.664 56.5434 65.664C56.5453 65.664 56.5471 65.664 56.549 65.664C56.5509 65.664 56.5528 65.664 56.5546 65.664C56.5565 65.664 56.5584 65.664 56.5603 65.664C56.5621 65.664 56.564 65.664 56.5659 65.664C56.5678 65.664 56.5696 65.664 56.5715 65.664C56.5734 65.664 56.5753 65.664 56.5771 65.664C56.579 65.664 56.5809 65.664 56.5828 65.664C56.5846 65.664 56.5865 65.664 56.5884 65.664C56.5903 65.664 56.5921 65.664 56.594 65.664C56.5959 65.664 56.5978 65.664 56.5996 65.664C56.6015 65.664 56.6034 65.664 56.6053 65.664C56.6071 65.664 56.609 65.664 56.6109 65.664C56.6128 65.664 56.6146 65.664 56.6165 65.664C56.6184 65.664 56.6203 65.664 56.6221 65.664C56.624 65.664 56.6259 65.664 56.6278 65.664C56.6296 65.664 56.6315 65.664 56.6334 65.664C56.6353 65.664 56.6371 65.664 56.639 65.664C56.6409 65.664 56.6428 65.664 56.6446 65.664C56.6465 65.664 56.6484 65.664 56.6503 65.664C56.6521 65.664 56.654 65.664 56.6559 65.664C56.6578 65.664 56.6596 65.664 56.6615 65.664C56.6634 65.664 56.6653 65.664 56.6671 65.664C56.669 65.664 56.6709 65.664 56.6728 65.664C56.6746 65.664 56.6765 65.664 56.6784 65.664C56.6803 65.664 56.6821 65.664 56.684 65.664C56.6859 65.664 56.6878 65.664 56.6896 65.664C56.6915 65.664 56.6934 65.664 56.6953 65.664C56.6971 65.664 56.699 65.664 56.7009 65.664C56.7028 65.664 56.7046 65.664 56.7065 65.664C56.7084 65.664 56.7103 65.664 56.7121 65.664C56.714 65.664 56.7159 65.664 56.7178 65.664C56.7196 65.664 56.7215 65.664 56.7234 65.664C56.7253 65.664 56.7271 65.664 56.729 65.664C56.7309 65.664 56.7328 65.664 56.7346 65.664C56.7365 65.664 56.7384 65.664 56.7403 65.664C56.7421 65.664 56.744 65.664 56.7459 65.664C56.7478 65.664 56.7496 65.664 56.7515 65.664C56.7534 65.664 56.7553 65.664 56.7571 65.664C56.759 65.664 56.7609 65.664 56.7628 65.664C56.7646 65.664 56.7665 65.664 56.7684 65.664C56.7703 65.664 56.7721 65.664 56.774 65.664C56.7759 65.664 56.7778 65.664 56.7796 65.664C56.7815 65.664 56.7834 65.664 56.7853 65.664C56.7871 65.664 56.789 65.664 56.7909 65.664C56.7928 65.664 56.7946 65.664 56.7965 65.664C56.7984 65.664 56.8003 65.664 56.8021 65.664C56.804 65.664 56.8059 65.664 56.8078 65.664C56.8096 65.664 56.8115 65.664 56.8134 65.664C56.8153 65.664 56.8171 65.664 56.819 65.664C56.8209 65.664 56.8228 65.664 56.8246 65.664C56.8265 65.664 56.8284 65.664 56.8303 65.664C56.8321 65.664 56.834 65.664 56.8359 65.664C56.8378 65.664 56.8396 65.664 56.8415 65.664C56.8434 65.664 56.8453 65.664 56.8471 65.664C56.849 65.664 56.8509 65.664 56.8528 65.664C56.8546 65.664 56.8565 65.664 56.8584 65.664C56.8603 65.664 56.8621 65.664 56.864 65.664C56.8659 65.664 56.8678 65.664 56.8696 65.664C56.8715 65.664 56.8734 65.664 56.8753 65.664C56.8771 65.664 56.879 65.664 56.8809 65.664C56.8828 65.664 56.8846 65.664 56.8865 65.664C56.8884 65.664 56.8903 65.664 56.8921 65.664C56.894 65.664 56.8959 65.664 56.8978 65.664C56.8996 65.664 56.9015 65.664 56.9034 65.664C56.9053 65.664 56.9071 65.664 56.909 65.664C56.9109 65.664 56.9128 65.664 56.9146 65.664C56.9165 65.664 56.9184 65.664 56.9203 65.664C56.9221 65.664 56.924 65.664 56.9259 65.664C56.9278 65.664 56.9296 65.664 56.9315 65.664C56.9334 65.664 56.9353 65.664 56.9371 65.664C56.939 65.664 56.9409 65.664 56.9428 65.664C56.9446 65.664 56.9465 65.664 56.9484 65.664C56.9503 65.664 56.9521 65.664 56.954 65.664C56.9559 65.664 56.9578 65.664 56.9596 65.664C56.9615 65.664 56.9634 65.664 56.9653 65.664C56.9671 65.664 56.969 65.664 56.9709 65.664C56.9728 65.664 56.9746 65.664 56.9765 65.664C56.9784 65.664 56.9803 65.664 56.9821 65.664C56.984 65.664 56.9859 65.664 56.9878 65.664C56.9896 65.664 56.9915 65.664 56.9934 65.664C56.9953 65.664 56.9971 65.664 56.999 65.664C57.0009 65.664 57.0028 65.664 57.0046 65.664C57.0065 65.664 57.0084 65.664 57.0103 65.664C57.0121 65.664 57.014 65.664 57.0159 65.664C57.0178 65.664 57.0196 65.664 57.0215 65.664C57.0234 65.664 57.0253 65.664 57.0271 65.664C57.029 65.664 57.0309 65.664 57.0328 65.664C57.0346 65.664 57.0365 65.664 57.0384 65.664C57.0403 65.664 57.0421 65.664 57.044 65.664C57.0459 65.664 57.0478 65.664 57.0496 65.664C57.0515 65.664 57.0534 65.664 57.0553 65.664C57.0571 65.664 57.059 65.664 57.0609 65.664C57.0628 65.664 57.0646 65.664 57.0665 65.664C57.0684 65.664 57.0703 65.664 57.0721 65.664C57.074 65.664 57.0759 65.664 57.0778 65.664C57.0796 65.664 57.0815 65.664 57.0834 65.664C57.0853 65.664 57.0871 65.664 57.089 65.664C57.0909 65.664 57.0928 65.664 57.0946 65.664C57.0965 65.664 57.0984 65.664 57.1003 65.664C57.1021 65.664 57.104 65.664 57.1059 65.664C57.1078 65.664 57.1096 65.664 57.1115 65.664C57.1134 65.664 57.1153 65.664 57.1171 65.664C57.119 65.664 57.1209 65.664 57.1228 65.664C57.1246 65.664 57.1265 65.664 57.1284 65.664C57.1303 65.664 57.1321 65.664 57.134 65.664C57.1359 65.664 57.1378 65.664 57.1396 65.664C57.1415 65.664 57.1434 65.664 57.1453 65.664C57.1471 65.664 57.149 65.664 57.1509 65.664C57.1528 65.664 57.1546 65.664 57.1565 65.664C57.1584 65.664 57.1603 65.664 57.1621 65.664C57.164 65.664 57.1659 65.664 57.1678 65.664C57.1696 65.664 57.1715 65.664 57.1734 65.664C57.1753 65.664 57.1771 65.664 57.179 65.664C57.1809 65.664 57.1828 65.664 57.1846 65.664C57.1865 65.664 57.1884 65.664 57.1903 65.664C57.1921 65.664 57.194 65.664 57.1959 65.664C57.1978 65.664 57.1996 65.664 57.2015 65.664C57.2034 65.664 57.2053 65.664 57.2071 65.664C57.209 65.664 57.2109 65.664 57.2128 65.664C57.2146 65.664 57.2165 65.664 57.2184 65.664C57.2203 65.664 57.2221 65.664 57.224 65.664C57.2259 65.664 57.2278 65.664 57.2296 65.664C57.2315 65.664 57.2334 65.664 57.2353 65.664C57.2371 65.664 57.239 65.664 57.2409 65.664C57.2428 65.664 57.2446 65.664 57.2465 65.664C57.2484 65.664 57.2503 65.664 57.2521 65.664C57.254 65.664 57.2559 65.664 57.2578 65.664C57.2596 65.664 57.2615 65.664 57.2634 65.664C57.2653 65.664 57.2671 65.664 57.269 65.664C57.2709 65.664 57.2728 65.664 57.2746 65.664C57.2765 65.664 57.2784 65.664 57.2803 65.664C57.2821 65.664 57.284 65.664 57.2859 65.664C57.2878 65.664 57.2896 65.664 57.2915 65.664C57.2934 65.664 57.2953 65.664 57.2971 65.664C57.299 65.664 57.3009 65.664 57.3028 65.664C57.3046 65.664 57.3065 65.664 57.3084 65.664C57.3103 65.664 57.3121 65.664 57.314 65.664C57.3159 65.664 57.3178 65.664 57.3196 65.664C57.3215 65.664 57.3234 65.664 57.3253 65.664C57.3271 65.664 57.329 65.664 57.3309 65.664C57.3328 65.664 57.3346 65.664 57.3365 65.664C57.3384 65.664 57.3403 65.664 57.3421 65.664C57.344 65.664 57.3459 65.664 57.3478 65.664C57.3496 65.664 57.3515 65.664 57.3534 65.664C57.3553 65.664 57.3571 65.664 57.359 65.664C57.3609 65.664 57.3628 65.664 57.3646 65.664C57.3665 65.664 57.3684 65.664 57.3703 65.664C57.3721 65.664 57.374 65.664 57.3759 65.664C57.3778 65.664 57.3796 65.664 57.3815 65.664C57.3834 65.664 57.3853 65.664 57.3871 65.664C57.389 65.664 57.3909 65.664 57.3928 65.664C57.3946 65.664 57.3965 65.664 57.3984 65.664C57.4003 65.664 57.4021 65.664 57.404 65.664C57.4059 65.664 57.4078 65.664 57.4096 65.664C57.4115 65.664 57.4134 65.664 57.4153 65.664C57.4171 65.664 57.419 65.664 57.4209 65.664C57.4228 65.664 57.4246 65.664 57.4265 65.664C57.4284 65.664 57.4303 65.664 57.4321 65.664C57.434 65.664 57.4359 65.664 57.4378 65.664C57.4396 65.664 57.4415 65.664 57.4434 65.664C57.4453 65.664 57.4471 65.664 57.449 65.664C57.4509 65.664 57.4528 65.664 57.4546 65.664C57.4565 65.664 57.4584 65.664 57.4603 65.664C57.4621 65.664 57.464 65.664 57.4659 65.664C57.4678 65.664 57.4696 65.664 57.4715 65.664C57.4734 65.664 57.4753 65.664 57.4771 65.664C57.479 65.664 57.4809 65.664 57.4828 65.664C57.4846 65.664 57.4865 65.664 57.4884 65.664C57.4903 65.664 57.4921 65.664 57.494 65.664C57.4959 65.664 57.4978 65.664 57.4996 65.664C57.5015 65.664 57.5034 65.664 57.5053 65.664C57.5071 65.664 57.509 65.664 57.5109 65.664C57.5128 65.664 57.5146 65.664 57.5165 65.664C57.5184 65.664 57.5203 65.664 57.5221 65.664C57.524 65.664 57.5259 65.664 57.5278 65.664C57.5296 65.664 57.5315 65.664 57.5334 65.664C57.5353 65.664 57.5371 65.664 57.539 65.664C57.5409 65.664 57.5428 65.664 57.5446 65.664C57.5465 65.664 57.5484 65.664 57.5503 65.664C57.5521 65.664 57.554 65.664 57.5559 65.664C57.5578 65.664 57.5596 65.664 57.5615 65.664C57.5634 65.664 57.5653 65.664 57.5671 65.664C57.569 65.664 57.5709 65.664 57.5728 65.664C57.5746 65.664 57.5765 65.664 57.5784 65.664C57.5803 65.664 57.5821 65.664 57.584 65.664C57.5859 65.664 57.5878 65.664 57.5896 65.664C57.5915 65.664 57.5934 65.664 57.5953 65.664C57.5971 65.664 57.599 65.664 57.6009 65.664C57.6028 65.664 57.6046 65.664 57.6065 65.664C57.6084 65.664 57.6103 65.664 57.6121 65.664C57.614 65.664 57.6159 65.664 57.6178 65.664C57.6196 65.664 57.6215 65.664 57.6234 65.664C57.6253 65.664 57.6271 65.664 57.629 65.664C57.6309 65.664 57.6328 65.664 57.6346 65.664C57.6365 65.664 57.6384 65.664 57.6403 65.664C57.6421 65.664 57.644 65.664 57.6459 65.664C57.6478 65.664 57.6496 65.664 57.6515 65.664C57.6534 65.664 57.6553 65.664 57.6571 65.664C57.659 65.664 57.6609 65.664 57.6628 65.664C57.6646 65.664 57.6665 65.664 57.6684 65.664C57.6703 65.664 57.6721 65.664 57.674 65.664C57.6759 65.664 57.6778 65.664 57.6796 65.664C57.6815 65.664 57.6834 65.664 57.6853 65.664C57.6871 65.664 57.689 65.664 57.6909 65.664C57.6928 65.664 57.6946 65.664 57.6965 65.664C57.6984 65.664 57.7003 65.664 57.7021 65.664C57.704 65.664 57.7059 65.664 57.7078 65.664C57.7096 65.664 57.7115 65.664 57.7134 65.664C57.7153 65.664 57.7171 65.664 57.719 65.664C57.7209 65.664 57.7228 65.664 57.7246 65.664C57.7265 65.664 57.7284 65.664 57.7303 65.664C57.7321 65.664 57.734 65.664 57.7359 65.664C57.7378 65.664 57.7396 65.664 57.7415 65.664C57.7434 65.664 57.7453 65.664 57.7471 65.664C57.749 65.664 57.7509 65.664 57.7528 65.664C57.7546 65.664 57.7565 65.664 57.7584 65.664C57.7603 65.664 57.7621 65.664 57.764 65.664C57.7659 65.664 57.7678 65.664 57.7696 65.664C57.7715 65.664 57.7734 65.664 57.7753 65.664C57.7771 65.664 57.779 65.664 57.7809 65.664C57.7828 65.664 57.7846 65.664 57.7865 65.664C57.7884 65.664 57.7903 65.664 57.7921 65.664C57.794 65.664 57.7959 65.664 57.7978 65.664C57.7996 65.664 57.8015 65.664 57.8034 65.664C57.8053 65.664 57.8071 65.664 57.809 65.664C57.8109 65.664 57.8128 65.664 57.8146 65.664C57.8165 65.664 57.8184 65.664 57.8203 65.664C57.8221 65.664 57.824 65.664 57.8259 65.664C57.8278 65.664 57.8296 65.664 57.8315 65.664C57.8334 65.664 57.8353 65.664 57.8371 65.664C57.839 65.664 57.8409 65.664 57.8428 65.664C57.8446 65.664 57.8465 65.664 57.8484 65.664C57.8503 65.664 57.8521 65.664 57.854 65.664C57.8559 65.664 57.8578 65.664 57.8596 65.664C57.8615 65.664 57.8634 65.664 57.8653 65.664C57.8671 65.664 57.869 65.664 57.8709 65.664C57.8728 65.664 57.8746 65.664 57.8765 65.664C57.8784 65.664 57.8803 65.664 57.8821 65.664C57.884 65.664 57.8859 65.664 57.8878 65.664C57.8896 65.664 57.8915 65.664 57.8934 65.664C57.8953 65.664 57.8971 65.664 57.899 65.664C57.9009 65.664 57.9028 65.664 57.9046 65.664C57.9065 65.664 57.9084 65.664 57.9103 65.664C57.9121 65.664 57.914 65.664 57.9159 65.664C57.9178 65.664 57.9196 65.664 57.9215 65.664C57.9234 65.664 57.9253 65.664 57.9271 65.664C57.929 65.664 57.9309 65.664 57.9328 65.664C57.9346 65.664 57.9365 65.664 57.9384 65.664C57.9403 65.664 57.9421 65.664 57.944 65.664V49.664ZM55.3397 49.6687C54.3764 49.6355 53.228 49.6028 51.8991 49.5704L51.5089 65.5656C52.804 65.5972 53.8956 65.6285 54.7883 65.6592L55.3397 49.6687ZM43.704 57.568V112H59.704V57.568H43.704ZM50.325 104.12C49.4177 104.279 48.4021 104.39 47.2688 104.44L47.9792 120.424C49.7259 120.346 51.4303 120.169 53.083 119.88L50.325 104.12ZM47.2607 104.44C45.9324 104.501 44.8435 104.528 43.976 104.528V120.528C45.1565 120.528 46.4996 120.491 47.9873 120.424L47.2607 104.44ZM43.976 104.528C43.2089 104.528 42.119 104.501 40.6681 104.439L39.9879 120.425C41.545 120.491 42.8871 120.528 43.976 120.528V104.528ZM40.6755 104.44C39.5055 104.389 38.5363 104.278 37.7453 104.132L34.8467 119.868C36.4877 120.17 38.2065 120.347 39.9805 120.424L40.6755 104.44ZM44.296 112V46.912H28.296V112H44.296ZM41.9529 52.5688L42.6249 51.8968L31.3111 40.5832L30.6391 41.2552L41.9529 52.5688ZM37.093 54.239C41.1944 54.1749 45.0249 54.1108 48.5841 54.0467L48.2959 38.0493C44.7511 38.1132 40.9336 38.1771 36.843 38.241L37.093 54.239ZM48.6542 54.0451C52.1662 53.9511 55.6948 53.904 59.24 53.904V37.904C55.5532 37.904 51.8818 37.9529 48.2258 38.0509L48.6542 54.0451ZM59.24 53.904C62.8191 53.904 65.6709 54.5435 67.971 55.6099L74.701 41.0941C69.9611 38.8965 64.7489 37.904 59.24 37.904V53.904ZM67.996 55.6214C70.0587 56.5692 71.6156 57.9641 72.8109 59.9753L86.5651 51.8007C83.7284 47.0279 79.7173 43.3988 74.676 41.0826L67.996 55.6214ZM72.8569 60.0517C73.934 61.8188 74.76 64.534 74.76 68.704H90.76C90.76 62.506 89.538 56.6772 86.5191 51.7243L72.8569 60.0517ZM122.377 64.24H130.377V58.0938L124.438 56.5101L122.377 64.24ZM121.417 71.008L129.204 72.8403L129.206 72.8302L129.209 72.8201L121.417 71.008ZM118.633 78.256L115.761 85.7228L122.15 88.1801L125.565 82.2477L118.633 78.256ZM116.137 77.536L114.27 85.3151L114.447 85.3576L114.626 85.392L116.137 77.536ZM110.233 77.968L113.439 85.2973L113.534 85.2557L113.628 85.2117L110.233 77.968ZM102.985 87.808L96.5682 92.5861L105.137 104.093L110.422 90.7549L102.985 87.808ZM101.305 85.552L93.319 85.0709L93.1433 87.987L94.8882 90.3301L101.305 85.552ZM102.313 77.68L110.161 79.2303L110.163 79.2212L110.164 79.2121L102.313 77.68ZM104.665 70.528L111.841 74.0628L111.841 74.0628L104.665 70.528ZM108.984 65.392L113.58 71.9404L113.591 71.9326L113.602 71.9246L108.984 65.392ZM119.545 63.664L118.138 71.5394L118.294 71.5673L118.451 71.589L119.545 63.664ZM87.1925 71.056L79.3338 69.5591L78.3715 74.6114L82.5684 77.5842L87.1925 71.056ZM88.9685 66.736L95.8158 70.8729L95.8158 70.8729L88.9685 66.736ZM91.7525 63.328L92.3266 55.3486L89.2209 55.1252L86.7813 57.06L91.7525 63.328ZM101.785 68.272L95.3928 73.083L95.4053 73.0996L95.4179 73.1162L101.785 68.272ZM105.817 79.888H113.817V79.5155L113.782 79.1446L105.817 79.888ZM105.817 112L107.291 119.863L113.817 118.639V112H105.817ZM102.265 112.384L101.884 104.393L101.782 104.398L101.681 104.405L102.265 112.384ZM94.4405 112.384L95.0105 104.404L94.9204 104.398L94.8303 104.394L94.4405 112.384ZM90.7925 112H82.7925V118.745L89.4408 119.885L90.7925 112ZM89.5445 74.32L82.3611 77.8413L82.4029 77.9265L82.4468 78.0108L89.5445 74.32ZM114.377 64.24C114.377 65.1371 114.199 66.7269 113.624 69.1959L129.209 72.8201C129.914 69.7851 130.377 66.8629 130.377 64.24H114.377ZM113.629 69.1757C113.142 71.2469 112.475 72.9171 111.7 74.2643L125.565 82.2477C127.222 79.3709 128.411 76.2091 129.204 72.8403L113.629 69.1757ZM121.504 70.7892C120.254 70.3083 118.967 69.9337 117.647 69.6799L114.626 85.392C114.97 85.4583 115.347 85.5637 115.761 85.7228L121.504 70.7892ZM118.003 69.7569C116.585 69.4165 115.142 69.248 113.689 69.248V85.248C113.899 85.248 114.088 85.2715 114.27 85.3151L118.003 69.7569ZM113.689 69.248C111.39 69.248 109.056 69.6843 106.837 70.7243L113.628 85.2117C113.593 85.2279 113.562 85.2398 113.538 85.248C113.513 85.2562 113.498 85.2594 113.496 85.2598C113.491 85.2609 113.549 85.248 113.689 85.248V69.248ZM107.026 70.6387C104.906 71.5663 103.094 72.9165 101.586 74.5404L113.311 85.4276C113.395 85.3368 113.447 85.2975 113.461 85.2875C113.473 85.2786 113.464 85.2863 113.439 85.2973L107.026 70.6387ZM101.586 74.5404C100.238 75.9922 99.0971 77.639 98.1194 79.382L112.074 87.21C112.568 86.329 112.995 85.7678 113.311 85.4276L101.586 74.5404ZM98.1194 79.382C97.1764 81.0629 96.3241 82.9 95.547 84.8611L110.422 90.7549C110.989 89.324 111.545 88.153 112.074 87.21L98.1194 79.382ZM109.401 83.0299L107.721 80.7739L94.8882 90.3301L96.5682 92.5861L109.401 83.0299ZM109.29 86.0331C109.429 83.7336 109.719 81.4669 110.161 79.2303L94.4642 76.1297C93.8819 79.0771 93.5005 82.0584 93.319 85.0709L109.29 86.0331ZM110.164 79.2121C110.557 77.2016 111.132 75.502 111.841 74.0628L97.4878 66.9932C96.0847 69.842 95.0923 72.9104 94.4606 76.1479L110.164 79.2121ZM111.841 74.0628C112.348 73.0341 112.935 72.3929 113.58 71.9404L104.389 58.8435C101.386 60.9511 99.0931 63.7339 97.4878 66.9932L111.841 74.0628ZM113.602 71.9246C113.815 71.7746 114.431 71.424 115.993 71.424V55.424C111.922 55.424 107.866 56.3854 104.367 58.8594L113.602 71.9246ZM115.993 71.424C117.243 71.424 117.901 71.497 118.138 71.5394L120.951 55.7886C119.396 55.511 117.686 55.424 115.993 55.424V71.424ZM118.451 71.589C119.034 71.6693 119.655 71.7937 120.315 71.9699L124.438 56.5101C123.178 56.1743 121.911 55.9147 120.638 55.739L118.451 71.589ZM95.0512 72.5529C95.0837 72.3822 95.2343 71.8355 95.8158 70.8729L82.1212 62.5991C80.8467 64.7085 79.8133 67.0418 79.3338 69.5591L95.0512 72.5529ZM95.8158 70.8729C96.126 70.3595 96.3766 70.0128 96.556 69.7931C96.7387 69.5695 96.8016 69.5342 96.7237 69.596L86.7813 57.06C84.8246 58.6119 83.3145 60.624 82.1212 62.5991L95.8158 70.8729ZM91.1784 71.3074C93.8187 71.4973 94.8177 72.3189 95.3928 73.083L108.176 63.461C104.271 58.273 98.5823 55.7987 92.3266 55.3486L91.1784 71.3074ZM95.4179 73.1162C96.5158 74.5592 97.5008 76.8778 97.8511 80.6314L113.782 79.1446C113.236 73.2982 111.533 67.8728 108.151 63.4278L95.4179 73.1162ZM97.8165 79.888V112H113.817V79.888H97.8165ZM104.342 104.137C103.766 104.245 102.961 104.342 101.884 104.393L102.645 120.375C104.256 120.298 105.819 120.139 107.291 119.863L104.342 104.137ZM101.681 104.405C100.562 104.487 99.4452 104.528 98.3285 104.528V120.528C99.8358 120.528 101.343 120.473 102.848 120.363L101.681 104.405ZM98.3285 104.528C97.285 104.528 96.1796 104.488 95.0105 104.404L93.8705 120.364C95.3894 120.472 96.876 120.528 98.3285 120.528V104.528ZM94.8303 104.394C93.7923 104.343 92.9015 104.245 92.1442 104.115L89.4408 119.885C90.9235 120.139 92.4647 120.297 94.0507 120.374L94.8303 104.394ZM98.7925 112V80.992H82.7925V112H98.7925ZM98.7925 80.992C98.7925 77.5286 98.3136 73.8433 96.6422 70.6292L82.4468 78.0108C82.421 77.9613 82.5185 78.1329 82.6169 78.6589C82.7144 79.1804 82.7925 79.9412 82.7925 80.992H98.7925ZM96.7279 70.7987C95.7921 68.8897 94.285 66.2762 91.8166 64.5278L82.5684 77.5842C82.2646 77.369 82.0703 77.1799 81.9743 77.079C81.8768 76.9764 81.8433 76.9253 81.866 76.9569C81.8874 76.9866 81.9449 77.0704 82.0343 77.2239C82.1229 77.3761 82.2326 77.5791 82.3611 77.8413L96.7279 70.7987ZM165.751 101.44L173.058 104.695L173.058 104.695L165.751 101.44ZM158.263 110.272L153.993 103.507L153.978 103.516L153.963 103.525L158.263 110.272ZM133.879 110.272L129.562 117.008L129.586 117.023L129.609 117.037L133.879 110.272ZM126.439 101.392L133.769 98.1887L133.769 98.1887L126.439 101.392ZM126.439 74.656L119.131 71.4012L119.124 71.4155L119.118 71.4299L126.439 74.656ZM133.927 65.824L138.196 72.5895L138.219 72.5747L138.243 72.5598L133.927 65.824ZM158.359 65.824L162.675 59.0882L162.675 59.0882L158.359 65.824ZM165.799 74.704L158.468 77.9073L158.473 77.9187L158.478 77.9301L165.799 74.704ZM139.783 95.2L131.854 96.2651L131.862 96.3231L131.87 96.3809L139.783 95.2ZM141.703 100.336L135.303 105.136L135.37 105.226L135.44 105.314L141.703 100.336ZM150.535 100.336L156.875 105.214L156.905 105.175L156.934 105.136L150.535 100.336ZM152.407 95.2L144.494 94.0191L144.486 94.0769L144.478 94.1349L152.407 95.2ZM152.407 80.848L144.478 81.9131L144.486 81.9711L144.494 82.0289L152.407 80.848ZM150.535 75.76L144.135 80.56L144.164 80.599L144.194 80.6377L150.535 75.76ZM141.703 75.76L135.379 70.8594L135.37 70.8709L135.362 70.8823L141.703 75.76ZM139.783 80.848L131.87 79.667L131.862 79.7249L131.854 79.7829L139.783 80.848ZM160.295 88.048C160.295 92.2961 159.591 95.6074 158.443 98.1852L173.058 104.695C175.302 99.6566 176.295 94.0399 176.295 88.048H160.295ZM158.443 98.1852C157.343 100.654 155.857 102.33 153.993 103.507L162.532 117.037C167.26 114.054 170.766 109.842 173.058 104.695L158.443 98.1852ZM153.963 103.525C152.269 104.605 149.805 105.392 146.119 105.392V121.392C152.096 121.392 157.728 120.099 162.562 117.019L153.963 103.525ZM146.119 105.392C142.392 105.392 139.883 104.602 138.148 103.507L129.609 117.037C134.466 120.102 140.117 121.392 146.119 121.392V105.392ZM138.195 103.536C136.314 102.331 134.841 100.641 133.769 98.1887L119.108 104.595C121.364 109.759 124.851 113.989 129.562 117.008L138.195 103.536ZM133.769 98.1887C132.634 95.5907 131.943 92.2747 131.943 88.048H115.943C115.943 93.9973 116.915 99.5773 119.108 104.595L133.769 98.1887ZM131.943 88.048C131.943 83.7392 132.64 80.4222 133.759 77.8821L119.118 71.4299C116.909 76.4417 115.943 82.0528 115.943 88.048H131.943ZM133.746 77.9108C134.846 75.4421 136.332 73.7657 138.196 72.5895L129.657 59.0585C124.929 62.0423 121.423 66.2539 119.131 71.4012L133.746 77.9108ZM138.243 72.5598C139.978 71.4477 142.457 70.656 146.119 70.656V54.656C140.116 54.656 134.467 55.9763 129.61 59.0882L138.243 72.5598ZM146.119 70.656C149.823 70.656 152.315 71.4529 154.042 72.5598L162.675 59.0882C157.81 55.9711 152.142 54.656 146.119 54.656V70.656ZM154.042 72.5598C155.923 73.7646 157.396 75.4551 158.468 77.9073L173.129 71.5007C170.873 66.3369 167.386 62.1074 162.675 59.0882L154.042 72.5598ZM158.478 77.9301C159.6 80.476 160.295 83.779 160.295 88.048H176.295C176.295 82.077 175.325 76.484 173.119 71.4779L158.478 77.9301ZM131.351 88.048C131.351 90.9561 131.51 93.7031 131.854 96.2651L147.711 94.1349C147.479 92.4089 147.351 90.3879 147.351 88.048H131.351ZM131.87 96.3809C132.32 99.3926 133.313 102.484 135.303 105.136L148.103 95.536C148.172 95.6281 147.885 95.2954 147.695 94.0191L131.87 96.3809ZM135.44 105.314C138.29 108.899 142.332 110.208 146.119 110.208V94.208C145.984 94.208 146.229 94.1862 146.673 94.3745C147.163 94.5822 147.628 94.9334 147.965 95.358L135.44 105.314ZM146.119 110.208C149.875 110.208 154.015 108.933 156.875 105.214L144.194 95.4583C144.568 94.972 145.075 94.5919 145.588 94.3745C146.047 94.18 146.288 94.208 146.119 94.208V110.208ZM156.934 105.136C158.953 102.444 159.927 99.3065 160.335 96.2651L144.478 94.1349C144.31 95.3815 144.036 95.6679 144.135 95.536L156.934 105.136ZM160.319 96.3809C160.708 93.7748 160.887 90.9881 160.887 88.048H144.887C144.887 90.3559 144.745 92.3372 144.494 94.0191L160.319 96.3809ZM160.887 88.048C160.887 85.0811 160.708 82.2774 160.319 79.6671L144.494 82.0289C144.745 83.7066 144.887 85.7029 144.887 88.048H160.887ZM160.335 79.7829C159.928 76.7473 158.95 73.5793 156.875 70.8823L144.194 80.6377C144.039 80.4367 144.309 80.6607 144.478 81.9131L160.335 79.7829ZM156.935 70.96C154.101 67.1825 149.948 65.84 146.119 65.84V81.84C146.265 81.84 145.999 81.8645 145.521 81.6566C144.989 81.4254 144.489 81.0332 144.135 80.56L156.935 70.96ZM146.119 65.84C142.26 65.84 138.203 67.216 135.379 70.8594L148.026 80.6606C147.706 81.073 147.248 81.4357 146.74 81.6566C146.277 81.858 146.008 81.84 146.119 81.84V65.84ZM135.362 70.8823C133.318 73.5392 132.319 76.6604 131.87 79.667L147.695 82.0289C147.886 80.7476 148.167 80.4768 148.043 80.6377L135.362 70.8823ZM131.854 79.7829C131.509 82.3487 131.351 85.1126 131.351 88.048H147.351C147.351 85.6714 147.48 83.6353 147.711 81.9131L131.854 79.7829ZM189.699 66.4L183.274 71.1668L183.317 71.2251L183.362 71.2827L189.699 66.4ZM191.955 112L193.386 119.871L199.955 118.677V112H191.955ZM188.355 112.384L187.974 104.393L187.873 104.398L187.771 104.405L188.355 112.384ZM180.579 112.384L181.149 104.404L181.059 104.398L180.969 104.394L180.579 112.384ZM176.931 112H168.931V118.745L175.579 119.885L176.931 112ZM176.931 64.096L171.274 58.4392L168.931 60.7823V64.096H176.931ZM177.603 63.424V55.424H174.289L171.946 57.7672L177.603 63.424ZM201.267 77.968L206.718 72.1128L206.718 72.1128L201.267 77.968ZM198.339 76.672V68.672H198.246L198.153 68.6742L198.339 76.672ZM193.971 78.304L198.503 84.8963L198.503 84.8963L193.971 78.304ZM189.795 82.192L195.951 87.3006L195.978 87.2688L196.004 87.2367L189.795 82.192ZM187.107 86.704H179.107L194.63 89.4251L187.107 86.704ZM187.107 73.744L181.121 68.4361L179.107 70.7078V73.744H187.107ZM192.099 68.8L197.374 74.8141L197.404 74.7881L197.433 74.7619L192.099 68.8ZM197.955 64.816L201.488 71.9934L201.532 71.9716L201.576 71.9493L197.955 64.816ZM211.635 65.2L207.172 71.8396L207.235 71.8816L207.298 71.9224L211.635 65.2ZM216.147 70.528L208.853 73.8152L208.853 73.8152L216.147 70.528ZM217.683 112L219.114 119.871L225.683 118.677V112H217.683ZM214.083 112.384L213.702 104.393L213.601 104.398L213.499 104.405L214.083 112.384ZM206.307 112.384L206.877 104.404L206.787 104.398L206.697 104.394L206.307 112.384ZM202.659 112H194.659V118.745L201.307 119.885L202.659 112ZM226.803 77.92L221.563 83.9655L221.612 84.0079L221.662 84.0495L226.803 77.92ZM219.747 78.304L224.41 84.8043L224.456 84.7712L224.502 84.7374L219.747 78.304ZM215.571 82.336L221.757 87.4086L221.781 87.3787L221.806 87.3485L215.571 82.336ZM212.451 87.232H204.451L219.714 90.5845L212.451 87.232ZM212.451 73.36L206.305 68.2385L204.451 70.4636V73.36H212.451ZM217.539 68.464L222.486 74.751L222.517 74.7261L222.549 74.701L217.539 68.464ZM223.827 64.672L220.675 57.3188L220.675 57.3188L223.827 64.672ZM237.603 65.248L232.963 71.7653L233 71.7916L233.037 71.8175L237.603 65.248ZM241.875 70.672L249.259 67.5951L249.259 67.5951L241.875 70.672ZM243.843 105.28L236.016 106.936L236.019 106.951L236.023 106.967L243.843 105.28ZM245.715 109.552L250.8 115.727L256.652 110.909L252.155 104.806L245.715 109.552ZM241.635 111.856L244.428 119.353L244.492 119.329L244.555 119.304L241.635 111.856ZM230.067 110.368L236.497 105.609L236.497 105.609L230.067 110.368ZM183.171 71.424C183.433 71.424 183.589 71.4467 183.658 71.4603C183.724 71.4733 183.711 71.4775 183.644 71.4473C183.575 71.4156 183.489 71.3649 183.406 71.2969C183.323 71.2298 183.281 71.1766 183.274 71.1668L196.124 61.6332C192.879 57.2602 188.106 55.424 183.171 55.424V71.424ZM183.362 71.2827C183.465 71.4163 183.955 72.1444 183.955 74.32H199.955C199.955 69.8396 198.941 65.2876 196.036 61.5173L183.362 71.2827ZM183.955 74.32V112H199.955V74.32H183.955ZM190.524 104.129C189.889 104.244 189.05 104.342 187.974 104.393L188.735 120.375C190.348 120.298 191.909 120.14 193.386 119.871L190.524 104.129ZM187.771 104.405C186.648 104.488 185.547 104.528 184.467 104.528V120.528C185.947 120.528 187.438 120.472 188.939 120.363L187.771 104.405ZM184.467 104.528C183.423 104.528 182.318 104.488 181.149 104.404L180.009 120.364C181.528 120.472 183.014 120.528 184.467 120.528V104.528ZM180.969 104.394C179.931 104.343 179.04 104.245 178.282 104.115L175.579 119.885C177.062 120.139 178.603 120.297 180.189 120.374L180.969 104.394ZM184.931 112V64.096H168.931V112H184.931ZM182.588 69.7528L183.26 69.0808L171.946 57.7672L171.274 58.4392L182.588 69.7528ZM177.603 71.424H183.171V55.424H177.603V71.424ZM210.659 83.104C210.659 80.298 210.301 75.4491 206.718 72.1128L195.815 83.8231C194.833 82.9086 194.599 82.028 194.589 81.9927C194.576 81.9441 194.597 82.0044 194.619 82.2068C194.64 82.4059 194.659 82.6998 194.659 83.104H210.659ZM206.718 72.1128C204.679 70.2146 201.84 68.672 198.339 68.672V84.672C197.688 84.672 197.088 84.5273 196.601 84.3114C196.138 84.1067 195.884 83.8867 195.815 83.8232L206.718 72.1128ZM198.153 68.6742C194.761 68.753 191.814 70.0783 189.439 71.7117L198.503 84.8963C198.666 84.7842 198.792 84.7099 198.88 84.6626C198.968 84.6155 199.013 84.5987 199.015 84.598C199.016 84.5976 198.972 84.6141 198.886 84.6315C198.799 84.6492 198.677 84.6663 198.525 84.6698L198.153 68.6742ZM189.439 71.7117C187.235 73.2267 185.286 75.0546 183.586 77.1473L196.004 87.2367C196.799 86.2574 197.635 85.4933 198.503 84.8963L189.439 71.7117ZM183.638 77.0834C181.927 79.1459 180.503 81.4415 179.584 83.9829L194.63 89.4251C194.799 88.9585 195.167 88.2461 195.951 87.3006L183.638 77.0834ZM195.107 86.704V73.744H179.107V86.704H195.107ZM193.092 79.0519C194.36 77.6226 195.784 76.209 197.374 74.8141L186.823 62.7859C184.765 64.591 182.862 66.4734 181.121 68.4361L193.092 79.0519ZM197.433 74.7619C198.745 73.5881 200.096 72.6786 201.488 71.9934L194.421 57.6386C191.653 59.0014 189.1 60.7479 186.764 62.8381L197.433 74.7619ZM201.576 71.9493C202.549 71.4557 203.501 71.232 204.531 71.232V55.232C200.952 55.232 197.521 56.0643 194.333 57.6827L201.576 71.9493ZM204.531 71.232C206.023 71.232 206.767 71.5672 207.172 71.8396L216.097 58.5604C212.599 56.2088 208.607 55.232 204.531 55.232V71.232ZM207.298 71.9224C207.912 72.3188 208.426 72.8673 208.853 73.8152L223.44 67.2408C221.819 63.6447 219.325 60.6412 215.972 58.4776L207.298 71.9224ZM208.853 73.8152C209.335 74.8836 209.683 76.3384 209.683 78.352H225.683C225.683 74.4776 225.007 70.7164 223.44 67.2408L208.853 73.8152ZM209.683 78.352V112H225.683V78.352H209.683ZM216.252 104.129C215.617 104.244 214.778 104.342 213.702 104.393L214.463 120.375C216.076 120.298 217.637 120.14 219.114 119.871L216.252 104.129ZM213.499 104.405C212.376 104.488 211.275 104.528 210.195 104.528V120.528C211.675 120.528 213.166 120.472 214.667 120.363L213.499 104.405ZM210.195 104.528C209.151 104.528 208.046 104.488 206.877 104.404L205.737 120.364C207.256 120.472 208.742 120.528 210.195 120.528V104.528ZM206.697 104.394C205.659 104.343 204.768 104.245 204.01 104.115L201.307 119.885C202.79 120.139 204.331 120.297 205.917 120.374L206.697 104.394ZM210.659 112V83.104H194.659V112H210.659ZM236.291 83.008C236.291 80.1546 235.89 75.1004 231.944 71.7905L221.662 84.0495C220.579 83.1413 220.279 82.1925 220.24 82.0616C220.203 81.9336 220.291 82.1794 220.291 83.008H236.291ZM232.042 71.8745C229.991 70.0964 227.207 68.672 223.827 68.672V84.672C223.223 84.672 222.678 84.5433 222.245 84.3616C221.833 84.1888 221.611 84.0066 221.563 83.9655L232.042 71.8745ZM223.827 68.672C220.234 68.672 217.225 70.2196 214.992 71.8706L224.502 84.7374C224.819 84.5034 224.931 84.472 224.842 84.5078C224.738 84.5492 224.381 84.672 223.827 84.672V68.672ZM215.083 71.8037C212.939 73.3419 211.033 75.2125 209.336 77.3235L221.806 87.3485C222.733 86.1955 223.61 85.3781 224.41 84.8043L215.083 71.8037ZM209.385 77.2634C207.696 79.3223 206.274 81.5253 205.187 83.8795L219.714 90.5845C220.164 89.6107 220.821 88.5497 221.757 87.4086L209.385 77.2634ZM220.451 87.232V73.36H204.451V87.232H220.451ZM218.597 78.4815C219.644 77.2246 220.928 75.9768 222.486 74.751L212.592 62.177C210.245 64.0232 208.138 66.0394 206.305 68.2385L218.597 78.4815ZM222.549 74.701C223.95 73.5751 225.424 72.6914 226.978 72.0252L220.675 57.3188C217.75 58.5726 215.031 60.2169 212.529 62.227L222.549 74.701ZM226.978 72.0252C228.311 71.4541 229.482 71.232 230.547 71.232V55.232C227.131 55.232 223.823 55.9699 220.675 57.3188L226.978 72.0252ZM230.547 71.232C232.064 71.232 232.699 71.5774 232.963 71.7653L242.242 58.7307C238.73 56.2306 234.662 55.232 230.547 55.232V71.232ZM233.037 71.8175C233.564 72.1837 234.065 72.7287 234.49 73.7489L249.259 67.5951C247.764 64.0073 245.417 60.9363 242.168 58.6785L233.037 71.8175ZM234.49 73.7489C234.978 74.9194 235.315 76.4697 235.315 78.544H251.315C251.315 74.7303 250.692 71.0326 249.259 67.5951L234.49 73.7489ZM235.315 78.544V100H251.315V78.544H235.315ZM235.315 100C235.315 102.362 235.539 104.68 236.016 106.936L251.67 103.624C251.443 102.552 251.315 101.35 251.315 100H235.315ZM236.023 106.967C236.588 109.587 237.64 112.079 239.274 114.298L252.155 104.806C251.998 104.593 251.802 104.237 251.663 103.593L236.023 106.967ZM240.629 103.377C240.327 103.625 239.745 104.004 238.714 104.408L244.555 119.304C246.789 118.428 248.926 117.271 250.8 115.727L240.629 103.377ZM238.842 104.359C238.176 104.608 237.37 104.768 236.355 104.768V120.768C239.116 120.768 241.83 120.32 244.428 119.353L238.842 104.359ZM236.355 104.768C235.952 104.768 235.677 104.741 235.509 104.714C235.341 104.688 235.311 104.668 235.379 104.694C235.453 104.722 235.628 104.799 235.85 104.962C236.077 105.128 236.303 105.347 236.497 105.609L223.636 115.127C226.98 119.646 232.154 120.768 236.355 120.768V104.768ZM236.497 105.609C236.619 105.774 236.566 105.781 236.48 105.448C236.39 105.102 236.291 104.482 236.291 103.504H220.291C220.291 107.387 221.04 111.618 223.636 115.127L236.497 105.609ZM236.291 103.504V83.008H220.291V103.504H236.291ZM293.532 101.44L300.84 104.695L300.84 104.695L293.532 101.44ZM286.044 110.272L281.774 103.507L281.759 103.516L281.744 103.525L286.044 110.272ZM261.66 110.272L257.344 117.008L257.367 117.023L257.39 117.037L261.66 110.272ZM254.22 101.392L261.55 98.1887L261.55 98.1887L254.22 101.392ZM254.22 74.656L246.912 71.4012L246.905 71.4155L246.899 71.4299L254.22 74.656ZM261.708 65.824L265.977 72.5895L266.001 72.5747L266.024 72.5598L261.708 65.824ZM286.14 65.824L290.456 59.0882L290.456 59.0882L286.14 65.824ZM293.58 74.704L286.249 77.9073L286.254 77.9187L286.259 77.9301L293.58 74.704ZM267.564 95.2L259.635 96.2651L259.643 96.3231L259.651 96.3809L267.564 95.2ZM269.484 100.336L263.084 105.136L263.151 105.226L263.221 105.314L269.484 100.336ZM278.316 100.336L284.657 105.214L284.686 105.175L284.716 105.136L278.316 100.336ZM280.188 95.2L272.275 94.0191L272.267 94.0769L272.259 94.1349L280.188 95.2ZM280.188 80.848L272.259 81.9131L272.267 81.9711L272.275 82.0289L280.188 80.848ZM278.316 75.76L271.916 80.56L271.945 80.599L271.975 80.6377L278.316 75.76ZM269.484 75.76L263.16 70.8594L263.152 70.8709L263.143 70.8823L269.484 75.76ZM267.564 80.848L259.651 79.667L259.643 79.7249L259.635 79.7829L267.564 80.848ZM288.076 88.048C288.076 92.2961 287.372 95.6074 286.224 98.1852L300.84 104.695C303.084 99.6566 304.076 94.0399 304.076 88.048H288.076ZM286.224 98.1852C285.124 100.654 283.638 102.33 281.774 103.507L290.313 117.037C295.041 114.054 298.547 109.842 300.84 104.695L286.224 98.1852ZM281.744 103.525C280.05 104.605 277.586 105.392 273.9 105.392V121.392C279.877 121.392 285.509 120.099 290.343 117.019L281.744 103.525ZM273.9 105.392C270.173 105.392 267.664 104.602 265.929 103.507L257.39 117.037C262.247 120.102 267.898 121.392 273.9 121.392V105.392ZM265.976 103.536C264.096 102.331 262.622 100.641 261.55 98.1887L246.889 104.595C249.146 109.759 252.632 113.989 257.344 117.008L265.976 103.536ZM261.55 98.1887C260.415 95.5907 259.724 92.2747 259.724 88.048H243.724C243.724 93.9973 244.696 99.5773 246.889 104.595L261.55 98.1887ZM259.724 88.048C259.724 83.7392 260.421 80.4222 261.54 77.8821L246.899 71.4299C244.69 76.4417 243.724 82.0528 243.724 88.048H259.724ZM261.528 77.9108C262.627 75.4421 264.113 73.7657 265.977 72.5895L257.438 59.0585C252.71 62.0423 249.204 66.2539 246.912 71.4012L261.528 77.9108ZM266.024 72.5598C267.759 71.4477 270.239 70.656 273.9 70.656V54.656C267.897 54.656 262.248 55.9763 257.392 59.0882L266.024 72.5598ZM273.9 70.656C277.605 70.656 280.096 71.4529 281.824 72.5598L290.456 59.0882C285.591 55.9711 279.923 54.656 273.9 54.656V70.656ZM281.824 72.5598C283.704 73.7646 285.178 75.4551 286.249 77.9073L300.91 71.5007C298.654 66.3369 295.168 62.1074 290.456 59.0882L281.824 72.5598ZM286.259 77.9301C287.381 80.476 288.076 83.779 288.076 88.048H304.076C304.076 82.077 303.107 76.484 300.9 71.4779L286.259 77.9301ZM259.132 88.048C259.132 90.9561 259.291 93.7031 259.635 96.2651L275.493 94.1349C275.261 92.4089 275.132 90.3879 275.132 88.048H259.132ZM259.651 96.3809C260.101 99.3926 261.095 102.484 263.084 105.136L275.884 95.536C275.953 95.6281 275.667 95.2954 275.476 94.0191L259.651 96.3809ZM263.221 105.314C266.071 108.899 270.114 110.208 273.9 110.208V94.208C273.766 94.208 274.01 94.1862 274.454 94.3745C274.944 94.5822 275.409 94.9334 275.746 95.358L263.221 105.314ZM273.9 110.208C277.656 110.208 281.796 108.933 284.657 105.214L271.975 95.4583C272.349 94.972 272.857 94.5919 273.369 94.3745C273.828 94.18 274.069 94.208 273.9 94.208V110.208ZM284.716 105.136C286.735 102.444 287.708 99.3065 288.117 96.2651L272.259 94.1349C272.092 95.3815 271.817 95.6679 271.916 95.536L284.716 105.136ZM288.1 96.3809C288.489 93.7748 288.668 90.9881 288.668 88.048H272.668C272.668 90.3559 272.526 92.3372 272.275 94.0191L288.1 96.3809ZM288.668 88.048C288.668 85.0811 288.49 82.2774 288.1 79.6671L272.275 82.0289C272.526 83.7066 272.668 85.7029 272.668 88.048H288.668ZM288.117 79.7829C287.709 76.7473 286.731 73.5793 284.657 70.8823L271.975 80.6377C271.82 80.4367 272.091 80.6607 272.259 81.9131L288.117 79.7829ZM284.716 70.96C281.883 67.1825 277.73 65.84 273.9 65.84V81.84C274.046 81.84 273.78 81.8645 273.302 81.6566C272.77 81.4254 272.271 81.0332 271.916 80.56L284.716 70.96ZM273.9 65.84C270.041 65.84 265.984 67.216 263.16 70.8594L275.807 80.6606C275.487 81.073 275.03 81.4357 274.522 81.6566C274.058 81.858 273.79 81.84 273.9 81.84V65.84ZM263.143 70.8823C261.099 73.5392 260.1 76.6604 259.651 79.667L275.476 82.0289C275.667 80.7476 275.949 80.4768 275.825 80.6377L263.143 70.8823ZM259.635 79.7829C259.29 82.3487 259.132 85.1126 259.132 88.048H275.132C275.132 85.6714 275.261 83.6353 275.493 81.9131L259.635 79.7829Z" fill="black" mask="url(#path-1-outside-1_5_52)"/>
</svg>
